<svg xmlns="http://www.w3.org/2000/svg" width="197.552" height="197.552" viewBox="0 0 197.552 197.552">
  <g id="Group_12" data-name="Group 12" transform="matrix(1, 0, 0, 1, -61, 219)">
    <g id="Group_11" data-name="Group 11" transform="translate(61 -219)">
      <circle id="Ellipse_1" data-name="Ellipse 1" cx="98.776" cy="98.776" r="98.776" transform="translate(0 0)" fill="#56c6ed"/>
      <g id="Group_7" data-name="Group 7" transform="translate(24.306 22.993)">
        <g id="Group_6" data-name="Group 6">
          <path id="Path_2" data-name="Path 2" d="M-1432.714,2336.389l-24.077-10.735,5.126-11.5,7.494,3.341-2.107,4.726,1.445.644,1.3-2.919,7.524,3.354-1.3,2.919,7.614,3.4Z" transform="translate(1456.791 -2273.474)"/>
          <path id="Path_3" data-name="Path 3" d="M-1349.873,2173.451l9.3,8.039-3.448,3.989-6.871-1.323,4.587,3.965-4.849,5.609-19.942-17.242,5.56-6.431a6.7,6.7,0,0,1,6.819-2.294,7.878,7.878,0,0,1,3.256,1.726,8.356,8.356,0,0,1,2.832,7.154Zm-5,5.737a1.983,1.983,0,0,0-.2-2.789,1.977,1.977,0,0,0-2.764.224,1.976,1.976,0,0,0,.178,2.767A1.983,1.983,0,0,0-1354.877,2179.188Z" transform="translate(1380.512 -2142.98)"/>
          <path id="Path_4" data-name="Path 4" d="M-1177.378,2048.329c-3.612-6.171-4.381-13.357.766-16.369,5.233-3.062,11.086,1.262,14.648,7.348,3.612,6.172,4.4,13.386-.749,16.4C-1167.947,2058.768-1173.833,2054.386-1177.378,2048.329Zm9.413-5.509a1.976,1.976,0,0,0-2.688-.679,1.976,1.976,0,0,0-.724,2.676,1.984,1.984,0,0,0,2.705.708A1.983,1.983,0,0,0-1167.965,2042.819Z" transform="translate(1210.651 -2021.374)"/>
          <path id="Path_5" data-name="Path 5" d="M-983.913,1944.78l5.677-1.012,4.627,25.953-9.019,1.608-5.184-6.172,1.226,6.877-5.677,1.012-4.627-25.953,9.019-1.608,5.19,6.2Z" transform="translate(1047.404 -1943.768)"/>
          <path id="Path_6" data-name="Path 6" d="M-741.513,1948.57l-1.144,8.158-2.578-.361-2.517,17.947-7.342-1.03,2.517-17.948-2.578-.361,1.144-8.158Z" transform="translate(832.222 -1946.482)"/>
          <path id="Path_7" data-name="Path 7" d="M-619.353,2115.129l7.726,3.082-.9,2.257-7.727-3.082Z" transform="translate(712.138 -2096.307)"/>
          <path id="Path_8" data-name="Path 8" d="M-537.6,2052.031l-4.644,6.6-3.72-2.615L-547,2057.5l3.45,2.426-1.327,1.887-3.45-2.426-1.08,1.537,3.989,2.805-7.07,10.054-9.7-6.823,15.163-21.565Z" transform="translate(660.455 -2034.234)"/>
          <path id="Path_9" data-name="Path 9" d="M-436.141,2171.164l3.477,4.6-21.031,15.894-5.523-7.308,3.149-7.419-5.573,4.211-3.477-4.6,21.031-15.894,5.523,7.308-3.176,7.439Z" transform="translate(574.044 -2136.827)"/>
          <path id="Path_10" data-name="Path 10" d="M-361.118,2384.291l25.238-7.613,2.531,8.391c.885,2.934-.085,6.221-3.354,8.963a18.469,18.469,0,0,1-6.516,3.273c-5.836,1.76-10.208,1.186-12.746-.836a7.4,7.4,0,0,1-2.622-3.787Zm15.769,6.636a1.977,1.977,0,0,0,1.29-2.454,1.976,1.976,0,0,0-2.432-1.332,1.982,1.982,0,0,0-1.322,2.464A1.983,1.983,0,0,0-345.349,2390.927Z" transform="translate(481.466 -2329.127)"/>
        </g>
      </g>
      <g id="Group_9" data-name="Group 9" transform="translate(45.007 130.631)">
        <g id="Group_8" data-name="Group 8">
          <path id="Path_11" data-name="Path 11" d="M-1253.219,2974.789l-6.285-4.43,5.177-7.261c-4.653,4.483-8.5,5.718-11.471,3.6-4.937-3.52-1.966-12.3,3.064-19.358,5.226-7.33,13.3-12.064,19.878-7.371,6.082,4.336,4.934,12.455.395,19.654l-8.8-6.274a1.686,1.686,0,0,0-.49-2.416c-1.181-.841-2.606-.2-3.607,1.2a3.9,3.9,0,0,0,.91,5.763,6.551,6.551,0,0,0,2.68,1.084l1.636-2.295,6.511,4.642Z" transform="translate(1268.327 -2936.517)"/>
          <path id="Path_12" data-name="Path 12" d="M-993.153,3019.211l-2.218,10.065-5.921-1.305-.5,2.259,5.492,1.211-.634,2.875-5.492-1.211-.516,2.342,6.35,1.4-3.377,15.323-15.446-3.4,7.243-32.864Z" transform="translate(1043.193 -3005.777)"/>
          <path id="Path_13" data-name="Path 13" d="M-776.87,3029.867l1.3,10.223-6.015.765.292,2.3,5.579-.71.372,2.921-5.579.71.3,2.379,6.451-.821,1.981,15.564-15.691,2-4.249-33.382Z" transform="translate(844.431 -3018.21)"/>
          <path id="Path_14" data-name="Path 14" d="M-619.066,2923.731l-.229,20.985,8.781-5.176,7.988,13.553-5.753,3.391-10.849-5.861,5.34,9.06-8.516,5.019-17.066-28.954,8.516-5.02,3.588,6.088.04-8.325Z" transform="translate(708.454 -2923.731)"/>
        </g>
      </g>
      <path id="Path_18" data-name="Path 18" d="M86.486,0A86.486,86.486,0,1,1,0,86.486,86.271,86.271,0,0,1,86.486,0Z" transform="translate(12.29 12.29)" fill="none" stroke="#000" stroke-width="5"/>
      <path id="Path_24" data-name="Path 24" d="M40.27,0A40.255,40.255,0,1,1,19,6.071,39.829,39.829,0,0,1,40.27,0Z" transform="translate(58.506 58.506)" fill="none" stroke="#000" stroke-width="5"/>
      <path id="Path_15" data-name="Path 15" d="M-1447.215,2714.122l6.051-3.181-1.156,6.738,4.9,4.772-6.765.983-3.026,6.13-3.026-6.13-6.765-.983,4.9-4.772-1.156-6.738Z" transform="translate(1481.289 -2603.682)"/>
      <path id="Path_16" data-name="Path 16" d="M-278.072,2714.122l6.051-3.181-1.156,6.738,4.9,4.772-6.765.983-3.026,6.13-3.026-6.13-6.765-.983,4.9-4.772-1.156-6.738Z" transform="translate(440.564 -2603.682)"/>
      <g id="Group_10" data-name="Group 10" transform="translate(73.577 70.657)">
        <path id="Path_17" data-name="Path 17" d="M-962.557,2405.836c.351-.428.766-.851,1.082-1.281,3.633-4.936,4.6-9.454,2.706-12.724s-6.3-4.7-12.37-4.016c-.518.058-1.079.2-1.612.29-2.4-6.3-6.074-10.388-10.272-10.388s-7.874,4.083-10.271,10.388c-.533-.087-1.094-.232-1.613-.29-6.059-.677-10.484.748-12.37,4.016s-.927,7.787,2.706,12.724c.316.429.732.853,1.082,1.281-.351.428-.766.851-1.082,1.281-3.633,4.936-4.6,9.454-2.706,12.723,2.3,4,7.789,4.53,12.37,4.016.518-.058,1.079-.2,1.613-.289,2.4,6.3,6.074,10.388,10.271,10.388s7.874-4.083,10.272-10.388c.533.086,1.094.231,1.612.289,4.583.513,10.069-.025,12.37-4.016,1.889-3.269.927-7.787-2.706-12.723C-961.791,2406.687-962.206,2406.264-962.557,2405.836Zm-8.218-14.744c4.643-.513,7.977.349,9.155,2.388s.261,5.361-2.51,9.121c-.181.247-.429.49-.623.736a49.68,49.68,0,0,0-5.539-4.792,48.762,48.762,0,0,0-1.434-7.282C-971.414,2391.218-971.079,2391.125-970.774,2391.091Zm-7.3,23.306c-1.641.948-3.295,1.776-4.943,2.528-1.648-.751-3.3-1.58-4.943-2.528s-3.2-1.973-4.677-3.03c-.169-1.76-.266-3.6-.266-5.532s.1-3.772.266-5.532c1.48-1.056,3.029-2.078,4.677-3.03s3.295-1.776,4.943-2.528c1.648.751,3.3,1.58,4.943,2.528s3.2,1.974,4.677,3.03c.169,1.76.266,3.6.266,5.532s-.1,3.772-.266,5.532c-1.48,1.056-3.03,2.078-4.677,3.03Zm4.078,1.308c-.268,1.457-.594,2.824-.963,4.1-1.312-.326-2.657-.733-4.024-1.22.853-.441,1.71-.844,2.556-1.333s1.622-1.028,2.43-1.546Zm-13.054,2.879c-1.367.487-2.712.895-4.024,1.22-.369-1.276-.694-2.643-.963-4.1.808.518,1.584,1.058,2.43,1.547s1.7.891,2.556,1.333Zm-9.082-9.923c-1.084-.925-2.095-1.869-3.017-2.826.922-.956,1.933-1.9,3.017-2.825q-.063,1.393-.065,2.825T-996.138,2408.661Zm4.1-12.695c.268-1.457.594-2.824.963-4.1,1.312.326,2.657.733,4.024,1.221-.853.441-1.71.844-2.557,1.332s-1.622,1.029-2.43,1.547Zm13.054-2.879c1.367-.488,2.712-.9,4.024-1.221.369,1.276.695,2.643.963,4.1-.808-.518-1.584-1.058-2.43-1.547s-1.7-.892-2.556-1.332Zm9.082,9.922c1.084.925,2.095,1.869,3.017,2.825-.922.956-1.933,1.9-3.017,2.826q.063-1.392.065-2.826t-.065-2.825Zm-13.116-22c2.464,0,5.069,2.949,6.989,7.746a49.693,49.693,0,0,0-6.989,2.427,49.688,49.688,0,0,0-6.989-2.427C-988.091,2383.961-985.486,2381.012-983.022,2381.012Zm-21.4,12.467c.953-1.651,3.324-2.534,6.661-2.534a22.471,22.471,0,0,1,2.494.146c.3.034.64.127.951.172a48.747,48.747,0,0,0-1.434,7.281,49.712,49.712,0,0,0-5.538,4.792c-.194-.246-.442-.49-.623-.737C-1004.685,2398.84-1005.6,2395.514-1004.424,2393.479Zm9.155,27.1c-4.64.518-7.977-.349-9.155-2.388s-.261-5.361,2.51-9.122c.181-.246.429-.49.623-.736a49.686,49.686,0,0,0,5.538,4.792,48.775,48.775,0,0,0,1.434,7.282C-994.629,2420.454-994.965,2420.546-995.269,2420.581Zm12.247,10.079c-2.464,0-5.069-2.948-6.989-7.746a49.719,49.719,0,0,0,6.989-2.427,49.724,49.724,0,0,0,6.989,2.427C-977.953,2427.711-980.558,2430.66-983.022,2430.66Zm21.4-12.467c-1.174,2.039-4.521,2.906-9.155,2.388-.3-.034-.64-.127-.951-.172a48.765,48.765,0,0,0,1.434-7.282,49.6,49.6,0,0,0,5.539-4.792c.194.246.442.49.623.736,2.771,3.76,3.685,7.087,2.51,9.122Z" transform="translate(1008.221 -2377.717)" fill="#040505"/>
        <circle id="Ellipse_4" data-name="Ellipse 4" cx="4.943" cy="4.943" r="4.943" transform="translate(20.256 23.176)" fill="#040505"/>
      </g>
    </g>
  </g>
</svg>
