<?xml version="1.0" standalone="no"?>
<!DOCTYPE svg PUBLIC "-//W3C//DTD SVG 1.1//EN" "http://www.w3.org/Graphics/SVG/1.1/DTD/svg11.dtd" >
<svg xmlns="http://www.w3.org/2000/svg" xmlns:xlink="http://www.w3.org/1999/xlink" version="1.1">
<metadata>
Created by FontForge 20170731 at Sat Sep 11 04:26:29 2021
 By Aleksey,,,
Copyright (c) 2018 by Bastarda Type Foundry. All rights reserved.
</metadata>
<defs>
<font id="SalsaBT-Regular" horiz-adv-x="0" >
  <font-face 
    font-family="Salsa BT"
    font-weight="400"
    font-stretch="normal"
    units-per-em="2048"
    panose-1="0 0 5 0 0 0 0 0 0 0"
    ascent="1638"
    descent="-410"
    cap-height="1638"
    bbox="-926 -469 1964 2134"
    underline-thickness="102"
    underline-position="-307"
    unicode-range="U+0020-2265"
  />
<missing-glyph horiz-adv-x="1024" 
d="M190 1638h650v-2048h-650v2048zM682 1434v67h-338v-67h133v-76h-135v-68h340v68h-135v76h135zM547 1094v143h-205v-213h340v70h-135zM410 1167h67v-73h-67v73zM682 901v68h-340v-68h135v-76h-135v-67h205v143h135zM682 641v205h-68v-135h-272v-70h340zM682 365v231h-205
v-115h70v47h67v-96h-204v164h-68v-231h340zM682 10v232h-340v-232h340zM410 174h204v-96h-204v96zM682 -104v67h-340v-67h143l-143 -97v-67h340v67h-209l143 97h66z" />
    <glyph glyph-name=".notdef" horiz-adv-x="1024" 
d="M190 1638h650v-2048h-650v2048zM682 1434v67h-338v-67h133v-76h-135v-68h340v68h-135v76h135zM547 1094v143h-205v-213h340v70h-135zM410 1167h67v-73h-67v73zM682 901v68h-340v-68h135v-76h-135v-67h205v143h135zM682 641v205h-68v-135h-272v-70h340zM682 365v231h-205
v-115h70v47h67v-96h-204v164h-68v-231h340zM682 10v232h-340v-232h340zM410 174h204v-96h-204v96zM682 -104v67h-340v-67h143l-143 -97v-67h340v67h-209l143 97h66z" />
    <glyph glyph-name=".null" 
 />
    <glyph glyph-name="nonmarkingreturn" horiz-adv-x="682" 
 />
    <glyph glyph-name="space" unicode=" " horiz-adv-x="327" 
 />
    <glyph glyph-name="exclam" unicode="!" horiz-adv-x="352" 
d="M102 389h148v1249h-148v-1249zM102 -45v295h148v-295h-148z" />
    <glyph glyph-name="quotedbl" unicode="&#x22;" horiz-adv-x="700" 
d="M102 1245v438h148v-438h-148zM451 1245v438h147v-438h-147z" />
    <glyph glyph-name="numbersign" unicode="#" horiz-adv-x="1595" 
d="M1618 1434l-45 -142h-219l-299 -923h217l-45 -142h-219l-74 -227h-148l74 227h-467l-74 -227h-147l76 227h-228l46 142h229l305 923h-233l43 142h237l68 204h137l-66 -204h467l66 204h147l-65 -204h217zM440 369h467l299 923h-467z" />
    <glyph glyph-name="dollar" unicode="$" horiz-adv-x="823" 
d="M762 528q0 -203 -66.5 -314.5t-189.5 -129.5v-201h-164v197h-281v647h277q20 0 33.5 12t13.5 31t-11.5 28.5t-43.5 18.5q-41 14 -62 24.5t-41 30.5q-77 77 -77 269q0 151 60 233.5t173 91.5v211h164v-209h149v-424h-166q-30 0 -46.5 -15t-16.5 -42q0 -28 22 -42t84 -34
q55 -17 93.5 -53t58.5 -88t28.5 -110t8.5 -132z" />
    <glyph glyph-name="percent" unicode="%" horiz-adv-x="1810" 
d="M72 1397q0 81 51 135q112 115 383 115q119 0 233 -31q97 -27 150 -85.5t53 -133.5q0 -79 -51 -133q-111 -117 -385 -117q-124 0 -232 31q-97 29 -149.5 87t-52.5 132zM559 0l543 1638h147l-542 -1638h-148zM446 1397q0 -39 60 -39q61 0 61 39q0 41 -61 41q-60 0 -60 -41z
M868 250q0 80 52 135q112 115 383 115q119 0 233 -31q97 -27 150 -85.5t53 -133.5q0 -79 -51 -133q-111 -117 -385 -117q-123 0 -232 31q-97 29 -150 87t-53 132zM1243 250q0 -39 60 -39q61 0 61 39q0 41 -61 41q-60 0 -60 -41z" />
    <glyph glyph-name="ampersand" unicode="&#x26;" horiz-adv-x="1275" 
d="M1204 999v-331h-88q9 -35 13.5 -85t-0.5 -118.5t-22 -136.5t-56.5 -136t-96.5 -119.5t-151 -83.5t-213 -32q-129 0 -235 42t-173.5 112.5t-104 161.5t-36.5 192q0 217 149 397q-77 148 -77 303q0 200 123.5 336.5t322.5 136.5h305v-526h-348q-24 0 -40.5 -14t-16.5 -41
q0 -29 18.5 -43.5t46.5 -14.5h680zM698 631v57h-143q-41 0 -66.5 -24.5t-25.5 -59.5q0 -57 58.5 -78.5t117.5 8t59 97.5z" />
    <glyph glyph-name="quotesingle" unicode="'" horiz-adv-x="352" 
d="M102 1241v438h148v-438h-148z" />
    <glyph glyph-name="parenleft" unicode="(" horiz-adv-x="540" 
d="M469 1638l-61 -686q-59 2 -96.5 -32t-37.5 -101q0 -61 49.5 -91.5t84.5 -20.5l61 -707q-86 0 -155 46t-113.5 123.5t-74 185.5t-42 226.5t-12.5 252.5q0 111 9 209t27.5 189.5t50 164t74.5 127t103 84.5t133 30z" />
    <glyph glyph-name="parenright" unicode=")" horiz-adv-x="524" 
d="M133 952l-61 686q73 0 133 -30t103 -84.5t74.5 -127t50 -164t27.5 -189.5t9 -209q0 -134 -12.5 -252.5t-42 -226.5t-74 -185.5t-113.5 -123.5t-155 -46l61 707q35 -10 84 20.5t49 91.5q0 67 -37 101t-96 32z" />
    <glyph glyph-name="asterisk" unicode="*" horiz-adv-x="864" 
d="M596 1309l268 6v-148l-268 7l195 -187l-105 -104l-186 194l6 -270h-148l7 270l-187 -194l-104 104l194 187l-268 -7v148l268 -6l-194 186l104 104l187 -194l-7 270h148l-6 -270l186 194l105 -104z" />
    <glyph glyph-name="plus" unicode="+" horiz-adv-x="829" 
d="M487 702h271v-147h-271v-270h-147v270h-268v147h268v269h147v-269z" />
    <glyph glyph-name="comma" unicode="," horiz-adv-x="352" 
d="M102 -213v438h148v-438h-148z" />
    <glyph glyph-name="period" unicode="." horiz-adv-x="352" 
d="M102 -49v295h148v-295h-148z" />
    <glyph glyph-name="slash" unicode="/" horiz-adv-x="966" 
d="M174 0l543 1638h147l-542 -1638h-148z" />
    <glyph glyph-name="zero" unicode="0" horiz-adv-x="1069" 
d="M535 -37q-148 0 -259.5 103.5t-173.5 295.5q-61 192 -61 457q0 262 61 455.5t174 296.5q111 102 259 102t259.5 -102t172.5 -295q61 -192 61 -457q0 -261 -61 -454t-172 -297q-114 -105 -260 -105zM535 696q45 0 63 31t18 92t-18 91t-63 30t-63.5 -30.5t-18.5 -90.5
q0 -61 18.5 -92t63.5 -31z" />
    <glyph glyph-name="one" unicode="1" horiz-adv-x="735" 
d="M203 0h461v1638h-592v-499h131v-1139z" />
    <glyph glyph-name="two" unicode="2" horiz-adv-x="970" 
d="M150 1139v499h329q147 0 231.5 -100t84.5 -268q0 -105 -34 -187t-87 -133q-48 -48 -109 -94l-35 -27q-14 -11 -14 -20q0 -23 15.5 -37t39.5 -14h328v-758h-827v434q0 249 223 453q125 113 125 184q0 30 -20 49t-54 19h-196z" />
    <glyph glyph-name="three" unicode="3" horiz-adv-x="862" 
d="M319 762h-247v-764h262q120 0 231.5 55.5t182.5 165.5q73 113 73 287q0 207 -125 356q74 132 74 318q0 156 -60 261.5t-163 151.5q-99 45 -213 45h-221l2 -499h204q42 0 67.5 -20.5t25.5 -51.5q0 -30 -25.5 -50t-67.5 -20h-204v-123h204q31 0 49.5 -16.5t18.5 -40.5
t-18.5 -39.5t-49.5 -15.5z" />
    <glyph glyph-name="four" unicode="4" horiz-adv-x="1165" 
d="M573 1638h521v-1636h-461v332h-561v432zM436 780q51 0 87 36t36 87q0 50 -36 85.5t-87 35.5t-87 -35.5t-36 -85.5q0 -51 36 -87t87 -36z" />
    <glyph glyph-name="five" unicode="5" horiz-adv-x="925" 
d="M322 766h-250v-768h325q120 0 231.5 55.5t182.5 165.5q74 115 74 287q0 132 -30 235.5t-93.5 182t-170.5 121.5t-253 45q-12 0 -19.5 6.5t-7.5 17.5t7.5 18t19.5 7h483v499h-692v-700h193q106 0 106 -86t-106 -86z" />
    <glyph glyph-name="six" unicode="6" horiz-adv-x="1150" 
d="M1110 586q0 -162 -65.5 -295.5t-186.5 -210.5q-127 -80 -291 -80h-495v563q0 276 84.5 516t261.5 396q187 163 481 163h150l-5 -499h-366q119 -39 163 -62q90 -50 177 -164q92 -121 92 -327zM514 889q0 -50 36 -85.5t87 -35.5t87 35.5t36 85.5q0 51 -36 87t-87 36
t-87 -36t-36 -87z" />
    <glyph glyph-name="seven" unicode="7" horiz-adv-x="903" 
d="M10 1141l8 497l891 -2l-420 -1636l-419 6l288 1133z" />
    <glyph glyph-name="eight" unicode="8" horiz-adv-x="1128" 
d="M938 827q127 -165 127 -383q0 -227 -133 -356t-354 -129q-131 0 -239.5 50.5t-176.5 154.5q-72 110 -72 280q0 218 127 383q-35 67 -55.5 160t-20.5 182q0 163 58 279.5t161 175.5q98 55 218 55q122 0 219.5 -57t156.5 -170q60 -117 60 -283q0 -89 -20.5 -182t-55.5 -160
zM584 819q51 0 87 36t36 87q0 50 -36 85.5t-87 35.5t-87 -35.5t-36 -85.5q0 -51 36 -87t87 -36zM584 492q51 0 87 35.5t36 86.5q0 50 -36 85.5t-87 35.5t-87 -35.5t-36 -85.5q0 -51 36 -86.5t87 -35.5z" />
    <glyph glyph-name="nine" unicode="9" horiz-adv-x="1013" 
d="M750 1636h192v-1636l-870 -2l4 768h366q-123 30 -197.5 139.5t-74.5 251.5q0 128 65 237.5t191 174.5q131 67 324 67zM606 1016q0 50 -36 85.5t-87 35.5t-87 -35.5t-36 -85.5q0 -51 36 -87t87 -36t87 36t36 87z" />
    <glyph glyph-name="colon" unicode=":" horiz-adv-x="450" 
d="M102 774v295h148v-295h-148zM250 -49h-148v295h148v-295z" />
    <glyph glyph-name="semicolon" unicode=";" horiz-adv-x="352" 
d="M102 774v295h148v-295h-148zM102 -213v438h148v-438h-148z" />
    <glyph glyph-name="less" unicode="&#x3c;" horiz-adv-x="772" 
d="M18 670v340h727v-205h-595l595 -348v-205z" />
    <glyph glyph-name="equal" unicode="=" horiz-adv-x="993" 
d="M154 758v147h686v-147h-686zM154 475v148h686v-148h-686z" />
    <glyph glyph-name="greater" unicode="&#x3e;" horiz-adv-x="772" 
d="M18 1010h727v-340l-727 -418v205l596 348h-596v205z" />
    <glyph glyph-name="question" unicode="?" horiz-adv-x="763" 
d="M72 389v377h198q51 0 87 36t36 87q0 50 -36 85t-87 34h-198v630h112q254 0 396.5 -135t142.5 -381q0 -240 -137.5 -383t-366.5 -170v-180h-147zM72 -49v295h147v-295h-147z" />
    <glyph glyph-name="at" unicode="@" horiz-adv-x="1554" 
d="M41 823q0 130 29.5 253t93.5 235.5t156.5 196.5t228 134t297.5 50q89 0 169 -13.5t168.5 -54t151.5 -105.5t104.5 -178t41.5 -262v-682h-293l-144 248q-37 -120 -112 -184t-170 -64q-48 0 -94 15.5t-88.5 49.5t-75 82.5t-51.5 119.5t-19 155q0 114 34.5 209t93.5 157
t136.5 96t165.5 34q143 0 233.5 -77t90.5 -159q0 59 -15.5 107t-38.5 78.5t-57 53.5t-64 34.5t-66 18t-57.5 8t-43.5 1.5q-75 0 -144.5 -18t-134.5 -60.5t-112.5 -105.5t-76 -159.5t-28.5 -215.5q0 -98 21 -177.5t53 -130t76 -88t83 -56.5t81.5 -30t64 -13t37.5 -2h717v-312
h-609q-149 0 -273.5 30t-214.5 84.5t-157.5 128.5t-108 166t-60 191.5t-19.5 210.5zM938 770q46 0 80.5 32t34.5 77t-34 75.5t-79 30.5q-46 0 -77.5 -30.5t-31.5 -75.5q0 -46 31.5 -77.5t75.5 -31.5z" />
    <glyph glyph-name="A" unicode="A" horiz-adv-x="1148" 
d="M1077 0h-358v434l-250 -434h-397v764l506 874h499v-1638zM735 780q51 0 87 36t36 87q0 50 -36 85.5t-87 35.5t-87 -35.5t-36 -85.5q0 -51 36 -87t87 -36z" />
    <glyph glyph-name="A" unicode="a" horiz-adv-x="1148" 
d="M1077 0h-358v434l-250 -434h-397v764l506 874h499v-1638zM735 780q51 0 87 36t36 87q0 50 -36 85.5t-87 35.5t-87 -35.5t-36 -85.5q0 -51 36 -87t87 -36z" />
    <glyph glyph-name="B" unicode="B" horiz-adv-x="1128" 
d="M963 827q61 -71 92.5 -152t31.5 -192q0 -164 -71.5 -275t-188.5 -161q-113 -49 -227 -49h-528v1640h528q112 0 212 -62t161 -179q63 -117 63 -289q0 -162 -73 -281zM584 819q51 0 87 36t36 87q0 49 -35.5 81t-87.5 32t-87.5 -32t-35.5 -81q0 -51 36 -87t87 -36zM584 492
q51 0 87 35.5t36 86.5q0 50 -36 85.5t-87 35.5t-87 -35.5t-36 -85.5q0 -51 36 -86.5t87 -35.5z" />
    <glyph glyph-name="B" unicode="b" horiz-adv-x="1128" 
d="M963 827q61 -71 92.5 -152t31.5 -192q0 -164 -71.5 -275t-188.5 -161q-113 -49 -227 -49h-528v1640h528q112 0 212 -62t161 -179q63 -117 63 -289q0 -162 -73 -281zM584 819q51 0 87 36t36 87q0 49 -35.5 81t-87.5 32t-87.5 -32t-35.5 -81q0 -51 36 -87t87 -36zM584 492
q51 0 87 35.5t36 86.5q0 50 -36 85.5t-87 35.5t-87 -35.5t-36 -85.5q0 -51 36 -86.5t87 -35.5z" />
    <glyph glyph-name="C" unicode="C" horiz-adv-x="1185" 
d="M1145 776h-438q-14 -36 -43.5 -58t-65.5 -22q-51 0 -87 36t-36 87q0 50 36 85.5t87 35.5q70 0 109 -66h436q-12 251 -83.5 432.5t-191.5 274.5q-121 92 -272 92q-159 0 -285 -103.5t-198 -295.5q-72 -198 -72 -455q0 -258 71 -452.5t199 -298.5q126 -105 285 -105
q157 0 277 94t190 277q70 180 82 442z" />
    <glyph glyph-name="C" unicode="c" horiz-adv-x="1185" 
d="M1145 776h-438q-14 -36 -43.5 -58t-65.5 -22q-51 0 -87 36t-36 87q0 50 36 85.5t87 35.5q70 0 109 -66h436q-12 251 -83.5 432.5t-191.5 274.5q-121 92 -272 92q-159 0 -285 -103.5t-198 -295.5q-72 -198 -72 -455q0 -258 71 -452.5t199 -298.5q126 -105 285 -105
q157 0 277 94t190 277q70 180 82 442z" />
    <glyph glyph-name="D" unicode="D" horiz-adv-x="1208" 
d="M616 0h-544v1638h544q148 0 273 -91t201 -269q77 -183 77 -447q0 -275 -74.5 -464t-203.5 -279q-125 -88 -273 -88zM627 696q51 0 87 36t36 87q0 50 -36 85.5t-87 35.5t-87 -35.5t-36 -85.5q0 -51 36 -87t87 -36z" />
    <glyph glyph-name="D" unicode="d" horiz-adv-x="1208" 
d="M616 0h-544v1638h544q148 0 273 -91t201 -269q77 -183 77 -447q0 -275 -74.5 -464t-203.5 -279q-125 -88 -273 -88zM627 696q51 0 87 36t36 87q0 50 -36 85.5t-87 35.5t-87 -35.5t-36 -85.5q0 -51 36 -87t87 -36z" />
    <glyph glyph-name="E" unicode="E" horiz-adv-x="880" 
d="M788 1638h-716v-1638h737v764h-303v117h262v143h-262v113h282v501z" />
    <glyph glyph-name="E" unicode="e" horiz-adv-x="880" 
d="M788 1638h-716v-1638h737v764h-303v117h262v143h-262v113h282v501z" />
    <glyph glyph-name="F" unicode="F" horiz-adv-x="903" 
d="M72 0h460v518h199v512h-199v98h322v510h-782v-1638z" />
    <glyph glyph-name="F" unicode="f" horiz-adv-x="903" 
d="M72 0h460v518h199v512h-199v98h322v510h-782v-1638z" />
    <glyph glyph-name="G" unicode="G" horiz-adv-x="1173" 
d="M1145 0v805h-373v-137q-65 -33 -131 -33q-84 0 -137 55t-53 148q0 65 27.5 107t76.5 42q36 0 60 -23t24 -59h504q-7 126 -32 239t-70.5 210t-108 168t-148.5 111t-188 40q-110 0 -202 -47t-156.5 -127.5t-109.5 -189.5t-66 -233t-21 -257q0 -163 24.5 -312t72.5 -272
t128.5 -196.5t182.5 -73.5q254 0 337 467v-434z" />
    <glyph glyph-name="G" unicode="g" horiz-adv-x="1173" 
d="M1145 0v805h-373v-137q-65 -33 -131 -33q-84 0 -137 55t-53 148q0 65 27.5 107t76.5 42q36 0 60 -23t24 -59h504q-7 126 -32 239t-70.5 210t-108 168t-148.5 111t-188 40q-110 0 -202 -47t-156.5 -127.5t-109.5 -189.5t-66 -233t-21 -257q0 -163 24.5 -312t72.5 -272
t128.5 -196.5t182.5 -73.5q254 0 337 467v-434z" />
    <glyph glyph-name="H" unicode="H" horiz-adv-x="1300" 
d="M768 1038v600h461v-1638h-461v526h-236v-526h-460v1638h460v-600h236z" />
    <glyph glyph-name="H" unicode="h" horiz-adv-x="1300" 
d="M768 1038v600h461v-1638h-461v526h-236v-526h-460v1638h460v-600h236z" />
    <glyph glyph-name="I" unicode="I" horiz-adv-x="604" 
d="M72 2v1636h460v-1636h-460z" />
    <glyph glyph-name="I" unicode="i" horiz-adv-x="604" 
d="M72 2v1636h460v-1636h-460z" />
    <glyph glyph-name="J" unicode="J" horiz-adv-x="880" 
d="M272 -37q159 0 280 88t189 262q68 177 68 437v888h-399v-720q0 -111 -46.5 -174.5t-130.5 -63.5q-85 0 -161 33v-713q101 -37 200 -37z" />
    <glyph glyph-name="J" unicode="j" horiz-adv-x="880" 
d="M272 -37q159 0 280 88t189 262q68 177 68 437v888h-399v-720q0 -111 -46.5 -174.5t-130.5 -63.5q-85 0 -161 33v-713q101 -37 200 -37z" />
    <glyph glyph-name="K" unicode="K" horiz-adv-x="1212" 
d="M731 1642l440 -2l-505 -874h475v-766h-312l-297 514v-512h-460v1636h460v-344z" />
    <glyph glyph-name="K" unicode="k" horiz-adv-x="1212" 
d="M731 1642l440 -2l-505 -874h475v-766h-312l-297 514v-512h-460v1636h460v-344z" />
    <glyph glyph-name="L" unicode="L" horiz-adv-x="858" 
d="M532 1638h-460v-1638h714v764h-254v874z" />
    <glyph glyph-name="L" unicode="l" horiz-adv-x="858" 
d="M532 1638h-460v-1638h714v764h-254v874z" />
    <glyph glyph-name="M" unicode="M" horiz-adv-x="1525" 
d="M829 1202l289 436h336v-1638h-461v434l-280 -434l-283 434v-434h-358v1638h426z" />
    <glyph glyph-name="M" unicode="m" horiz-adv-x="1525" 
d="M829 1202l289 436h336v-1638h-461v434l-280 -434l-283 434v-434h-358v1638h426z" />
    <glyph glyph-name="N" unicode="N" horiz-adv-x="1320" 
d="M891 1202v436h358v-1638h-569l-250 434v-434h-358v1638h569z" />
    <glyph glyph-name="N" unicode="n" horiz-adv-x="1320" 
d="M891 1202v436h358v-1638h-569l-250 434v-434h-358v1638h569z" />
    <glyph glyph-name="O" unicode="O" horiz-adv-x="1191" 
d="M596 -37q-136 0 -244.5 72t-175 193.5t-101 272.5t-34.5 318q0 170 35.5 321.5t102.5 271.5t174.5 190.5t242.5 70.5q110 0 202 -47t156.5 -127.5t109.5 -189.5t66 -233t21 -257q0 -170 -35.5 -322t-102.5 -272t-174.5 -191t-242.5 -71zM596 696q51 0 87 36t36 87
q0 50 -36 85.5t-87 35.5t-87 -35.5t-36 -85.5q0 -51 36 -87t87 -36z" />
    <glyph glyph-name="O" unicode="o" horiz-adv-x="1191" 
d="M596 -37q-136 0 -244.5 72t-175 193.5t-101 272.5t-34.5 318q0 170 35.5 321.5t102.5 271.5t174.5 190.5t242.5 70.5q110 0 202 -47t156.5 -127.5t109.5 -189.5t66 -233t21 -257q0 -170 -35.5 -322t-102.5 -272t-174.5 -191t-242.5 -71zM596 696q51 0 87 36t36 87
q0 50 -36 85.5t-87 35.5t-87 -35.5t-36 -85.5q0 -51 36 -87t87 -36z" />
    <glyph glyph-name="P" unicode="P" horiz-adv-x="1077" 
d="M72 0v1638h426q253 0 395.5 -135t142.5 -381q0 -240 -137.5 -383t-366.5 -170v-571zM584 766q51 0 87 36t36 87q0 50 -36 85.5t-87 35.5t-87 -35.5t-36 -85.5q0 -51 36 -87t87 -36z" />
    <glyph glyph-name="P" unicode="p" horiz-adv-x="1077" 
d="M72 0v1638h426q253 0 395.5 -135t142.5 -381q0 -240 -137.5 -383t-366.5 -170v-571zM584 766q51 0 87 36t36 87q0 50 -36 85.5t-87 35.5t-87 -35.5t-36 -85.5q0 -51 36 -87t87 -36z" />
    <glyph glyph-name="Q" unicode="Q" horiz-adv-x="1261" 
d="M866 766h334v-766h-207l-159 274q-49 -149 -140.5 -230t-208.5 -81q-132 0 -234 109t-157 299q-53 186 -53 403q0 244 72 448t204 326q133 121 312 121q134 0 241 -69.5t168 -192.5q60 -123 60 -264q0 -279 -232 -377zM655 766q51 0 87 36t36 87q0 50 -36 85.5t-87 35.5
t-87 -35.5t-36 -85.5q0 -51 36 -87t87 -36z" />
    <glyph glyph-name="Q" unicode="q" horiz-adv-x="1261" 
d="M866 766h334v-766h-207l-159 274q-49 -149 -140.5 -230t-208.5 -81q-132 0 -234 109t-157 299q-53 186 -53 403q0 244 72 448t204 326q133 121 312 121q134 0 241 -69.5t168 -192.5q60 -123 60 -264q0 -279 -232 -377zM655 766q51 0 87 36t36 87q0 50 -36 85.5t-87 35.5
t-87 -35.5t-36 -85.5q0 -51 36 -87t87 -36z" />
    <glyph glyph-name="R" unicode="R" horiz-adv-x="1148" 
d="M815 764h262v-764h-327l-218 377v-377h-460v1638h528q131 0 231 -61t154 -166q51 -102 51 -223q0 -124 -57 -235.5t-164 -188.5zM481 889q0 -51 36 -87t87 -36t87 36t36 87q0 50 -36 85.5t-87 35.5t-87 -35.5t-36 -85.5z" />
    <glyph glyph-name="R" unicode="r" horiz-adv-x="1148" 
d="M815 764h262v-764h-327l-218 377v-377h-460v1638h528q131 0 231 -61t154 -166q51 -102 51 -223q0 -124 -57 -235.5t-164 -188.5zM481 889q0 -51 36 -87t87 -36t87 36t36 87q0 50 -36 85.5t-87 35.5t-87 -35.5t-36 -85.5z" />
    <glyph glyph-name="S" unicode="S" horiz-adv-x="970" 
d="M492 1638h329v-499h-196q-34 0 -54 -19t-20 -49q0 -34 26 -50.5t99 -39.5q65 -20 109.5 -62t69 -104t34.5 -130.5t10 -156.5q0 -262 -93.5 -395t-266.5 -133h-467v764h327q24 0 40 14t16 37q0 22 -13.5 32t-52.5 23q-45 15 -70.5 28t-50.5 38q-92 92 -92 315
q0 191 81.5 289t234.5 98z" />
    <glyph glyph-name="S" unicode="s" horiz-adv-x="970" 
d="M492 1638h329v-499h-196q-34 0 -54 -19t-20 -49q0 -34 26 -50.5t99 -39.5q65 -20 109.5 -62t69 -104t34.5 -130.5t10 -156.5q0 -262 -93.5 -395t-266.5 -133h-467v764h327q24 0 40 14t16 37q0 22 -13.5 32t-52.5 23q-45 15 -70.5 28t-50.5 38q-92 92 -92 315
q0 191 81.5 289t234.5 98z" />
    <glyph glyph-name="T" unicode="T" horiz-adv-x="927" 
d="M72 1638h784v-512h-162v-1126h-461v1126h-161v512z" />
    <glyph glyph-name="T" unicode="t" horiz-adv-x="927" 
d="M72 1638h784v-512h-162v-1126h-461v1126h-161v512z" />
    <glyph glyph-name="U" unicode="U" horiz-adv-x="1212" 
d="M1141 795v843h-400v-751q0 -96 -38.5 -151.5t-94.5 -55.5t-94.5 55.5t-38.5 151.5v751h-399l-4 -843q0 -256 69.5 -445t194.5 -289q119 -98 270 -98t273 99.5t192 285.5t70 447z" />
    <glyph glyph-name="U" unicode="u" horiz-adv-x="1212" 
d="M1141 795v843h-400v-751q0 -96 -38.5 -151.5t-94.5 -55.5t-94.5 55.5t-38.5 151.5v751h-399l-4 -843q0 -256 69.5 -445t194.5 -289q119 -98 270 -98t273 99.5t192 285.5t70 447z" />
    <glyph glyph-name="V" unicode="V" horiz-adv-x="1148" 
d="M72 1638h358v-434l250 434h397v-860l-448 -778h-557v1638z" />
    <glyph glyph-name="V" unicode="v" horiz-adv-x="1148" 
d="M72 1638h358v-434l250 434h397v-860l-448 -778h-557v1638z" />
    <glyph glyph-name="W" unicode="W" horiz-adv-x="1714" 
d="M995 1204l250 434h397v-874l-448 -764h-516v434l-250 -434h-356v1638h358v-434l250 434h315v-434z" />
    <glyph glyph-name="W" unicode="w" horiz-adv-x="1714" 
d="M995 1204l250 434h397v-874l-448 -764h-516v434l-250 -434h-356v1638h358v-434l250 434h315v-434z" />
    <glyph glyph-name="X" unicode="X" horiz-adv-x="1363" 
d="M831 766l3 -4l487 4v-766h-352l-287 502l-287 -502h-352v766l485 -4l2 4l-510 872h441l221 -389l221 389h440z" />
    <glyph glyph-name="X" unicode="x" horiz-adv-x="1363" 
d="M831 766l3 -4l487 4v-766h-352l-287 502l-287 -502h-352v766l485 -4l2 4l-510 872h441l221 -389l221 389h440z" />
    <glyph glyph-name="Y" unicode="Y" horiz-adv-x="1167" 
d="M1110 1638v-364l-578 -1002v-272h-460v1638h460v-510l291 510h287z" />
    <glyph glyph-name="Y" unicode="y" horiz-adv-x="1167" 
d="M1110 1638v-364l-578 -1002v-272h-460v1638h460v-510l291 510h287z" />
    <glyph glyph-name="Z" unicode="Z" horiz-adv-x="921" 
d="M582 764l268 2v-764l-778 -2v887l379 600h-349v143l738 2v-471z" />
    <glyph glyph-name="Z" unicode="z" horiz-adv-x="921" 
d="M582 764l268 2v-764l-778 -2v887l379 600h-349v143l738 2v-471z" />
    <glyph glyph-name="bracketleft" unicode="[" horiz-adv-x="600" 
d="M174 0l-4 1636l358 2v-561h-211v-516h211v-561h-354z" />
    <glyph glyph-name="backslash" unicode="\" horiz-adv-x="966" 
d="M102 1638h148l543 -1638h-148z" />
    <glyph glyph-name="bracketright" unicode="]" horiz-adv-x="540" 
d="M92 1638l359 -2l-5 -1636h-354v561h211v516h-211v561z" />
    <glyph glyph-name="underscore" unicode="_" horiz-adv-x="1380" 
d="M1319 -68h-1258v148h1258v-148z" />
    <glyph glyph-name="grave" unicode="`" horiz-adv-x="495" 
d="M350 1624l-309 309l102 105l312 -309z" />
    <glyph glyph-name="braceleft" unicode="{" horiz-adv-x="600" 
d="M63 768v102q72 36 88.5 62.5t16.5 99.5l-2 219q0 9 -1 42.5t-1 57.5t2.5 62.5t7.5 66t17 59.5t28.5 52t42.5 33.5t60 13.5h206v-561h-135q-35 0 -54.5 -18.5t-19.5 -48.5v-56q0 -47 -12.5 -78.5t-26.5 -42t-26 -10.5q20 0 42.5 -35.5t22.5 -87.5v-71q0 -30 20 -49t54 -19
h135v-561h-206q-34 0 -60 13.5t-42.5 33.5t-28.5 52t-17 59.5t-7.5 66t-2.5 62.5t1 57.5t1 42.5l2 219q0 68 -17.5 97.5t-87.5 64.5z" />
    <glyph glyph-name="braceright" unicode="}" horiz-adv-x="630" 
d="M537 870v-102q-70 -35 -87.5 -64.5t-17.5 -97.5l2 -219q0 -9 1 -42.5t1 -57.5t-2 -62.5t-7.5 -66.5t-17 -59.5t-28 -51.5t-42.5 -33.5t-60 -13.5h-207v561h135q34 0 54 19t20 49v71q0 52 22.5 87.5t42.5 35.5q-12 0 -26 10.5t-26.5 42t-12.5 78.5v56q0 30 -19.5 48.5
t-54.5 18.5h-135v561h207q34 0 60 -13.5t42.5 -33.5t28 -51.5t17 -59.5t7.5 -66.5t2 -62.5t-1 -57.5t-1 -42.5l-2 -219q0 -73 16.5 -99.5t88.5 -62.5z" />
    <glyph glyph-name="asciitilde" unicode="~" horiz-adv-x="1228" 
d="M418 623h-133q5 98 59 159.5t139 61.5q50 0 85.5 -19t82.5 -65q33 -32 51.5 -43.5t40.5 -11.5q33 0 52.5 25t19.5 77h133q0 -92 -58 -157.5t-138 -65.5q-45 0 -79.5 19t-82.5 63q-32 32 -53.5 45.5t-44.5 13.5q-32 0 -53 -26.5t-21 -75.5z" />
    <glyph glyph-name="exclamdown" unicode="&#xa1;" horiz-adv-x="352" 
d="M250 1389h-148v294h148v-294zM250 0v1249h-148v-1249h148z" />
    <glyph glyph-name="currency" unicode="&#xa4;" horiz-adv-x="1460" 
d="M1311 621q-71 -80 -201 -127l221 -281h-143l-211 246q-111 -21 -244 -21h-2h-4q-133 0 -244 21l-211 -246h-143l221 281q-128 46 -200 127q-78 87 -78 202q0 100 64 181.5t183 130.5l15 6l-213 280h145l199 -243q94 18 213 24h49h4h2h49q113 -6 213 -24l197 243h145
l-213 -280l17 -6q120 -49 184 -130.5t64 -181.5q0 -115 -78 -202zM731 758q92 0 92 63v2v2q0 58 -92 58q-91 0 -94 -58v-2v-2q1 -35 24.5 -49t69.5 -14z" />
    <glyph glyph-name="dieresis" unicode="&#xa8;" horiz-adv-x="983" 
d="M225 1718q51 0 87 36t36 87q0 50 -36 85.5t-87 35.5t-87 -35.5t-36 -85.5q0 -51 36 -87t87 -36zM758 1718q51 0 87 36t36 87q0 50 -36 85.5t-87 35.5t-87 -35.5t-36 -85.5q0 -51 36 -87t87 -36z" />
    <glyph glyph-name="logicalnot" unicode="&#xac;" horiz-adv-x="829" 
d="M72 698v148h686v-365h-148v217h-538z" />
    <glyph glyph-name="macron" unicode="&#xaf;" horiz-adv-x="520" 
d="M479 1835h-438v147h438v-147z" />
    <glyph glyph-name="plusminus" unicode="&#xb1;" horiz-adv-x="829" 
d="M487 1153v-268h271v-148h-271v-270h-147v270h-268v148h268v268h147zM758 248h-686v147h686v-147z" />
    <glyph glyph-name="acute" unicode="&#xb4;" horiz-adv-x="495" 
d="M352 2038l103 -105l-310 -309l-104 105z" />
    <glyph glyph-name="cedilla" unicode="&#xb8;" horiz-adv-x="616" 
d="M309 -57h-71v82h-68v-203h139q35 0 59.5 -25.5t24.5 -58.5q0 -35 -24.5 -60.5t-59.5 -25.5t-60.5 25.5t-25.5 60.5h-121q0 -86 60.5 -146.5t146.5 -60.5q85 0 145 60.5t60 146.5q0 85 -60 145t-145 60z" />
    <glyph glyph-name="questiondown" unicode="&#xbf;" horiz-adv-x="763" 
d="M692 1677v-295h-147v295h147zM692 1239v-377h-198q-51 0 -87 -36t-36 -87q0 -50 36 -84.5t87 -33.5h198v-631h-112q-254 0 -396.5 135t-142.5 381q0 240 137.5 383t366.5 170v180h147z" />
    <glyph glyph-name="Agrave" unicode="&#xc0;" horiz-adv-x="1148" 
d="M623 1917h438v-148h-438v148zM1077 0h-358v434l-250 -434h-397v764l506 874h499v-1638zM735 780q51 0 87 36t36 87q0 50 -36 85.5t-87 35.5t-87 -35.5t-36 -85.5q0 -51 36 -87t87 -36z" />
    <glyph glyph-name="Agrave" unicode="&#xe0;" horiz-adv-x="1148" 
d="M623 1917h438v-148h-438v148zM1077 0h-358v434l-250 -434h-397v764l506 874h499v-1638zM735 780q51 0 87 36t36 87q0 50 -36 85.5t-87 35.5t-87 -35.5t-36 -85.5q0 -51 36 -87t87 -36z" />
    <glyph glyph-name="Aacute" unicode="&#xc1;" horiz-adv-x="1148" 
d="M604 1919h438v-147h-438v147zM1077 0h-358v434l-250 -434h-397v764l506 874h499v-1638zM735 780q51 0 87 36t36 87q0 50 -36 85.5t-87 35.5t-87 -35.5t-36 -85.5q0 -51 36 -87t87 -36z" />
    <glyph glyph-name="Aacute" unicode="&#xe1;" horiz-adv-x="1148" 
d="M604 1919h438v-147h-438v147zM1077 0h-358v434l-250 -434h-397v764l506 874h499v-1638zM735 780q51 0 87 36t36 87q0 50 -36 85.5t-87 35.5t-87 -35.5t-36 -85.5q0 -51 36 -87t87 -36z" />
    <glyph glyph-name="Acircumflex" unicode="&#xc2;" horiz-adv-x="1148" 
d="M551 1855l262 170h37l262 -167l-72 -105l-209 123l-208 -125zM1077 0h-358v434l-250 -434h-397v764l506 874h499v-1638zM735 780q51 0 87 36t36 87q0 50 -36 85.5t-87 35.5t-87 -35.5t-36 -85.5q0 -51 36 -87t87 -36z" />
    <glyph glyph-name="Acircumflex" unicode="&#xe2;" horiz-adv-x="1148" 
d="M551 1855l262 170h37l262 -167l-72 -105l-209 123l-208 -125zM1077 0h-358v434l-250 -434h-397v764l506 874h499v-1638zM735 780q51 0 87 36t36 87q0 50 -36 85.5t-87 35.5t-87 -35.5t-36 -85.5q0 -51 36 -87t87 -36z" />
    <glyph glyph-name="Atilde" unicode="&#xc3;" horiz-adv-x="1148" 
d="M653 1804h-133q5 98 59.5 159.5t139.5 61.5q51 0 86 -19t82 -64q34 -32 52 -44t40 -12q33 0 52.5 25.5t19.5 77.5h133q0 -92 -58.5 -158t-138.5 -66q-45 0 -79.5 19t-82.5 63q-32 32 -53.5 46t-44.5 14q-32 0 -53 -27t-21 -76zM1077 0h-358v434l-250 -434h-397v764
l506 874h499v-1638zM735 780q51 0 87 36t36 87q0 50 -36 85.5t-87 35.5t-87 -35.5t-36 -85.5q0 -51 36 -87t87 -36z" />
    <glyph glyph-name="Atilde" unicode="&#xe3;" horiz-adv-x="1148" 
d="M653 1804h-133q5 98 59.5 159.5t139.5 61.5q51 0 86 -19t82 -64q34 -32 52 -44t40 -12q33 0 52.5 25.5t19.5 77.5h133q0 -92 -58.5 -158t-138.5 -66q-45 0 -79.5 19t-82.5 63q-32 32 -53.5 46t-44.5 14q-32 0 -53 -27t-21 -76zM1077 0h-358v434l-250 -434h-397v764
l506 874h499v-1638zM735 780q51 0 87 36t36 87q0 50 -36 85.5t-87 35.5t-87 -35.5t-36 -85.5q0 -51 36 -87t87 -36z" />
    <glyph glyph-name="Adieresis" unicode="&#xc4;" horiz-adv-x="1148" 
d="M586 1759q51 0 87 36t36 87q0 50 -36 85.5t-87 35.5t-87 -35.5t-36 -85.5q0 -51 36 -87t87 -36zM1118 1759q51 0 87 36t36 87q0 50 -36 85.5t-87 35.5t-87 -35.5t-36 -85.5q0 -51 36 -87t87 -36zM1077 0h-358v434l-250 -434h-397v764l506 874h499v-1638zM735 780
q51 0 87 36t36 87q0 50 -36 85.5t-87 35.5t-87 -35.5t-36 -85.5q0 -51 36 -87t87 -36z" />
    <glyph glyph-name="Adieresis" unicode="&#xe4;" horiz-adv-x="1148" 
d="M586 1759q51 0 87 36t36 87q0 50 -36 85.5t-87 35.5t-87 -35.5t-36 -85.5q0 -51 36 -87t87 -36zM1118 1759q51 0 87 36t36 87q0 50 -36 85.5t-87 35.5t-87 -35.5t-36 -85.5q0 -51 36 -87t87 -36zM1077 0h-358v434l-250 -434h-397v764l506 874h499v-1638zM735 780
q51 0 87 36t36 87q0 50 -36 85.5t-87 35.5t-87 -35.5t-36 -85.5q0 -51 36 -87t87 -36z" />
    <glyph glyph-name="Aring" unicode="&#xc5;" horiz-adv-x="1148" 
d="M852 1722q-86 0 -146.5 60.5t-60.5 146.5q0 85 60.5 145t146.5 60q85 0 145 -60t60 -145q0 -86 -60 -146.5t-145 -60.5zM852 1843q35 0 59.5 25.5t24.5 60.5t-25.5 59.5t-58.5 24.5q-35 0 -60.5 -24.5t-25.5 -59.5t25.5 -60.5t60.5 -25.5zM1077 0h-358v434l-250 -434
h-397v764l506 874h499v-1638zM735 780q51 0 87 36t36 87q0 50 -36 85.5t-87 35.5t-87 -35.5t-36 -85.5q0 -51 36 -87t87 -36z" />
    <glyph glyph-name="Aring" unicode="&#xe5;" horiz-adv-x="1148" 
d="M852 1722q-86 0 -146.5 60.5t-60.5 146.5q0 85 60.5 145t146.5 60q85 0 145 -60t60 -145q0 -86 -60 -146.5t-145 -60.5zM852 1843q35 0 59.5 25.5t24.5 60.5t-25.5 59.5t-58.5 24.5q-35 0 -60.5 -24.5t-25.5 -59.5t25.5 -60.5t60.5 -25.5zM1077 0h-358v434l-250 -434
h-397v764l506 874h499v-1638zM735 780q51 0 87 36t36 87q0 50 -36 85.5t-87 35.5t-87 -35.5t-36 -85.5q0 -51 36 -87t87 -36z" />
    <glyph glyph-name="Ccedilla" unicode="&#xc7;" horiz-adv-x="1185" 
d="M596 -37q-36 0 -74 6v-26h72q85 0 145 -60t60 -145q0 -86 -60 -146.5t-145 -60.5q-86 0 -146.5 60.5t-60.5 146.5h121q0 -35 25.5 -60.5t60.5 -25.5t59.5 25.5t24.5 60.5q0 33 -24.5 58.5t-59.5 25.5h-139v164q-123 41 -216 153t-145 285q-53 177 -53 395q0 257 70.5 452
t199.5 300q126 102 285 102q155 0 273 -92.5t190 -271.5q72 -186 84 -435h-436q-39 66 -109 66q-51 0 -87 -35.5t-36 -85.5q0 -51 36 -87t87 -36q36 0 65.5 22t43.5 58h438q-12 -258 -82 -442t-191 -277q-119 -94 -276 -94z" />
    <glyph glyph-name="Ccedilla" unicode="&#xe7;" horiz-adv-x="1185" 
d="M596 -37q-36 0 -74 6v-26h72q85 0 145 -60t60 -145q0 -86 -60 -146.5t-145 -60.5q-86 0 -146.5 60.5t-60.5 146.5h121q0 -35 25.5 -60.5t60.5 -25.5t59.5 25.5t24.5 60.5q0 33 -24.5 58.5t-59.5 25.5h-139v164q-123 41 -216 153t-145 285q-53 177 -53 395q0 257 70.5 452
t199.5 300q126 102 285 102q155 0 273 -92.5t190 -271.5q72 -186 84 -435h-436q-39 66 -109 66q-51 0 -87 -35.5t-36 -85.5q0 -51 36 -87t87 -36q36 0 65.5 22t43.5 58h438q-12 -258 -82 -442t-191 -277q-119 -94 -276 -94z" />
    <glyph glyph-name="Egrave" unicode="&#xc8;" horiz-adv-x="880" 
d="M211 1917h438v-148h-438v148zM788 1638h-716v-1638h737v764h-303v117h262v143h-262v113h282v501z" />
    <glyph glyph-name="Egrave" unicode="&#xe8;" horiz-adv-x="880" 
d="M211 1917h438v-148h-438v148zM788 1638h-716v-1638h737v764h-303v117h262v143h-262v113h282v501z" />
    <glyph glyph-name="Eacute" unicode="&#xc9;" horiz-adv-x="880" 
d="M221 1919h438v-147h-438v147zM788 1638h-716v-1638h737v764h-303v117h262v143h-262v113h282v501z" />
    <glyph glyph-name="Eacute" unicode="&#xe9;" horiz-adv-x="880" 
d="M221 1919h438v-147h-438v147zM788 1638h-716v-1638h737v764h-303v117h262v143h-262v113h282v501z" />
    <glyph glyph-name="Ecircumflex" unicode="&#xca;" horiz-adv-x="880" 
d="M160 1855l262 170h37l262 -167l-72 -105l-209 123l-209 -125zM788 1638h-716v-1638h737v764h-303v117h262v143h-262v113h282v501z" />
    <glyph glyph-name="Ecircumflex" unicode="&#xea;" horiz-adv-x="880" 
d="M160 1855l262 170h37l262 -167l-72 -105l-209 123l-209 -125zM788 1638h-716v-1638h737v764h-303v117h262v143h-262v113h282v501z" />
    <glyph glyph-name="Edieresis" unicode="&#xcb;" horiz-adv-x="880" 
d="M174 1759q51 0 87 36t36 87q0 50 -36 85.5t-87 35.5t-87 -35.5t-36 -85.5q0 -51 36 -87t87 -36zM707 1759q51 0 86.5 36t35.5 87q0 50 -35.5 85.5t-86.5 35.5t-87 -35.5t-36 -85.5q0 -51 36 -87t87 -36zM788 1638h-716v-1638h737v764h-303v117h262v143h-262v113h282v501z
" />
    <glyph glyph-name="Edieresis" unicode="&#xeb;" horiz-adv-x="880" 
d="M174 1759q51 0 87 36t36 87q0 50 -36 85.5t-87 35.5t-87 -35.5t-36 -85.5q0 -51 36 -87t87 -36zM707 1759q51 0 86.5 36t35.5 87q0 50 -35.5 85.5t-86.5 35.5t-87 -35.5t-36 -85.5q0 -51 36 -87t87 -36zM788 1638h-716v-1638h737v764h-303v117h262v143h-262v113h282v501z
" />
    <glyph glyph-name="Iacute" unicode="&#xcd;" horiz-adv-x="604" 
d="M84 1919h438v-147h-438v147zM72 2v1636h460v-1636h-460z" />
    <glyph glyph-name="Ntilde" unicode="&#xd1;" horiz-adv-x="1320" 
d="M463 1804h-133q5 98 59 159.5t139 61.5q51 0 86 -19t82 -64q34 -32 52 -44t40 -12q33 0 52.5 25.5t19.5 77.5h133q0 -92 -58 -158t-138 -66q-45 0 -79.5 19t-82.5 63q-32 32 -53.5 46t-44.5 14q-32 0 -53 -27t-21 -76zM891 1202v436h358v-1638h-569l-250 434v-434h-358
v1638h569z" />
    <glyph glyph-name="Ntilde" unicode="&#xf1;" horiz-adv-x="1320" 
d="M463 1804h-133q5 98 59 159.5t139 61.5q51 0 86 -19t82 -64q34 -32 52 -44t40 -12q33 0 52.5 25.5t19.5 77.5h133q0 -92 -58 -158t-138 -66q-45 0 -79.5 19t-82.5 63q-32 32 -53.5 46t-44.5 14q-32 0 -53 -27t-21 -76zM891 1202v436h358v-1638h-569l-250 434v-434h-358
v1638h569z" />
    <glyph glyph-name="Ograve" unicode="&#xd2;" horiz-adv-x="1191" 
d="M367 1917h438v-148h-438v148zM596 -37q-136 0 -244.5 72t-175 193.5t-101 272.5t-34.5 318q0 170 35.5 321.5t102.5 271.5t174.5 190.5t242.5 70.5q110 0 202 -47t156.5 -127.5t109.5 -189.5t66 -233t21 -257q0 -170 -35.5 -322t-102.5 -272t-174.5 -191t-242.5 -71z
M596 696q51 0 87 36t36 87q0 50 -36 85.5t-87 35.5t-87 -35.5t-36 -85.5q0 -51 36 -87t87 -36z" />
    <glyph glyph-name="Ograve" unicode="&#xf2;" horiz-adv-x="1191" 
d="M367 1917h438v-148h-438v148zM596 -37q-136 0 -244.5 72t-175 193.5t-101 272.5t-34.5 318q0 170 35.5 321.5t102.5 271.5t174.5 190.5t242.5 70.5q110 0 202 -47t156.5 -127.5t109.5 -189.5t66 -233t21 -257q0 -170 -35.5 -322t-102.5 -272t-174.5 -191t-242.5 -71z
M596 696q51 0 87 36t36 87q0 50 -36 85.5t-87 35.5t-87 -35.5t-36 -85.5q0 -51 36 -87t87 -36z" />
    <glyph glyph-name="Oacute" unicode="&#xd3;" horiz-adv-x="1191" 
d="M377 1919h438v-147h-438v147zM596 -37q-136 0 -244.5 72t-175 193.5t-101 272.5t-34.5 318q0 170 35.5 321.5t102.5 271.5t174.5 190.5t242.5 70.5q110 0 202 -47t156.5 -127.5t109.5 -189.5t66 -233t21 -257q0 -170 -35.5 -322t-102.5 -272t-174.5 -191t-242.5 -71z
M596 696q51 0 87 36t36 87q0 50 -36 85.5t-87 35.5t-87 -35.5t-36 -85.5q0 -51 36 -87t87 -36z" />
    <glyph glyph-name="Oacute" unicode="&#xf3;" horiz-adv-x="1191" 
d="M377 1919h438v-147h-438v147zM596 -37q-136 0 -244.5 72t-175 193.5t-101 272.5t-34.5 318q0 170 35.5 321.5t102.5 271.5t174.5 190.5t242.5 70.5q110 0 202 -47t156.5 -127.5t109.5 -189.5t66 -233t21 -257q0 -170 -35.5 -322t-102.5 -272t-174.5 -191t-242.5 -71z
M596 696q51 0 87 36t36 87q0 50 -36 85.5t-87 35.5t-87 -35.5t-36 -85.5q0 -51 36 -87t87 -36z" />
    <glyph glyph-name="Ocircumflex" unicode="&#xd4;" horiz-adv-x="1191" 
d="M315 1855l263 170h36l263 -167l-72 -105l-209 123l-209 -125zM596 -37q-136 0 -244.5 72t-175 193.5t-101 272.5t-34.5 318q0 170 35.5 321.5t102.5 271.5t174.5 190.5t242.5 70.5q110 0 202 -47t156.5 -127.5t109.5 -189.5t66 -233t21 -257q0 -170 -35.5 -322
t-102.5 -272t-174.5 -191t-242.5 -71zM596 696q51 0 87 36t36 87q0 50 -36 85.5t-87 35.5t-87 -35.5t-36 -85.5q0 -51 36 -87t87 -36z" />
    <glyph glyph-name="Ocircumflex" unicode="&#xf4;" horiz-adv-x="1191" 
d="M315 1855l263 170h36l263 -167l-72 -105l-209 123l-209 -125zM596 -37q-136 0 -244.5 72t-175 193.5t-101 272.5t-34.5 318q0 170 35.5 321.5t102.5 271.5t174.5 190.5t242.5 70.5q110 0 202 -47t156.5 -127.5t109.5 -189.5t66 -233t21 -257q0 -170 -35.5 -322
t-102.5 -272t-174.5 -191t-242.5 -71zM596 696q51 0 87 36t36 87q0 50 -36 85.5t-87 35.5t-87 -35.5t-36 -85.5q0 -51 36 -87t87 -36z" />
    <glyph glyph-name="Otilde" unicode="&#xd5;" horiz-adv-x="1191" 
d="M397 1804h-133q5 98 59.5 159.5t139.5 61.5q51 0 86 -19t82 -64q34 -32 52 -44t40 -12q33 0 52.5 25.5t19.5 77.5h133q0 -92 -58.5 -158t-138.5 -66q-45 0 -79.5 19t-82.5 63q-32 32 -53.5 46t-44.5 14q-32 0 -53 -27t-21 -76zM596 -37q-136 0 -244.5 72t-175 193.5
t-101 272.5t-34.5 318q0 170 35.5 321.5t102.5 271.5t174.5 190.5t242.5 70.5q110 0 202 -47t156.5 -127.5t109.5 -189.5t66 -233t21 -257q0 -170 -35.5 -322t-102.5 -272t-174.5 -191t-242.5 -71zM596 696q51 0 87 36t36 87q0 50 -36 85.5t-87 35.5t-87 -35.5t-36 -85.5
q0 -51 36 -87t87 -36z" />
    <glyph glyph-name="Otilde" unicode="&#xf5;" horiz-adv-x="1191" 
d="M397 1804h-133q5 98 59.5 159.5t139.5 61.5q51 0 86 -19t82 -64q34 -32 52 -44t40 -12q33 0 52.5 25.5t19.5 77.5h133q0 -92 -58.5 -158t-138.5 -66q-45 0 -79.5 19t-82.5 63q-32 32 -53.5 46t-44.5 14q-32 0 -53 -27t-21 -76zM596 -37q-136 0 -244.5 72t-175 193.5
t-101 272.5t-34.5 318q0 170 35.5 321.5t102.5 271.5t174.5 190.5t242.5 70.5q110 0 202 -47t156.5 -127.5t109.5 -189.5t66 -233t21 -257q0 -170 -35.5 -322t-102.5 -272t-174.5 -191t-242.5 -71zM596 696q51 0 87 36t36 87q0 50 -36 85.5t-87 35.5t-87 -35.5t-36 -85.5
q0 -51 36 -87t87 -36z" />
    <glyph glyph-name="Odieresis" unicode="&#xd6;" horiz-adv-x="1191" 
d="M330 1759q51 0 87 36t36 87q0 50 -36 85.5t-87 35.5t-87 -35.5t-36 -85.5q0 -51 36 -87t87 -36zM862 1759q51 0 87 36t36 87q0 50 -36 85.5t-87 35.5t-87 -35.5t-36 -85.5q0 -51 36 -87t87 -36zM596 -37q-136 0 -244.5 72t-175 193.5t-101 272.5t-34.5 318
q0 170 35.5 321.5t102.5 271.5t174.5 190.5t242.5 70.5q110 0 202 -47t156.5 -127.5t109.5 -189.5t66 -233t21 -257q0 -170 -35.5 -322t-102.5 -272t-174.5 -191t-242.5 -71zM596 696q51 0 87 36t36 87q0 50 -36 85.5t-87 35.5t-87 -35.5t-36 -85.5q0 -51 36 -87t87 -36z
" />
    <glyph glyph-name="Odieresis" unicode="&#xf6;" horiz-adv-x="1191" 
d="M330 1759q51 0 87 36t36 87q0 50 -36 85.5t-87 35.5t-87 -35.5t-36 -85.5q0 -51 36 -87t87 -36zM862 1759q51 0 87 36t36 87q0 50 -36 85.5t-87 35.5t-87 -35.5t-36 -85.5q0 -51 36 -87t87 -36zM596 -37q-136 0 -244.5 72t-175 193.5t-101 272.5t-34.5 318
q0 170 35.5 321.5t102.5 271.5t174.5 190.5t242.5 70.5q110 0 202 -47t156.5 -127.5t109.5 -189.5t66 -233t21 -257q0 -170 -35.5 -322t-102.5 -272t-174.5 -191t-242.5 -71zM596 696q51 0 87 36t36 87q0 50 -36 85.5t-87 35.5t-87 -35.5t-36 -85.5q0 -51 36 -87t87 -36z
" />
    <glyph glyph-name="multiply" unicode="&#xd7;" horiz-adv-x="829" 
d="M631 924l104 -105l-190 -190l190 -191l-104 -102l-191 188l-190 -190l-105 104l191 191l-191 190l105 105l190 -191z" />
    <glyph glyph-name="Ugrave" unicode="&#xd9;" horiz-adv-x="1212" 
d="M377 1917h438v-148h-438v148zM1141 795v843h-400v-751q0 -96 -38.5 -151.5t-94.5 -55.5t-94.5 55.5t-38.5 151.5v751h-399l-4 -843q0 -256 69.5 -445t194.5 -289q119 -98 270 -98t273 99.5t192 285.5t70 447z" />
    <glyph glyph-name="Ugrave" unicode="&#xf9;" horiz-adv-x="1212" 
d="M377 1917h438v-148h-438v148zM1141 795v843h-400v-751q0 -96 -38.5 -151.5t-94.5 -55.5t-94.5 55.5t-38.5 151.5v751h-399l-4 -843q0 -256 69.5 -445t194.5 -289q119 -98 270 -98t273 99.5t192 285.5t70 447z" />
    <glyph glyph-name="Uacute" unicode="&#xda;" horiz-adv-x="1212" 
d="M387 1919h438v-147h-438v147zM1141 795v843h-400v-751q0 -96 -38.5 -151.5t-94.5 -55.5t-94.5 55.5t-38.5 151.5v751h-399l-4 -843q0 -256 69.5 -445t194.5 -289q119 -98 270 -98t273 99.5t192 285.5t70 447z" />
    <glyph glyph-name="Uacute" unicode="&#xfa;" horiz-adv-x="1212" 
d="M387 1919h438v-147h-438v147zM1141 795v843h-400v-751q0 -96 -38.5 -151.5t-94.5 -55.5t-94.5 55.5t-38.5 151.5v751h-399l-4 -843q0 -256 69.5 -445t194.5 -289q119 -98 270 -98t273 99.5t192 285.5t70 447z" />
    <glyph glyph-name="Ucircumflex" unicode="&#xdb;" horiz-adv-x="1212" 
d="M326 1855l262 170h37l262 -167l-72 -105l-209 123l-209 -125zM1141 795v843h-400v-751q0 -96 -38.5 -151.5t-94.5 -55.5t-94.5 55.5t-38.5 151.5v751h-399l-4 -843q0 -256 69.5 -445t194.5 -289q119 -98 270 -98t273 99.5t192 285.5t70 447z" />
    <glyph glyph-name="Ucircumflex" unicode="&#xfb;" horiz-adv-x="1212" 
d="M326 1855l262 170h37l262 -167l-72 -105l-209 123l-209 -125zM1141 795v843h-400v-751q0 -96 -38.5 -151.5t-94.5 -55.5t-94.5 55.5t-38.5 151.5v751h-399l-4 -843q0 -256 69.5 -445t194.5 -289q119 -98 270 -98t273 99.5t192 285.5t70 447z" />
    <glyph glyph-name="Udieresis" unicode="&#xdc;" horiz-adv-x="1212" 
d="M340 1759q51 0 87 36t36 87q0 50 -36 85.5t-87 35.5t-87 -35.5t-36 -85.5q0 -51 36 -87t87 -36zM872 1759q51 0 87 36t36 87q0 50 -36 85.5t-87 35.5t-86.5 -35.5t-35.5 -85.5q0 -51 35.5 -87t86.5 -36zM1141 795v843h-400v-751q0 -96 -38.5 -151.5t-94.5 -55.5
t-94.5 55.5t-38.5 151.5v751h-399l-4 -843q0 -256 69.5 -445t194.5 -289q119 -98 270 -98t273 99.5t192 285.5t70 447z" />
    <glyph glyph-name="Udieresis" unicode="&#xfc;" horiz-adv-x="1212" 
d="M340 1759q51 0 87 36t36 87q0 50 -36 85.5t-87 35.5t-87 -35.5t-36 -85.5q0 -51 36 -87t87 -36zM872 1759q51 0 87 36t36 87q0 50 -36 85.5t-87 35.5t-86.5 -35.5t-35.5 -85.5q0 -51 35.5 -87t86.5 -36zM1141 795v843h-400v-751q0 -96 -38.5 -151.5t-94.5 -55.5
t-94.5 55.5t-38.5 151.5v751h-399l-4 -843q0 -256 69.5 -445t194.5 -289q119 -98 270 -98t273 99.5t192 285.5t70 447z" />
    <glyph glyph-name="Yacute" unicode="&#xdd;" horiz-adv-x="1167" 
d="M340 1919h438v-147h-438v147zM1110 1638v-364l-578 -1002v-272h-460v1638h460v-510l291 510h287z" />
    <glyph glyph-name="Yacute" unicode="&#xfd;" horiz-adv-x="1167" 
d="M340 1919h438v-147h-438v147zM1110 1638v-364l-578 -1002v-272h-460v1638h460v-510l291 510h287z" />
    <glyph glyph-name="iacute" unicode="&#xed;" horiz-adv-x="604" 
d="M84 1919h438v-147h-438v147zM72 2v1636h460v-1636h-460z" />
    <glyph glyph-name="divide" unicode="&#xf7;" horiz-adv-x="829" 
d="M113 1147q0 56 38.5 98t110.5 64q74 22 170 22q204 0 283 -88q39 -42 39 -96q0 -56 -39 -98t-111 -64q-84 -24 -172 -24q-198 0 -280 88q-39 45 -39 98zM387 1147q0 -31 45 -31q47 0 47 31q0 29 -47 29q-45 0 -45 -29zM72 698v148h686v-148h-686zM113 391q0 56 38.5 98
t110.5 64q74 22 170 22q204 0 283 -88q39 -42 39 -96q0 -56 -39 -98t-111 -64q-84 -24 -172 -24q-204 0 -280 88q-39 45 -39 98zM387 391q0 -31 45 -31q47 0 47 31q0 29 -47 29q-45 0 -45 -29z" />
    <glyph glyph-name="Wcircumflex" unicode="&#x174;" horiz-adv-x="1714" 
d="M578 1855l262 170h37l262 -167l-72 -105l-209 123l-209 -125zM995 1204l250 434h397v-874l-448 -764h-516v434l-250 -434h-356v1638h358v-434l250 434h315v-434z" />
    <glyph glyph-name="Wcircumflex" unicode="&#x175;" horiz-adv-x="1714" 
d="M578 1855l262 170h37l262 -167l-72 -105l-209 123l-209 -125zM995 1204l250 434h397v-874l-448 -764h-516v434l-250 -434h-356v1638h358v-434l250 434h315v-434z" />
    <glyph glyph-name="Ycircumflex" unicode="&#x176;" horiz-adv-x="1167" 
d="M279 1855l262 170h37l262 -167l-72 -105l-209 123l-209 -125zM1110 1638v-364l-578 -1002v-272h-460v1638h460v-510l291 510h287z" />
    <glyph glyph-name="Ycircumflex" unicode="&#x177;" horiz-adv-x="1167" 
d="M279 1855l262 170h37l262 -167l-72 -105l-209 123l-209 -125zM1110 1638v-364l-578 -1002v-272h-460v1638h460v-510l291 510h287z" />
    <glyph glyph-name="caron" unicode="&#x2c7;" horiz-adv-x="825" 
d="M432 1745h-37l-262 170l72 104l209 -125l209 123l71 -104z" />
    <glyph glyph-name="breve" unicode="&#x2d8;" horiz-adv-x="587" 
d="M379 1950h106q0 -79 -56 -136t-134 -57q-79 0 -136 56.5t-57 136.5h107q0 -35 25.5 -60.5t60.5 -25.5t59.5 25.5t24.5 60.5z" />
    <glyph glyph-name="dotaccent" unicode="&#x2d9;" horiz-adv-x="1228" 
 />
    <glyph glyph-name="ring" unicode="&#x2da;" horiz-adv-x="587" 
d="M295 1640q-86 0 -146.5 60.5t-60.5 146.5q0 85 60.5 145t146.5 60q85 0 145 -60t60 -145q0 -86 -60 -146.5t-145 -60.5zM295 1761q35 0 59.5 25.5t24.5 60.5t-24.5 59.5t-59.5 24.5t-60.5 -24.5t-25.5 -59.5t25.5 -60.5t60.5 -25.5z" />
    <glyph glyph-name="ogonek" unicode="&#x2db;" horiz-adv-x="616" 
d="M313 0h142q-99 -62 -157 -132t-58 -134q0 -37 19.5 -59.5t51.5 -22.5q36 0 59 24.5t23 61.5h121q0 -86 -61.5 -146.5t-149.5 -60.5q-83 0 -134.5 56t-51.5 139q0 77 50 149t146 125z" />
    <glyph glyph-name="tilde" unicode="&#x2dc;" horiz-adv-x="1228" 
d="M236 1722h-134q5 98 59.5 160t139.5 62q50 0 85.5 -19t82.5 -65q34 -32 52 -44t40 -12q33 0 52.5 25.5t19.5 77.5h133q0 -92 -58.5 -158t-138.5 -66q-45 0 -79 18.5t-82 63.5q-60 60 -99 60q-32 0 -52.5 -27t-20.5 -76z" />
    <glyph glyph-name="hungarumlaut" unicode="&#x2dd;" horiz-adv-x="966" 
d="M352 2038l103 -105l-310 -309l-104 105zM823 2038l103 -105l-310 -309l-104 105z" />
    <glyph glyph-name="gravecomb" unicode="&#x300;" 
d="M-395 1835h438v-147h-438v147z" />
    <glyph glyph-name="acutecomb" unicode="&#x301;" 
d="M-541 1509h439v-147h-439v147z" />
    <glyph glyph-name="uni0302" unicode="&#x302;" 
d="M-692 1774l262 170h37l262 -168l-72 -105l-209 123l-209 -125z" />
    <glyph glyph-name="tildecomb" unicode="&#x303;" 
d="M-633 1722h-133q5 98 59.5 160t139.5 62q50 0 85.5 -19t82.5 -65q34 -32 52 -44t40 -12q32 0 51.5 25.5t19.5 77.5h134q0 -92 -58.5 -158t-138.5 -66q-45 0 -79.5 19t-82.5 63q-32 32 -53.5 46t-44.5 14q-32 0 -53 -27t-21 -76z" />
    <glyph glyph-name="uni0304" unicode="&#x304;" 
d="M-41 1835h-438v147h438v-147z" />
    <glyph glyph-name="uni0306" unicode="&#x306;" 
d="M-209 1950h107q0 -79 -56.5 -136t-134.5 -57q-79 0 -135.5 56.5t-56.5 136.5h106q0 -35 25.5 -60.5t60.5 -25.5t59.5 25.5t24.5 60.5z" />
    <glyph glyph-name="uni0308" unicode="&#x308;" 
d="M-758 1677q51 0 87 36t36 87q0 50 -36 85.5t-87 35.5t-87 -35.5t-36 -85.5q0 -51 36 -87t87 -36zM-225 1677q51 0 87 36t36 87q0 50 -36 85.5t-87 35.5t-87 -35.5t-36 -85.5q0 -51 36 -87t87 -36z" />
    <glyph glyph-name="uni030A" unicode="&#x30a;" 
d="M-293 1640q-86 0 -146.5 60.5t-60.5 146.5q0 85 60.5 145t146.5 60q85 0 145 -60t60 -145q0 -86 -60 -146.5t-145 -60.5zM-293 1761q35 0 59.5 25.5t24.5 60.5t-25.5 59.5t-58.5 24.5q-35 0 -60.5 -24.5t-25.5 -59.5t25.5 -60.5t60.5 -25.5z" />
    <glyph glyph-name="uni030B" unicode="&#x30b;" 
d="M-614 2038l102 -105l-309 -309l-105 105zM-143 2038l102 -105l-309 -309l-105 105z" />
    <glyph glyph-name="uni030C" unicode="&#x30c;" 
d="M-393 1745h-37l-262 170l71 104l209 -125l209 123l72 -104z" />
    <glyph glyph-name="uni0327" unicode="&#x327;" 
d="M-307 -57h-72v82h-67v-203h139q32 0 58 -26t26 -58q0 -35 -24.5 -60.5t-59.5 -25.5t-60.5 25.5t-25.5 60.5h-121q0 -86 60.5 -146.5t146.5 -60.5q85 0 145 60.5t60 146.5q0 85 -60 145t-145 60z" />
    <glyph glyph-name="uni0328" unicode="&#x328;" 
d="M-303 0h141q-99 -62 -157 -132t-58 -134q0 -37 20 -59.5t52 -22.5q36 0 59 24.5t23 61.5h121q0 -86 -61.5 -146.5t-149.5 -60.5q-83 0 -135 56t-52 139q0 77 50.5 149t146.5 125z" />
    <glyph glyph-name="Wacute" unicode="&#x1e82;" horiz-adv-x="1714" 
d="M639 1919h438v-147h-438v147zM995 1204l250 434h397v-874l-448 -764h-516v434l-250 -434h-356v1638h358v-434l250 434h315v-434z" />
    <glyph glyph-name="Wacute" unicode="&#x1e83;" horiz-adv-x="1714" 
d="M639 1919h438v-147h-438v147zM995 1204l250 434h397v-874l-448 -764h-516v434l-250 -434h-356v1638h358v-434l250 434h315v-434z" />
    <glyph glyph-name="Wdieresis" unicode="&#x1e84;" horiz-adv-x="1714" 
d="M592 1759q51 0 87 36t36 87q0 50 -36 85.5t-87 35.5t-87 -35.5t-36 -85.5q0 -51 36 -87t87 -36zM1124 1759q51 0 87 36t36 87q0 50 -36 85.5t-87 35.5t-87 -35.5t-36 -85.5q0 -51 36 -87t87 -36zM995 1204l250 434h397v-874l-448 -764h-516v434l-250 -434h-356v1638h358
v-434l250 434h315v-434z" />
    <glyph glyph-name="Wdieresis" unicode="&#x1e85;" horiz-adv-x="1714" 
d="M592 1759q51 0 87 36t36 87q0 50 -36 85.5t-87 35.5t-87 -35.5t-36 -85.5q0 -51 36 -87t87 -36zM1124 1759q51 0 87 36t36 87q0 50 -36 85.5t-87 35.5t-87 -35.5t-36 -85.5q0 -51 36 -87t87 -36zM995 1204l250 434h397v-874l-448 -764h-516v434l-250 -434h-356v1638h358
v-434l250 434h315v-434z" />
    <glyph glyph-name="Ygrave" unicode="&#x1ef2;" horiz-adv-x="1167" 
d="M330 1917h438v-148h-438v148zM1110 1638v-364l-578 -1002v-272h-460v1638h460v-510l291 510h287z" />
    <glyph glyph-name="Ygrave" unicode="&#x1ef3;" horiz-adv-x="1167" 
d="M330 1917h438v-148h-438v148zM1110 1638v-364l-578 -1002v-272h-460v1638h460v-510l291 510h287z" />
    <glyph glyph-name="bullet" unicode="&#x2022;" horiz-adv-x="352" 
d="M102 584v438h148v-438h-148z" />
    <glyph glyph-name="ellipsis" unicode="&#x2026;" horiz-adv-x="1228" 
d="M102 -49v295h148v-295h-148z" />
    <glyph glyph-name="perthousand" unicode="&#x2030;" horiz-adv-x="2035" 
d="M72 1454q0 56 38.5 98t110.5 64q74 22 170 22q204 0 283 -88q39 -42 39 -96q0 -56 -39 -98t-111 -64q-84 -24 -172 -24q-204 0 -280 88q-39 45 -39 98zM315 0l543 1638h148l-543 -1638h-148zM346 1454q0 -31 45 -31q47 0 47 31q0 29 -47 29q-45 0 -45 -29zM604 172
q0 53 39 98q76 88 281 88q88 0 172 -24q72 -22 110.5 -64t38.5 -98q0 -54 -39 -96q-79 -88 -282 -88q-96 0 -170 22q-72 22 -111 64t-39 98zM1323 156q0 53 39 98q76 88 280 88q86 0 173 -25q72 -22 110.5 -63.5t38.5 -97.5q0 -55 -39 -97q-79 -88 -283 -88q-92 0 -169 23
q-72 22 -111 64t-39 98zM879 172q0 -29 45 -29q47 0 47 29q0 31 -47 31q-45 0 -45 -31zM1597 156q0 -29 45 -29q48 0 48 29q0 30 -48 30q-45 0 -45 -30z" />
    <glyph glyph-name="fraction" unicode="&#x2044;" horiz-adv-x="966" 
d="M174 0l543 1638h147l-542 -1638h-148z" />
    <glyph glyph-name="arrowleft" unicode="&#x2190;" horiz-adv-x="1781" 
d="M72 584v471l1001 583h637v-286l-983 -297h983v-471h-983l983 -297v-287h-637z" />
    <glyph glyph-name="arrowup" unicode="&#x2191;" horiz-adv-x="1781" 
d="M655 1638h471l584 -1001v-637h-287l-297 983v-983h-471v983l-297 -983h-286v637z" />
    <glyph glyph-name="arrowright" unicode="&#x2192;" horiz-adv-x="1884" 
d="M1710 1055v-471l-1001 -584h-637v287l983 297h-983v471h983l-983 297v286h637z" />
    <glyph glyph-name="arrowdown" unicode="&#x2193;" horiz-adv-x="1781" 
d="M1126 0h-471l-583 1001v637h286l297 -983v983h471v-983l297 983h287v-637z" />
    <glyph glyph-name="arrowboth" unicode="&#x2194;" horiz-adv-x="1781" 
d="M981 1352v286h285l444 -583v-471l-444 -584h-285v287l438 297h-1057l439 -297v-287h-285l-444 584v471l444 583h285v-286l-439 -297h1057z" />
    <glyph glyph-name="arrowupdn" unicode="&#x2195;" horiz-adv-x="1781" 
d="M358 909h-286v285l583 444h471l584 -444v-285h-287l-297 439v-1057l297 438h287v-285l-584 -444h-471l-583 444v285h286l297 -438v1057z" />
    <glyph glyph-name="uni2196" unicode="&#x2196;" horiz-adv-x="1781" 
d="M461 924l256 -512l2 -410h-389l-258 1311l325 325l1311 -258v-389l-410 2l-512 256l924 -923v-326h-326z" />
    <glyph glyph-name="uni2197" unicode="&#x2197;" horiz-adv-x="1781" 
d="M995 1247l-512 -256l-409 -2v389l1310 258l326 -325l-258 -1311h-389l2 410l256 512l-924 -924h-325v326z" />
    <glyph glyph-name="uni2198" unicode="&#x2198;" horiz-adv-x="1781" 
d="M1321 715l-256 512l-2 409h389l258 -1310l-326 -326l-1310 258v389l409 -2l512 -256l-923 924v325h325z" />
    <glyph glyph-name="uni2199" unicode="&#x2199;" horiz-adv-x="1781" 
d="M719 1636l-2 -409l-256 -512l923 923h326v-325l-924 -924l512 256l410 2v-389l-1311 -258l-325 326l258 1310h389z" />
    <glyph glyph-name="emptyset" unicode="&#x2205;" horiz-adv-x="1460" 
d="M1081 1155q148 -44 228 -131t80 -201q0 -115 -78 -202q-78 -88 -227.5 -135.5t-350.5 -47.5q-37 0 -55 2l-146 -440h-147l150 453q-90 16 -156 36q-148 44 -227.5 131t-79.5 203q0 109 78 197q162 182 583 182h49l146 436h147l-149 -450q84 -12 155 -33zM733 758
q90 0 90 65q0 60 -90 60q-96 0 -96 -60q0 -36 24 -50.5t72 -14.5z" />
    <glyph glyph-name="minus" unicode="&#x2212;" horiz-adv-x="829" 
d="M72 698v148h686v-148h-686z" />
    <glyph glyph-name="approxequal" unicode="&#x2248;" horiz-adv-x="1228" 
d="M418 745h-133q5 98 59 160t139 62q50 0 85.5 -19t82.5 -65q34 -32 52 -44t40 -12q33 0 52.5 25.5t19.5 77.5h133q0 -92 -58 -157.5t-138 -65.5q-45 0 -80 18.5t-82 62.5q-32 32 -53.5 46t-44.5 14q-32 0 -53 -27t-21 -76zM418 438h-133q5 98 59 159.5t139 61.5
q50 0 85.5 -19t82.5 -65q33 -32 51.5 -43.5t40.5 -11.5q33 0 52.5 25.5t19.5 77.5h133q0 -92 -58 -158t-138 -66q-45 0 -79.5 19t-82.5 63q-32 32 -53.5 46t-44.5 14q-32 0 -53 -27t-21 -76z" />
    <glyph glyph-name="notequal" unicode="&#x2260;" horiz-adv-x="993" 
d="M717 1638h147l-200 -606h176v-147h-226l-41 -125h267v-148h-316l-202 -612h-148l203 612h-223v148h272l41 125h-313v147h362z" />
    <glyph glyph-name="lessequal" unicode="&#x2264;" horiz-adv-x="870" 
d="M72 874v340h727v-204h-596l596 -348v-205zM92 395h686v-147h-686v147z" />
    <glyph glyph-name="greaterequal" unicode="&#x2265;" horiz-adv-x="870" 
d="M72 1214h727v-340l-727 -417v205l596 348h-596v204zM92 248v147h686v-147h-686z" />
    <glyph glyph-name="F.ss01" horiz-adv-x="894" 
d="M72 -4h460v354h199v512h-199v266h322l295 510h-1077v-1642z" />
    <glyph glyph-name="dotaccent.comb" horiz-adv-x="1228" 
 />
    <glyph glyph-name="circumflex.001" horiz-adv-x="825" 
d="M133 1835l262 170h37l262 -168l-71 -104l-209 122l-209 -124z" />
    <glyph glyph-name="newGlyph" horiz-adv-x="1228" 
 />
    <glyph glyph-name="A.001" horiz-adv-x="1148" 
d="M1077 0h-358v434l-250 -434h-397v764l506 874h499v-1638zM735 780q51 0 87 36t36 87q0 50 -36 85.5t-87 35.5t-87 -35.5t-36 -85.5q0 -51 36 -87t87 -36z" />
    <glyph glyph-name="Y.ss01" horiz-adv-x="1167" 
d="M532 272v-272h-460v1638h460v-510l291 510h498z" />
    <glyph glyph-name="Yacute.ss01" horiz-adv-x="1167" 
d="M340 1919h438v-147h-438v147zM532 272v-272h-460v1638h460v-510l291 510h498z" />
    <glyph glyph-name="Ycircumflex.ss01" horiz-adv-x="1167" 
d="M279 1855l262 170h37l262 -167l-72 -105l-209 123l-209 -125zM532 272v-272h-460v1638h460v-510l291 510h498z" />
    <glyph glyph-name="Ygrave.ss01" horiz-adv-x="1167" 
d="M330 1917h438v-148h-438v148zM532 272v-272h-460v1638h460v-510l291 510h498z" />
    <glyph glyph-name="elipse" horiz-adv-x="870" 
d="M0 250q0 81 51 135q112 115 383 115q120 0 234 -31q97 -27 149.5 -85.5t52.5 -133.5q0 -79 -51 -133q-111 -117 -385 -117q-122 0 -231 31q-97 29 -150 87t-53 132zM375 250q0 -39 59 -39q62 0 62 39q0 41 -62 41q-59 0 -59 -41z" />
    <glyph glyph-name="BTicon" horiz-adv-x="1249" 
d="M725 1044h-197l86 -434h25zM324 958l-140 -135l369 -245l12 14zM1063 823l-137 135l-244 -366l12 -14zM102 618v-196l435 86v24zM713 508l434 -86v196l-434 -86v-24zM553 467l-365 -246l136 -139l247 371zM678 453l248 -371l133 139l-365 246zM614 434l-86 -434h197
l-86 434h-25z" />
    </font>
</defs>
</svg>
