<?xml version="1.0" standalone="no"?>
<!DOCTYPE svg PUBLIC "-//W3C//DTD SVG 1.1//EN" "http://www.w3.org/Graphics/SVG/1.1/DTD/svg11.dtd" >
<svg xmlns="http://www.w3.org/2000/svg" xmlns:xlink="http://www.w3.org/1999/xlink" version="1.1">
<metadata>
Created by FontForge 20170731 at Thu Jun 11 02:05:58 2020
 By Aleksey,,,
Copyright 2019 The Sora Project Authors (https://github.com/sora-xor/sora-font)
</metadata>
<defs>
<font id="Sora-ExtraLight" horiz-adv-x="0" >
  <font-face 
    font-family="Sora ExtraLight"
    font-weight="250"
    font-stretch="normal"
    units-per-em="1000"
    panose-1="0 0 0 0 0 0 0 0 0 0"
    ascent="800"
    descent="-200"
    x-height="525"
    cap-height="730"
    bbox="-105 -266 1276 1161"
    underline-thickness="50"
    underline-position="-175"
    unicode-range="U+000D-FB02"
  />
<missing-glyph horiz-adv-x="813" 
d="M370 228v121h33q52 0 80.5 32.5t28.5 80.5q0 51 -29 82.5t-78 31.5q-48 0 -79 -33.5t-31 -87.5h-40q0 45 18.5 81t52.5 57t80 21t79 -20t51 -53.5t18 -73.5v-7q0 -39 -18 -72t-52.5 -53.5t-86.5 -20.5l11 20l-1 -106h-37zM364 100v55h50v-55h-50zM93 -17v768h627v-768
h-627zM127 15h559v704h-559v-704z" />
    <glyph glyph-name="fi" unicode="fi" horiz-adv-x="645" 
d="M118 0v585q0 78 39.5 115t119.5 37h61v-46h-73q-46 0 -70.5 -24.5t-24.5 -68.5v-598h-52zM37 481v42h306v-42h-306zM487 0v525h53v-525h-53zM401 479v46h139v-46h-139zM492 635q-21 0 -32.5 11.5t-11.5 29.5q0 19 11.5 31t32.5 12q22 0 33 -12t11 -31q0 -18 -11 -29.5
t-33 -11.5z" />
    <glyph glyph-name="fl" unicode="fl" horiz-adv-x="631" 
d="M118 0v578q0 77 39.5 114.5t119.5 37.5h59v-47h-71q-46 0 -70.5 -24t-24.5 -68v-591h-52zM37 479v42h304v-42h-304zM475 0v730h53v-730h-53zM400 685v45h128v-45h-128z" />
    <glyph glyph-name="f_f" unicode="ff" horiz-adv-x="706" 
d="M118 0v585q0 78 39.5 115t119.5 37h61v-46h-73q-46 0 -70.5 -24.5t-24.5 -68.5v-598h-52zM452 0v579q0 78 39.5 115t119.5 37h69v-46h-81q-46 0 -70.5 -24.5t-24.5 -68.5v-592h-52zM37 479v42h654v-42h-654z" />
    <glyph glyph-name="f_f_i" unicode="ffi" horiz-adv-x="979" 
d="M118 0v587q0 78 39.5 115t119.5 37h59v-46h-71q-46 0 -70.5 -24.5t-24.5 -68.5v-600h-52zM452 0v581q0 78 39.5 115t119.5 37h62v-46h-74q-46 0 -70.5 -24.5t-24.5 -68.5v-594h-52zM821 0v525h54v-525h-54zM37 482v43h640v-43h-640zM735 479v46h140v-46h-140zM826 635
q-21 0 -32 11.5t-11 30.5q0 18 11 30t32 12q22 0 33 -12t11 -30q0 -19 -11 -30.5t-33 -11.5z" />
    <glyph glyph-name="f_f_j" unicode="ffj" horiz-adv-x="986" 
d="M118 0v587q0 78 39.5 115t119.5 37h61v-46h-73q-46 0 -70.5 -24.5t-24.5 -68.5v-600h-52zM452 0v581q0 78 39.5 115t119.5 37h65v-46h-77q-46 0 -70.5 -24.5t-24.5 -68.5v-594h-52zM683 -201v48h66q40 0 60.5 24t20.5 71v583h52v-569q0 -57 -14.5 -91.5t-46.5 -50
t-85 -15.5h-53zM37 482v43h648v-43h-648zM743 479v46h139v-46h-139zM834 644q-21 0 -32.5 11.5t-11.5 30.5q0 18 11.5 30t32.5 12q22 0 33 -12t11 -30q0 -19 -11 -30.5t-33 -11.5z" />
    <glyph glyph-name="f_f_l" unicode="ffl" horiz-adv-x="965" 
d="M118 0v585q0 78 39.5 115t119.5 37h61v-46h-73q-46 0 -70.5 -24.5t-24.5 -68.5v-598h-52zM452 0v578q0 77 39.5 114.5t119.5 37.5h59v-47h-71q-46 0 -70.5 -24t-24.5 -68v-591h-52zM809 0v730h54v-730h-54zM37 479v42h638v-42h-638zM735 685v45h128v-45h-128z" />
    <glyph glyph-name="f_j" unicode="fj" horiz-adv-x="652" 
d="M118 0v585q0 78 39.5 115t119.5 37h55v-46h-67q-46 0 -70.5 -24.5t-24.5 -68.5v-598h-52zM349 -201v48h65q40 0 61 24t21 71v583h52v-569q0 -57 -15 -91.5t-46.5 -50t-84.5 -15.5h-53zM37 482v43h304v-43h-304zM409 479v46h139v-46h-139zM500 644q-22 0 -33 11.5
t-11 30.5q0 18 11 30t33 12t32.5 -12t10.5 -30q0 -19 -10.5 -30.5t-32.5 -11.5z" />
    <glyph glyph-name=".notdef" horiz-adv-x="813" 
d="M370 228v121h33q52 0 80.5 32.5t28.5 80.5q0 51 -29 82.5t-78 31.5q-48 0 -79 -33.5t-31 -87.5h-40q0 45 18.5 81t52.5 57t80 21t79 -20t51 -53.5t18 -73.5v-7q0 -39 -18 -72t-52.5 -53.5t-86.5 -20.5l11 20l-1 -106h-37zM364 100v55h50v-55h-50zM93 -17v768h627v-768
h-627zM127 15h559v704h-559v-704z" />
    <glyph glyph-name=".null" 
 />
    <glyph glyph-name="nonmarkingreturn" horiz-adv-x="333" 
 />
    <glyph glyph-name="NULL" horiz-adv-x="600" 
 />
    <glyph glyph-name="NULL" horiz-adv-x="600" 
 />
    <glyph glyph-name="CR" unicode="&#xd;" horiz-adv-x="600" 
 />
    <glyph glyph-name="space" unicode=" " horiz-adv-x="239" 
 />
    <glyph glyph-name="exclam" unicode="!" horiz-adv-x="269" 
d="M108 186v544h54v-544h-54zM99 0v77h71v-77h-71z" />
    <glyph glyph-name="quotedbl" unicode="&#x22;" horiz-adv-x="394" 
d="M106 476v254h47v-254h-47zM241 476v254h47v-254h-47z" />
    <glyph glyph-name="numbersign" unicode="#" horiz-adv-x="669" 
d="M137 0l115 730h48l-114 -730h-49zM369 0l115 730h48l-114 -730h-49zM39 221v42h557v-42h-557zM73 467v42h558v-42h-558z" />
    <glyph glyph-name="dollar" unicode="$" horiz-adv-x="657" 
d="M330 1q-89 0 -147.5 28.5t-88 78.5t-29.5 115h52q0 -49 21.5 -88.5t69 -62.5t122.5 -23q104 0 154.5 41.5t50.5 107.5q0 60 -44 101.5t-132 49.5l-66 6q-90 9 -142.5 55t-52.5 128q0 55 26 98t76.5 68t125.5 25q77 0 128.5 -28t78 -76t26.5 -109h-51q0 44 -19 81.5
t-59 60.5t-104 23q-61 0 -99.5 -19t-57.5 -51.5t-19 -72.5q0 -59 38.5 -93t110.5 -41l66 -6q105 -10 163.5 -64t58.5 -136q0 -58 -29 -102t-86 -69.5t-142 -25.5zM305 -129v146h49v-146h-49zM301 699v128h49v-128h-49z" />
    <glyph glyph-name="percent" unicode="%" horiz-adv-x="822" 
d="M245 0l289 730h44l-288 -730h-45zM199 346q-52 0 -85.5 25t-50 67.5t-16.5 94.5v17q0 54 16.5 96t50.5 66.5t85 24.5t85 -24.5t50.5 -66.5t16.5 -96v-17q0 -52 -16.5 -94.5t-50 -67.5t-85.5 -25zM199 385q55 0 82.5 40.5t27.5 115.5q0 76 -27.5 116.5t-82.5 40.5
t-82.5 -40.5t-27.5 -115.5t27.5 -116t82.5 -41zM623 -7q-52 0 -85.5 25t-50 67.5t-16.5 94.5v17q0 54 16.5 96t50.5 66.5t85 24.5t85 -24.5t50.5 -66.5t16.5 -96v-17q0 -52 -16.5 -94.5t-50 -67.5t-85.5 -25zM623 32q55 0 82.5 40.5t27.5 115.5q0 76 -27.5 116.5t-82.5 40.5
t-82.5 -40.5t-27.5 -116.5q0 -74 27.5 -115t82.5 -41z" />
    <glyph glyph-name="ampersand" unicode="&#x26;" horiz-adv-x="661" 
d="M544 0l-315 334q-42 45 -67 79.5t-36.5 67.5t-11.5 72q0 58 23 98.5t72 62t126 21.5q36 0 76 -2.5t78 -7.5v-48q-26 4 -55 6t-57 3t-52 1q-83 0 -121 -34.5t-38 -100.5q0 -51 23 -92t73 -94l347 -366h-65zM278 -17q-65 0 -119.5 26.5t-86.5 74t-32 108.5v11
q0 71 40.5 127t99.5 88l27 -40q-53 -27 -84 -74.5t-31 -106.5q0 -54 26.5 -91t69.5 -56t90 -19q80 0 133 45.5t79.5 131t26.5 204.5h49q0 -97 -18 -176t-53.5 -135.5t-89.5 -87t-127 -30.5zM385 404v44h245v-44h-245z" />
    <glyph glyph-name="quotesingle" unicode="'" horiz-adv-x="259" 
d="M106 476v254h47v-254h-47z" />
    <glyph glyph-name="parenleft" unicode="(" horiz-adv-x="363" 
d="M277 -182q-55 62 -96.5 133t-65 157.5t-23.5 191.5q0 106 23.5 191t65.5 155.5t96 129.5h60q-60 -68 -103.5 -140t-66 -153.5t-22.5 -182.5t22.5 -183.5t65.5 -155t104 -143.5h-60z" />
    <glyph glyph-name="parenright" unicode=")" horiz-adv-x="363" 
d="M86 -182q55 62 96.5 133t65 157.5t23.5 191.5q0 106 -23.5 191t-65.5 155.5t-96 129.5h-60q60 -68 103.5 -140t66 -153.5t22.5 -182.5t-22.5 -183.5t-65.5 -155t-104 -143.5h60z" />
    <glyph glyph-name="asterisk" unicode="*" horiz-adv-x="565" 
d="M480 387l-158 102v84l158 102l26 -46l-142 -75v-46l142 -75zM306 777l-9 -188l-73 -42l-167 86l26 46l136 -86l41 23l-7 161h53zM57 429l167 86l73 -42l9 -188h-52l6 161l-41 23l-135 -86z" />
    <glyph glyph-name="plus" unicode="+" horiz-adv-x="586" 
d="M269 115v459h48v-459h-48zM79 323v44h428v-44h-428z" />
    <glyph glyph-name="comma" unicode="," horiz-adv-x="254" 
d="M88 -150l-43 17l81 223l45 -17z" />
    <glyph glyph-name="hyphen" unicode="-" horiz-adv-x="499" 
d="M85 255v46h329v-46h-329z" />
    <glyph glyph-name="period" unicode="." horiz-adv-x="254" 
d="M92 0v77h70v-77h-70z" />
    <glyph glyph-name="slash" unicode="/" horiz-adv-x="303" 
d="M24 -60l204 840h50l-204 -840h-50z" />
    <glyph glyph-name="zero" unicode="0" horiz-adv-x="726" 
d="M363 -17q-71 0 -124 26.5t-87.5 74t-51 113.5t-16.5 147v41q0 112 31 193.5t93.5 126t154.5 44.5q93 0 155 -44.5t93 -126t31 -193.5v-41q0 -81 -16.5 -147t-51 -113.5t-87 -74t-124.5 -26.5zM363 33q114 0 169.5 81.5t55.5 250.5q0 174 -57 254t-168 80t-168 -80
t-57 -254q0 -169 56 -250.5t169 -81.5z" />
    <glyph glyph-name="one" unicode="1" horiz-adv-x="412" 
d="M220 0v701l21 -18h-191v47h223v-730h-53z" />
    <glyph glyph-name="two" unicode="2" horiz-adv-x="610" 
d="M87 0v103q0 40 11.5 69.5t40 53.5t78.5 48l150 70q53 25 86.5 67t33.5 109q0 85 -48 133t-129 48q-80 0 -128.5 -48t-48.5 -133h-53q0 66 27.5 118t79 81.5t123.5 29.5q73 0 124 -29.5t77.5 -79.5t26.5 -114v-12q0 -77 -43.5 -129t-110.5 -83l-150 -71q-56 -27 -75 -54
t-19 -69v-87l-17 26h430v-47h-466z" />
    <glyph glyph-name="three" unicode="3" horiz-adv-x="605" 
d="M294 -17q-76 0 -130.5 31t-83 83t-28.5 116h53q0 -82 50.5 -132t138.5 -50q58 0 100.5 22.5t66 63t23.5 93.5q0 83 -50 133t-138 50q-33 0 -57 -7.5t-43 -20.5l-32 56l303 248l-8 14h-379v47h431v-83l-285 -235l-28 1q19 12 43.5 18t56.5 6q75 0 128.5 -30t82 -80
t28.5 -111v-12q0 -59 -28.5 -109t-83 -81t-131.5 -31z" />
    <glyph glyph-name="four" unicode="4" horiz-adv-x="621" 
d="M55 191v70l317 479l37 -30l-307 -462l8 -13h479v-44h-534zM436 0v511h52v-511h-52z" />
    <glyph glyph-name="five" unicode="5" horiz-adv-x="610" 
d="M310 -17q-81 0 -136 33t-82.5 87t-27.5 116h53q0 -52 21.5 -95t64.5 -68t107 -25q63 0 106.5 25t65.5 68t22 95q0 53 -22 96t-65 68.5t-107 25.5q-43 0 -83 -15t-69 -43h-49l37 379h344v-47h-317l18 18l-32 -317l-20 2q33 33 75.5 51t96.5 18q82 0 136 -32.5t81.5 -85
t27.5 -111.5v-13q0 -59 -27.5 -111.5t-82.5 -85.5t-136 -33z" />
    <glyph glyph-name="six" unicode="6" horiz-adv-x="649" 
d="M342 -17q-66 0 -115 22.5t-81 66t-47.5 107t-15.5 144.5v36q0 183 80 279.5t245 96.5q30 0 57.5 -2t57.5 -7v-47q-31 4 -60 6t-58 2q-97 0 -157.5 -38.5t-88.5 -112.5t-28 -180v-97l-16 -30q1 72 28.5 126t79.5 84.5t126 30.5q78 0 131.5 -32.5t81 -87t27.5 -121.5
t-27.5 -123t-83 -89.5t-136.5 -33.5zM342 31q65 0 108 27t65 71.5t22 99.5t-21.5 99t-64 69.5t-107.5 25.5q-63 0 -108 -25t-68.5 -69t-23.5 -102q0 -49 21.5 -94.5t65.5 -73.5t111 -28z" />
    <glyph glyph-name="seven" unicode="7" horiz-adv-x="557" 
d="M159 0l307 672l-7 11h-400v47h455v-70l-300 -660h-55zM59 553v177h46v-177h-46z" />
    <glyph glyph-name="eight" unicode="8" horiz-adv-x="622" 
d="M311 -17q-79 0 -136 29t-87.5 78t-30.5 108q0 51 21 90t55 64.5t72 33.5v10q-30 11 -58.5 32t-46 53.5t-17.5 77.5q0 57 29 99.5t80.5 66t118.5 23.5t118.5 -23.5t80.5 -66t29 -99.5q0 -45 -18 -77.5t-45.5 -53.5t-59.5 -32v-10q39 -8 73 -33.5t55 -65t21 -89.5
q0 -59 -30.5 -108t-87.5 -78t-136 -29zM311 31q65 0 109.5 22t68 60.5t23.5 85.5q0 49 -23.5 87.5t-68.5 60.5t-109 22q-65 0 -110 -22t-68.5 -60.5t-23.5 -87.5q0 -47 23.5 -85.5t68.5 -60.5t110 -22zM311 413q78 0 126.5 38t48.5 107q0 68 -47.5 105.5t-127.5 37.5
q-81 0 -128.5 -38t-47.5 -105q0 -69 48.5 -107t127.5 -38z" />
    <glyph glyph-name="nine" unicode="9" horiz-adv-x="649" 
d="M307 747q66 0 115 -22.5t81 -66t47.5 -107t15.5 -144.5v-36q0 -183 -80 -279.5t-245 -96.5q-30 0 -57.5 2t-57.5 7v47q31 -4 60 -6t58 -2q97 0 157.5 38.5t88.5 112.5t28 180v97l16 30q-1 -72 -28.5 -126t-79.5 -84.5t-126 -30.5q-78 0 -131.5 32.5t-81 87t-27.5 121.5
t27.5 123t83 89.5t136.5 33.5zM307 699q-65 0 -108 -27t-65 -71.5t-22 -99.5t21.5 -99t64 -69.5t107.5 -25.5q63 0 108 25t68.5 69t23.5 102q0 49 -21.5 94.5t-65.5 73.5t-111 28z" />
    <glyph glyph-name="colon" unicode=":" horiz-adv-x="254" 
d="M92 0v77h70v-77h-70zM92 383v77h70v-77h-70z" />
    <glyph glyph-name="semicolon" unicode=";" horiz-adv-x="254" 
d="M92 -150l-43 17l81 223l45 -17zM97 383v77h70v-77h-70z" />
    <glyph glyph-name="less" unicode="&#x3c;" horiz-adv-x="583" 
d="M502 520v-47l-421 -149v46zM81 333l421 -149v-46l-421 151v44zM119 352v-46h-25v46h25z" />
    <glyph glyph-name="equal" unicode="=" horiz-adv-x="586" 
d="M79 393v44h428v-44h-428zM79 229v44h428v-44h-428z" />
    <glyph glyph-name="greater" unicode="&#x3e;" horiz-adv-x="583" 
d="M81 139v47l421 149v-46zM502 326l-421 149v46l421 -151v-44zM464 307v46h25v-46h-25z" />
    <glyph glyph-name="question" unicode="?" horiz-adv-x="544" 
d="M216 186v185h47q80 0 123 47t43 118q0 49 -20 86.5t-56.5 58t-85.5 20.5q-50 0 -88.5 -22.5t-60 -62t-21.5 -93.5h-50q0 64 26.5 115t76 81t117.5 30q66 0 114 -28.5t74 -76t26 -103.5v-11q0 -54 -25 -101.5t-75.5 -76t-125.5 -28.5l15 29l-1 -167h-53zM207 0v77h71v-77
h-71z" />
    <glyph glyph-name="at" unicode="@" horiz-adv-x="1118" 
d="M564 -238q-108 0 -197.5 35t-153.5 100t-99 155.5t-35 200.5q0 109 35.5 199.5t100.5 157t155 103t199 36.5q100 0 186.5 -30t152 -87t102 -139t36.5 -187q0 -88 -25 -153.5t-68.5 -102t-99.5 -36.5q-37 0 -68 16.5t-49.5 51t-18.5 89.5v61h20q-4 -72 -31.5 -119.5
t-71 -70.5t-97.5 -23q-60 0 -107.5 30.5t-75 82t-27.5 116.5v12q0 65 27.5 115t75.5 78.5t108 28.5q55 0 99 -24t71.5 -68.5t31.5 -108.5h-23v191h44v-300q0 -44 13.5 -68t34.5 -34t43 -10q41 0 74 29.5t51.5 84t18.5 131.5q0 95 -33 169t-91 125t-135.5 77t-166.5 26
q-98 0 -179.5 -32.5t-139.5 -93t-90 -142.5t-32 -182q0 -133 54.5 -233t152.5 -155t228 -55q30 0 57 3t53 9v-48q-26 -5 -52 -8t-58 -3zM543 65q45 0 83.5 20t61.5 61t23 101v17q0 58 -24 96t-62 57t-82 19q-48 0 -85.5 -22t-58.5 -63t-21 -97q0 -57 21 -99.5t58.5 -66
t85.5 -23.5z" />
    <glyph glyph-name="A" unicode="A" horiz-adv-x="741" 
d="M37 0l275 730h108l284 -730h-56l-271 699l33 -18h-91l34 18l-262 -699h-54zM168 246l19 49h362l19 -49h-400z" />
    <glyph glyph-name="B" unicode="B" horiz-adv-x="667" 
d="M159 -3v49h223q71 0 111 42t40 108q0 67 -39 108.5t-112 41.5h-223v38h214q64 0 112 -20.5t75.5 -61.5t27.5 -101v-10q0 -56 -23.5 -99.5t-71.5 -69t-120 -25.5h-214zM122 -3v736h54v-736h-54zM159 356v38h196q76 0 112 40.5t36 104.5q0 63 -36 104t-112 41h-196v49h186
q108 0 160.5 -51.5t52.5 -136.5v-10q0 -59 -26 -99t-73.5 -60t-113.5 -20h-186z" />
    <glyph glyph-name="C" unicode="C" horiz-adv-x="793" 
d="M427 -17q-95 0 -164 34.5t-112.5 90t-64.5 122t-21 129.5v15q0 68 21.5 134.5t65 121t110.5 87t158 32.5q89 0 156.5 -32.5t108.5 -91t50 -136.5h-55q-9 68 -45 115t-91.5 71t-123.5 24q-74 0 -130 -26.5t-94 -73t-57 -106.5t-19 -127q0 -62 19 -122t57 -107t95.5 -75.5
t135.5 -28.5q106 0 178.5 54.5t88.5 155.5h55q-11 -76 -52.5 -134.5t-109.5 -92t-160 -33.5z" />
    <glyph glyph-name="D" unicode="D" horiz-adv-x="800" 
d="M157 -3v50h216q81 0 140.5 26t98.5 71t58.5 102.5t19.5 119.5q0 65 -19.5 122t-59.5 101t-99 69t-139 25h-216v50h210q97 0 168 -30.5t117.5 -81.5t69.5 -115t23 -132v-16q0 -65 -22 -129.5t-68.5 -116.5t-117.5 -83.5t-170 -31.5h-210zM122 -3v736h54v-736h-54z" />
    <glyph glyph-name="E" unicode="E" horiz-adv-x="605" 
d="M122 0v730h54v-730h-54zM159 0v49h376v-49h-376zM159 346v50h340v-50h-340zM159 681v49h364v-49h-364z" />
    <glyph glyph-name="F" unicode="F" horiz-adv-x="560" 
d="M122 0v730h54v-730h-54zM157 348v50l333 1v-49zM157 681v49l353 1v-50h-353z" />
    <glyph glyph-name="G" unicode="G" horiz-adv-x="831" 
d="M434 -17q-95 0 -164.5 32t-115 86t-67.5 121.5t-22 137.5v16q0 69 22.5 135.5t67 120.5t110.5 85.5t153 31.5t154.5 -32.5t108.5 -91t50 -136.5h-55q-8 68 -44 114.5t-91.5 71t-122.5 24.5q-71 0 -126.5 -26t-93.5 -71.5t-58 -105.5t-20 -128t19 -129t58 -107t98 -72.5
t139 -26.5q87 0 154 32.5t104 87.5l-23 -70v216h52v-192q-45 -56 -117.5 -90t-169.5 -34zM407 285v46h382v-46h-382z" />
    <glyph glyph-name="H" unicode="H" horiz-adv-x="808" 
d="M632 0v730h54v-730h-54zM122 0v730h54v-730h-54zM161 336v50h486v-50h-486z" />
    <glyph glyph-name="I" unicode="I" horiz-adv-x="302" 
d="M124 0v730h54v-730h-54z" />
    <glyph glyph-name="J" unicode="J" horiz-adv-x="636" 
d="M285 -17q-73 0 -128 30t-84.5 85t-29.5 132v27h54v-36q0 -87 50 -137.5t138 -50.5t137.5 50.5t49.5 137.5v478h54v-469q0 -77 -29.5 -132t-83.5 -85t-128 -30zM141 681v49h385v-49h-385z" />
    <glyph glyph-name="K" unicode="K" horiz-adv-x="637" 
d="M579 0l-339 348h-81l348 382h63l-324 -355l-3 43l406 -418h-70zM122 0v730h54v-730h-54z" />
    <glyph glyph-name="L" unicode="L" horiz-adv-x="535" 
d="M122 0v730h54v-730h-54zM157 0v49h352v-49h-352z" />
    <glyph glyph-name="M" unicode="M" horiz-adv-x="889" 
d="M122 0v730h67l244 -523h20l244 523h70v-730h-54v668l6 -1l-238 -510h-78l-238 510l7 1v-668h-50z" />
    <glyph glyph-name="N" unicode="N" horiz-adv-x="831" 
d="M122 0v730h94l428 -681h32l-20 -14v695h53v-730h-95l-428 681h-32l20 14v-695h-52z" />
    <glyph glyph-name="O" unicode="O" horiz-adv-x="870" 
d="M436 -17q-92 0 -161.5 33.5t-116 89t-70 121.5t-23.5 132v16q0 69 24.5 135t72 120.5t116 86.5t158.5 32q89 0 157.5 -32t116 -86.5t71.5 -120.5t24 -135v-16q0 -66 -23.5 -132t-69.5 -121.5t-115 -89t-161 -33.5zM436 33q75 0 133.5 28t99 75.5t61 107t20.5 122.5
q0 66 -21.5 126t-62 106.5t-99 73.5t-131.5 27q-74 0 -132.5 -27t-99.5 -73.5t-62.5 -106.5t-21.5 -126q0 -63 21 -122.5t61.5 -107t99 -75.5t134.5 -28z" />
    <glyph glyph-name="P" unicode="P" horiz-adv-x="620" 
d="M157 279v49h176q66 0 106 24t59 64.5t19 89.5t-19 89.5t-59 64.5t-106 24h-176v49h169q85 0 139 -29.5t80 -79.5t26 -112v-12q0 -61 -26 -111.5t-80 -80t-139 -29.5h-169zM122 0v733h54v-733h-54z" />
    <glyph glyph-name="Q" unicode="Q" horiz-adv-x="870" 
d="M569 -206q-50 0 -84.5 15.5t-53 49.5t-18.5 87v72h52v-80q0 -47 24.5 -71t70.5 -24h126v-49h-117zM436 -17q-92 0 -161.5 33.5t-116 89t-70 121.5t-23.5 132v16q0 69 24.5 135t72 120.5t116 86.5t158.5 32q89 0 157.5 -32t116 -86.5t71.5 -120.5t24 -135v-16
q0 -66 -23.5 -132t-69.5 -121.5t-115 -89t-161 -33.5zM436 33q75 0 133.5 28t99 75.5t61 107t20.5 122.5q0 66 -21.5 126t-62 106.5t-99 73.5t-131.5 27q-74 0 -132.5 -27t-99.5 -73.5t-62.5 -106.5t-21.5 -126q0 -63 21 -122.5t61.5 -107t99 -75.5t134.5 -28z" />
    <glyph glyph-name="R" unicode="R" horiz-adv-x="675" 
d="M122 0v733h54v-733h-54zM578 0l-258 320h65l259 -320h-66zM151 289v49h196q63 0 101.5 23t57 62.5t18.5 87.5t-18.5 87.5t-57 62.5t-101.5 23h-196v49h189q80 0 133 -27.5t79 -76t26 -112.5v-12q0 -64 -26 -112.5t-79 -76t-133 -27.5h-189z" />
    <glyph glyph-name="S" unicode="S" horiz-adv-x="704" 
d="M352 -17q-93 0 -155 29.5t-93 81t-31 116.5h54q0 -50 23.5 -90t73.5 -63.5t128 -23.5q73 0 122 21t73.5 57.5t24.5 84.5q0 59 -44 100.5t-134 50.5l-87 7q-91 8 -144 58t-53 131q0 58 27 104.5t81 74t133 27.5q80 0 135 -29.5t83.5 -79t28.5 -111.5h-54q0 45 -20 83.5
t-62.5 62.5t-110.5 24q-66 0 -107 -21.5t-60.5 -57t-19.5 -77.5q0 -60 38.5 -96t110.5 -43l87 -7q73 -6 123.5 -33.5t76.5 -70.5t26 -97q0 -61 -32 -109.5t-93 -76t-149 -27.5z" />
    <glyph glyph-name="T" unicode="T" horiz-adv-x="582" 
d="M264 0v698h54v-698h-54zM30 681v49h522v-49h-522z" />
    <glyph glyph-name="U" unicode="U" horiz-adv-x="800" 
d="M400 -17q-99 0 -164 38.5t-96.5 105.5t-31.5 153v450h54v-457q0 -71 26 -125.5t79 -84.5t133 -30q82 0 134.5 30t78 84t25.5 126v457h54v-450q0 -86 -31 -153t-95.5 -105.5t-165.5 -38.5z" />
    <glyph glyph-name="V" unicode="V" horiz-adv-x="689" 
d="M294 0l-268 730h56l255 -699l-34 18h93l-36 -18l241 699h54l-253 -730h-108z" />
    <glyph glyph-name="W" unicode="W" horiz-adv-x="1022" 
d="M243 0l-206 730h55l193 -696l-23 15h75l-23 -15l160 663h51l-170 -697h-112zM682 0l-185 697h52l176 -663l-25 15h78l-25 -15l178 696h54l-190 -730h-113z" />
    <glyph glyph-name="X" unicode="X" horiz-adv-x="673" 
d="M21 1l284 390l-2 -21l-253 360h60l221 -316h12l226 316h59l-263 -367l1 21l276 -384h-60l-244 340h-12l-245 -340z" />
    <glyph glyph-name="Y" unicode="Y" horiz-adv-x="647" 
d="M263 287l-236 443h56l219 -411l-25 13h103l-25 -13l208 411h54l-226 -443h-128zM301 0v302h53v-302h-53z" />
    <glyph glyph-name="Z" unicode="Z" horiz-adv-x="659" 
d="M77 0v75l472 609l-6 -28l-19 44l15 -17h-456v47h506v-75l-472 -609l5 29l21 -46l-18 18h480v-47h-528z" />
    <glyph glyph-name="bracketleft" unicode="[" horiz-adv-x="363" 
d="M127 -182v958h52v-958h-52zM142 -182v44h156v-44h-156zM142 732v44h156v-44h-156z" />
    <glyph glyph-name="backslash" unicode="\" horiz-adv-x="303" 
d="M236 -60l-219 840h50l218 -840h-49z" />
    <glyph glyph-name="bracketright" unicode="]" horiz-adv-x="363" 
d="M236 -182v958h-52v-958h52zM221 -182v44h-156v-44h156zM221 732v44h-156v-44h156z" />
    <glyph glyph-name="asciicircum" unicode="^" horiz-adv-x="555" 
d="M79 329l162 394h73l161 -394h-46l-141 354h-20l-143 -354h-46z" />
    <glyph glyph-name="underscore" unicode="_" horiz-adv-x="564" 
d="M0 -111v43h564v-43h-564z" />
    <glyph glyph-name="grave" unicode="`" horiz-adv-x="300" 
d="M101 612l-101 189h58l91 -189h-48z" />
    <glyph glyph-name="a" unicode="a" horiz-adv-x="562" 
d="M424 0v157h-10v193q0 63 -33 97.5t-109 34.5q-27 0 -55 -1.5t-53 -3t-45 -4.5v48q20 3 42.5 5t45.5 3t44 1q79 0 126 -20.5t68 -62t21 -105.5v-342h-42zM241 -14q-53 0 -95 19t-66.5 56t-24.5 90q0 51 23.5 87t68 55t107.5 19h165v-43h-170q-68 0 -104.5 -32.5
t-36.5 -85.5q0 -56 39 -88.5t102 -32.5q39 0 76 15t62 50.5t27 95.5l20 -23q-3 -61 -29.5 -101.5t-68.5 -60.5t-95 -20z" />
    <glyph glyph-name="b" unicode="b" horiz-adv-x="679" 
d="M365 -17q-72 0 -125.5 33.5t-83 89.5t-30.5 124h19v-230h-42v730h53v-374l-25 -63q2 75 31.5 130.5t82.5 86.5t123 31q59 0 106 -22.5t79.5 -61t49.5 -87t17 -102.5v-10q0 -52 -16.5 -100.5t-49.5 -88t-80.5 -63t-108.5 -23.5zM360 31q66 0 112.5 32.5t70.5 85.5t24 114
q0 64 -25 116.5t-71 83t-111 30.5q-60 0 -106.5 -26.5t-73.5 -73t-27 -106.5v-51q0 -57 26.5 -103.5t73 -74t107.5 -27.5z" />
    <glyph glyph-name="c" unicode="c" horiz-adv-x="602" 
d="M318 -17q-65 0 -113.5 24t-81 64t-48.5 89t-16 99v10q0 51 16 100t48.5 87.5t81 61.5t113.5 23q63 0 112.5 -23t81 -64.5t39.5 -99.5h-52q-9 60 -56 99.5t-125 39.5q-69 0 -115 -31t-68.5 -83t-22.5 -115q0 -61 23 -114t69 -85.5t114 -32.5q53 0 93.5 19.5t65.5 52
t30 71.5h52q-7 -58 -40 -100.5t-85 -67t-116 -24.5z" />
    <glyph glyph-name="d" unicode="d" horiz-adv-x="679" 
d="M314 -17q-59 0 -106.5 22.5t-80.5 61t-50.5 87.5t-17.5 103v10q0 52 17 100.5t49.5 88t79.5 62.5t108 23q71 0 123.5 -32t82 -87.5t31.5 -126.5l-27 59v376h53v-730h-42v233h20q-2 -75 -33 -131.5t-84.5 -87.5t-122.5 -31zM319 31q61 0 107.5 27t73 73.5t26.5 106.5v52
q0 57 -26.5 103t-73 73t-107.5 27q-66 0 -112 -32t-70.5 -84.5t-24.5 -114.5q0 -64 25 -116.5t71.5 -83.5t110.5 -31z" />
    <glyph glyph-name="e" unicode="e" horiz-adv-x="605" 
d="M317 -17q-67 0 -116 23.5t-80 63t-46.5 89t-15.5 100.5v10q0 52 15.5 100t47 87.5t79 62t110.5 22.5q80 0 134.5 -35.5t82.5 -92.5t28 -120v-36h-472v44h437l-16 -20q0 61 -22.5 109t-66 75.5t-105.5 27.5q-67 0 -112 -31t-67.5 -83t-22.5 -115t22.5 -115.5t68.5 -85
t117 -32.5q76 0 122.5 35t56.5 84h52q-11 -49 -42 -87t-78.5 -59t-110.5 -21z" />
    <glyph glyph-name="f" unicode="f" horiz-adv-x="372" 
d="M118 0v579q0 78 39.5 115t119.5 37h69v-46h-81q-46 0 -70.5 -24.5t-24.5 -68.5v-592h-52zM37 479v42h320v-42h-320z" />
    <glyph glyph-name="g" unicode="g" horiz-adv-x="668" 
d="M303 -205q-35 0 -73 3t-73 9v47q36 -6 75.5 -9.5t74.5 -3.5q80 0 126 20.5t66 67t20 123.5v108l24 73q-1 -72 -30.5 -127t-81.5 -86.5t-122 -31.5q-59 0 -105.5 22.5t-78.5 61t-49 88t-17 101.5v10q0 51 17 99.5t49 87t79 61t107 22.5q73 0 126 -33t81.5 -89t29.5 -124
l-20 27v203h43v-473q0 -94 -26 -150.5t-85 -81.5t-157 -25zM316 37q60 0 106 26.5t72 73t26 105.5v51q0 57 -25.5 102.5t-71.5 72.5t-106 27q-66 0 -111.5 -32t-69.5 -84t-24 -113q0 -63 25 -115.5t70.5 -83t108.5 -30.5z" />
    <glyph glyph-name="h" unicode="h" horiz-adv-x="631" 
d="M103 0v730h53v-390l-19 -34q0 69 21.5 121.5t65.5 82t111 29.5h2q98 0 148 -61.5t50 -167.5v-310h-54v322q0 76 -41 122t-116 46q-77 0 -122.5 -48.5t-45.5 -126.5v-315h-53z" />
    <glyph glyph-name="i" unicode="i" horiz-adv-x="289" 
d="M131 0v525h54v-525h-54zM44 479v46h141v-46h-141zM136 635q-21 0 -32 11.5t-11 29.5q0 19 11 31t33 12q21 0 32 -12t11 -31q0 -18 -10.5 -29.5t-33.5 -11.5z" />
    <glyph glyph-name="j" unicode="j" horiz-adv-x="298" 
d="M-5 -203v49h65q40 0 61 24t21 70v585h52v-571q0 -57 -15 -91t-47 -50t-85 -16h-52zM52 479v46h142v-46h-142zM145 644q-21 0 -32 11.5t-11 30.5q0 18 11 30t33 12q21 0 32 -12t11 -30q0 -19 -10.5 -30.5t-33.5 -11.5z" />
    <glyph glyph-name="k" unicode="k" horiz-adv-x="526" 
d="M454 0l-224 247h-84l256 278h60l-228 -247l1 33l283 -311h-64zM103 0v730h53v-730h-53z" />
    <glyph glyph-name="l" unicode="l" horiz-adv-x="262" 
d="M106 0v730h53v-730h-53zM27 685v45h132v-45h-132z" />
    <glyph glyph-name="m" unicode="m" horiz-adv-x="956" 
d="M103 0v525h42v-215h-12q0 68 20.5 119.5t61.5 80.5t104 29h3q62 0 103 -28.5t60.5 -80t19.5 -120.5h-20q0 68 20.5 119.5t62 80.5t104.5 29h3q62 0 103.5 -28.5t61.5 -80t20 -120.5v-310h-53v322q0 75 -36.5 121.5t-107.5 46.5q-72 0 -113.5 -48t-41.5 -125v-317h-53v322
q0 75 -36.5 121.5t-107.5 46.5q-72 0 -113.5 -48t-41.5 -125v-317h-53z" />
    <glyph glyph-name="n" unicode="n" horiz-adv-x="631" 
d="M103 0v525h42v-215h-12q0 69 22.5 120.5t67 80t110.5 28.5h3q99 0 149 -61.5t50 -167.5v-310h-54v322q0 75 -40.5 121.5t-116.5 46.5q-77 0 -122.5 -47.5t-45.5 -125.5v-317h-53z" />
    <glyph glyph-name="o" unicode="o" horiz-adv-x="661" 
d="M331 -17q-66 0 -117 24t-85.5 63t-52 87.5t-17.5 99.5v10q0 52 18 101t53 88t85.5 62t115.5 23q64 0 114.5 -23t85.5 -62t53.5 -88t18.5 -101v-10q0 -51 -18 -99.5t-52.5 -87.5t-85 -63t-116.5 -24zM331 32q70 0 118.5 32t74 84.5t25.5 113.5q0 63 -26 115.5t-74.5 84
t-117.5 31.5q-68 0 -117.5 -31.5t-75.5 -84t-26 -115.5q0 -61 25.5 -113.5t74.5 -84.5t119 -32z" />
    <glyph glyph-name="p" unicode="p" horiz-adv-x="679" 
d="M103 -200v725h42v-224l-16 -7q1 74 31.5 129.5t83.5 86.5t123 31q60 0 107 -22.5t79.5 -61t49.5 -87.5t17 -103v-10q0 -51 -17 -99.5t-49.5 -88t-79.5 -63t-107 -23.5q-70 0 -123.5 32t-83.5 88.5t-32 128.5l28 -70v-362h-53zM360 31q66 0 112.5 32.5t70.5 85t24 113.5
q0 64 -24.5 116.5t-71 83.5t-111.5 31q-60 0 -106.5 -26.5t-73.5 -73t-27 -106.5v-51q0 -57 26.5 -103.5t73 -74t107.5 -27.5z" />
    <glyph glyph-name="q" unicode="q" horiz-adv-x="679" 
d="M523 -200v360l26 72q-1 -73 -31 -129.5t-83 -88t-123 -31.5q-59 0 -106 23t-80 62t-50 88t-17 103v10q0 51 17 99.5t49.5 87.5t80 62t108.5 23q74 0 127 -33t82.5 -89t30.5 -125l-20 14v217h42v-725h-53zM319 33q61 0 107.5 26.5t73 73.5t26.5 107v51q0 57 -26.5 103
t-73 73.5t-107.5 27.5q-66 0 -112 -32t-70.5 -85t-24.5 -114q0 -64 25 -116.5t71.5 -83.5t110.5 -31z" />
    <glyph glyph-name="r" unicode="r" horiz-adv-x="397" 
d="M103 0v525h42v-222h-8q0 114 51 170t165 56h18v-48h-28q-93 0 -140 -47.5t-47 -139.5v-294h-53z" />
    <glyph glyph-name="s" unicode="s" horiz-adv-x="523" 
d="M260 -15q-98 0 -150.5 45t-53.5 115h52q0 -45 35.5 -78.5t116.5 -33.5q79 0 116 33.5t37 79.5q0 45 -33.5 69t-90.5 30l-62 7q-69 8 -109.5 43t-40.5 95q0 43 22 77t63.5 54t97.5 20q82 0 132.5 -40t51.5 -109h-52q1 43 -33.5 72t-98.5 29q-67 0 -99.5 -31t-32.5 -73
q0 -35 25.5 -60t77.5 -31l62 -7q74 -7 122.5 -43t48.5 -103q0 -45 -24.5 -81t-69.5 -57.5t-110 -21.5z" />
    <glyph glyph-name="t" unicode="t" horiz-adv-x="417" 
d="M278 -5q-49 0 -86 14.5t-57 49.5t-20 94v543h52v-552q0 -48 26.5 -74.5t73.5 -26.5h98v-48h-87zM15 482v43h350v-43h-350z" />
    <glyph glyph-name="u" unicode="u" horiz-adv-x="612" 
d="M282 -15q-95 0 -144 61t-49 165v314h54v-326q0 -73 38.5 -118.5t111.5 -45.5q74 0 117.5 47t43.5 123v320h53v-525h-42v212h12q0 -67 -21.5 -118.5t-63.5 -80t-107 -28.5h-3z" />
    <glyph glyph-name="v" unicode="v" horiz-adv-x="536" 
d="M224 0l-191 525h56l188 -525h-53zM240 0v45h73v-45h-73zM276 0l168 525h52l-169 -525h-51z" />
    <glyph glyph-name="w" unicode="w" horiz-adv-x="805" 
d="M241 0l120 507h80l135 -507h-49l-135 504h16l-120 -504h-47zM205 0v45h72v-45h-72zM192 0l-157 525h53l154 -525h-50zM542 0v45h67v-45h-67zM575 0l137 525h50l-138 -525h-49z" />
    <glyph glyph-name="x" unicode="x" horiz-adv-x="535" 
d="M36 0l201 277l4 -21l-191 269h59l152 -215h12l145 215h56l-177 -259l-5 20l213 -286h-59l-173 234h-13l-168 -234h-56z" />
    <glyph glyph-name="y" unicode="y" horiz-adv-x="521" 
d="M44 -204v49h60q35 0 61 8.5t45.5 30.5t32.5 63l187 578h53l-195 -595q-16 -49 -42.5 -78.5t-63 -42.5t-82.5 -13h-56zM226 13v47h74v-47h-74zM216 13l-191 512h54l189 -512h-52z" />
    <glyph glyph-name="z" unicode="z" horiz-adv-x="481" 
d="M61 0v68l325 415l-6 -17l-12 19l9 -4h-318v44h366v-68l-324 -416l6 17l13 -20l-10 6h331v-44h-380z" />
    <glyph glyph-name="braceleft" unicode="{" horiz-adv-x="363" 
d="M292 -182q-73 0 -117.5 43t-44.5 134v200q0 37 -19 53.5t-44 16.5v65q25 0 44 17t19 54v198q0 91 44.5 134t117.5 43h17v-44h-17q-53 0 -81.5 -30.5t-28.5 -98.5v-191q0 -48 -20.5 -75.5t-58.5 -34.5v-8q38 -7 58.5 -34.5t20.5 -76.5v-192q0 -68 28.5 -98.5t81.5 -30.5
h17v-44h-17z" />
    <glyph glyph-name="bar" unicode="|" horiz-adv-x="371" 
d="M161 -200v930l49 -1v-930z" />
    <glyph glyph-name="braceright" unicode="}" horiz-adv-x="363" 
d="M71 -182q73 0 117.5 43t44.5 134v200q0 37 19 53.5t44 16.5v65q-25 0 -44 17t-19 54v198q0 91 -44.5 134t-117.5 43h-17v-44h17q53 0 81.5 -30.5t28.5 -98.5v-191q0 -48 20.5 -75.5t58.5 -34.5v-8q-38 -7 -58.5 -34.5t-20.5 -76.5v-192q0 -68 -28.5 -98.5t-81.5 -30.5
h-17v-44h17z" />
    <glyph glyph-name="asciitilde" unicode="~" horiz-adv-x="459" 
d="M320 254q-32 0 -55.5 13.5t-43.5 31t-39.5 31t-44.5 13.5q-24 0 -43 -15t-30 -53h-41q5 37 22 62t41.5 38.5t52.5 13.5q32 0 55.5 -13.5t43.5 -31t40 -31t44 -13.5t43.5 15.5t29.5 52.5h41q-5 -36 -22.5 -61.5t-42 -39t-51.5 -13.5z" />
    <glyph glyph-name="uni00A0" unicode="&#xa0;" horiz-adv-x="239" 
 />
    <glyph glyph-name="exclamdown" unicode="&#xa1;" horiz-adv-x="269" 
d="M108 339v-544h54v544h-54zM99 525v-77h71v77h-71z" />
    <glyph glyph-name="cent" unicode="&#xa2;" horiz-adv-x="615" 
d="M323 107q-63 0 -111.5 21t-81 57.5t-49 81.5t-16.5 93v15q0 49 16.5 93.5t49 80t80.5 56.5t111 21q61 0 109 -20t80 -58t44 -91h-52q-13 53 -60 87.5t-121 34.5q-66 0 -111.5 -28t-69 -76t-23.5 -107t23.5 -107.5t69 -77.5t112.5 -29q76 0 126.5 37t61.5 93h52
q-9 -54 -42.5 -94t-85 -61.5t-112.5 -21.5zM299 0v127h49v-127h-49zM299 603v127h49v-127h-49z" />
    <glyph glyph-name="sterling" unicode="&#xa3;" horiz-adv-x="613" 
d="M135 0v493q0 123 60 183.5t177 60.5q24 0 51.5 -2t55 -5t47.5 -7v-47q-21 4 -48.5 7t-56 4.5t-53.5 1.5q-55 0 -96.5 -18t-64 -61t-22.5 -119v-491h-50zM47 0v44h512v-44h-512zM53 327v40h390v-40h-390zM525 0v157h48v-157h-48z" />
    <glyph glyph-name="currency" unicode="&#xa4;" horiz-adv-x="649" 
d="M324 154q-66 0 -114.5 30.5t-74 78t-25.5 101.5v12q0 55 25.5 103t74 77.5t114.5 29.5q67 0 115 -29.5t74 -77.5t26 -103v-12q0 -54 -26 -101.5t-74 -78t-115 -30.5zM94 114l-32 32l99 97l32 -32zM161 497l-99 97l32 32l99 -97zM324 200q52 0 89 22.5t57 61.5t20 86
q0 49 -20 87.5t-57.5 60.5t-88.5 22q-50 0 -87.5 -22t-58 -60.5t-20.5 -87.5q0 -47 20.5 -86t58 -61.5t87.5 -22.5zM555 114l-99 97l32 32l99 -97zM488 497l-32 32l99 97l32 -32z" />
    <glyph glyph-name="yen" unicode="&#xa5;" horiz-adv-x="589" 
d="M254 315l-229 415h57l211 -386l-27 7h74l-29 -7l200 386h54l-217 -415h-94zM275 0v327h50v-327h-50zM58 168v41h485v-41h-485zM58 311v40h485v-40h-485z" />
    <glyph glyph-name="brokenbar" unicode="&#xa6;" horiz-adv-x="371" 
d="M161 365v365h49v-365h-49zM161 -200v349h49v-349h-49z" />
    <glyph glyph-name="section" unicode="&#xa7;" horiz-adv-x="584" 
d="M286 -68q-96 0 -147.5 41t-51.5 107h51q1 -40 35.5 -70t112.5 -30q70 0 104 31t34 77q0 31 -21.5 50.5t-56.5 32.5t-75 25q-35 11 -69.5 23t-63 29t-45.5 43.5t-17 64.5q0 45 21 76t55 51t72 29l51 -25q-37 -4 -71 -20t-55.5 -42.5t-21.5 -65.5q0 -37 24 -59t61 -35.5
t78 -25.5q35 -9 67.5 -20t59.5 -27t42.5 -40t15.5 -60q0 -68 -48.5 -114t-140.5 -46zM345 189l-29 32q66 13 103.5 48.5t37.5 77.5q0 39 -23 61.5t-59.5 36.5t-77.5 25q-34 11 -67 22.5t-60 28.5t-43.5 43t-16.5 65q0 42 21 75t59.5 52t91.5 19q81 0 130.5 -37t50.5 -104
h-52q1 44 -32 69t-96 25t-92 -29.5t-29 -67.5q0 -37 22.5 -59t59 -35.5t76.5 -25.5q34 -9 67.5 -20.5t61 -28.5t43.5 -43.5t16 -66.5q0 -38 -19.5 -71.5t-55.5 -57.5t-88 -34z" />
    <glyph glyph-name="dieresis" unicode="&#xa8;" horiz-adv-x="300" 
d="M44 651q-22 0 -33 12t-11 30t11 30t33 12q23 0 34 -12t11 -30t-11 -30t-34 -12zM237 651q-22 0 -33 12t-11 30t11 30t33 12q23 0 34 -12t11 -30t-11 -30t-34 -12z" />
    <glyph glyph-name="copyright" unicode="&#xa9;" horiz-adv-x="729" 
d="M364 127q-73 0 -130.5 25t-96.5 68t-59 97.5t-20 114.5v12q0 60 20.5 115t59.5 97.5t96 67.5t130 25q74 0 131 -25t96 -67.5t59.5 -97.5t20.5 -115v-12q0 -60 -20.5 -114.5t-59 -97.5t-95.5 -68t-132 -25zM364 163q85 0 144.5 37.5t91 100t31.5 137.5q0 76 -31.5 138
t-91 99t-144.5 37q-84 0 -143.5 -37t-91 -99t-31.5 -138q0 -75 31.5 -137.5t91 -100t143.5 -37.5zM370 259q-53 0 -88 26t-52 66.5t-17 82.5v11q0 45 17.5 84t53 62.5t86.5 23.5q57 0 95.5 -32.5t44.5 -90.5h-41q-4 38 -28.5 61t-70.5 23q-58 0 -86.5 -37.5t-28.5 -98.5
q0 -39 12.5 -71.5t37.5 -51.5t65 -19q44 0 70.5 23t30.5 59h41q-5 -55 -45.5 -88t-96.5 -33z" />
    <glyph glyph-name="ordfeminine" unicode="&#xaa;" horiz-adv-x="389" 
d="M284 358v108h-8v128q0 40 -20 62.5t-67 22.5q-17 0 -35.5 -1t-37 -2.5t-34.5 -4.5l-1 43q13 2 29 4t33 3t32 1q58 0 90.5 -16.5t45 -46t12.5 -69.5v-232h-39zM164 348q-53 0 -88.5 30t-35.5 84q0 35 16.5 60t47.5 37.5t74 12.5h102v-33h-105q-41 0 -63.5 -21t-22.5 -55
q0 -36 24 -56t62 -20q24 0 46.5 9.5t38 32t16.5 61.5l15 -18q-3 -59 -37.5 -91.5t-89.5 -32.5z" />
    <glyph glyph-name="guillemotleft" unicode="&#xab;" horiz-adv-x="475" 
d="M182 39l-126 203v34l127 207h51l-130 -214v-17l131 -213h-53zM365 39l-126 203v34l127 207h51l-130 -214v-17l131 -213h-53z" />
    <glyph glyph-name="logicalnot" unicode="&#xac;" horiz-adv-x="603" 
d="M79 293v44h445v-212l-46 -1v192l24 -23h-423z" />
    <glyph glyph-name="uni00AD" unicode="&#xad;" horiz-adv-x="437" 
d="M80 255v46h277v-46h-277z" />
    <glyph glyph-name="registered" unicode="&#xae;" horiz-adv-x="678" 
d="M339 183q-68 0 -121 23.5t-90 63t-55.5 88.5t-18.5 102v12q0 54 19 103t55.5 88.5t89.5 62.5t121 23t121 -23t89.5 -62.5t55.5 -88.5t19 -103v-12q0 -53 -18.5 -102t-55.5 -88.5t-89.5 -63t-121.5 -23.5zM339 219q79 0 134 34.5t83.5 91t28.5 121.5q0 67 -28.5 122.5
t-83.5 90t-134 34.5t-134 -34.5t-83.5 -90t-28.5 -122.5q0 -65 28.5 -121.5t83.5 -91t134 -34.5zM241 319v303h39v-303h-39zM424 319l-103 127h45l104 -127h-46zM260 432v36h83q36 0 52 15t16 44q0 32 -16 46t-52 14h-83v35h80q52 0 81 -24.5t29 -70.5q0 -44 -29 -69.5
t-81 -25.5h-80z" />
    <glyph glyph-name="macron" unicode="&#xaf;" horiz-adv-x="300" 
d="M0 675v42h243v-42h-243z" />
    <glyph glyph-name="degree" unicode="&#xb0;" horiz-adv-x="331" 
d="M166 465q-38 0 -68.5 17.5t-48 47.5t-17.5 68t17.5 67.5t48 47t68.5 17.5t68 -17.5t47.5 -47t17.5 -67.5t-17.5 -68t-47.5 -47.5t-68 -17.5zM166 504q41 0 66 27t25 67q0 39 -25 66t-66 27t-66 -27t-25 -66q0 -40 25 -67t66 -27z" />
    <glyph glyph-name="plusminus" unicode="&#xb1;" horiz-adv-x="593" 
d="M83 57v44h427v-44h-427zM273 173v434h46v-433zM83 368v44h427v-44h-427z" />
    <glyph glyph-name="uni00B2" unicode="&#xb2;" horiz-adv-x="369" 
d="M54 420v62q0 34 17 55.5t62 41.5l83 36q30 13 47.5 34.5t17.5 54.5q0 42 -25.5 66t-68.5 24q-42 0 -68 -24t-26 -66h-43q0 56 37 92t100 36q64 0 100.5 -35t36.5 -88v-7q0 -43 -24.5 -72.5t-68.5 -48.5l-84 -37q-28 -12 -38.5 -25t-10.5 -33v-38l-13 10h246v-38h-277z
" />
    <glyph glyph-name="uni00B3" unicode="&#xb3;" horiz-adv-x="367" 
d="M179 411q-67 0 -105.5 36.5t-38.5 90.5h43q0 -40 27.5 -65t73.5 -25q47 0 74.5 25.5t27.5 64.5q0 41 -26.5 66t-74.5 25q-19 0 -33 -4.5t-24 -11.5l-24 39l164 124l-4 7h-208v39h259v-51l-169 -127l-19 6q12 6 27 9.5t32 3.5q66 0 104.5 -35t38.5 -87v-7q0 -51 -38.5 -87
t-106.5 -36z" />
    <glyph glyph-name="acute" unicode="&#xb4;" horiz-adv-x="300" 
d="M0 612l85 189h57l-95 -189h-47z" />
    <glyph glyph-name="uni00B5" unicode="&#xb5;" horiz-adv-x="639" 
d="M89 -200v725h54v-326q0 -73 38.5 -118.5t111.5 -45.5q50 0 85.5 22.5t55.5 62t20 88.5v317h53v-427q0 -27 11.5 -39t35.5 -12h49v-47h-48q-30 0 -52 10t-33 32.5t-11 56.5l8 107h8q-1 -66 -22 -116t-62.5 -77.5t-105.5 -27.5h-3q-39 0 -74.5 14.5t-59.5 43t-30 70.5l17 1
q0 -28 1.5 -56t4 -56t2.5 -56v-146h-54z" />
    <glyph glyph-name="paragraph" unicode="&#xb6;" horiz-adv-x="599" 
d="M202 420q-89 0 -138.5 41.5t-49.5 110.5v11q0 69 49.5 110t138.5 41h107v-314h-107zM289 0v734h54v-734h-54zM423 0v734h54v-734h-54z" />
    <glyph glyph-name="periodcentered" unicode="&#xb7;" horiz-adv-x="254" 
d="M92 227v77h70v-77h-70z" />
    <glyph glyph-name="cedilla" unicode="&#xb8;" horiz-adv-x="300" 
d="M125 -229q-19 0 -36 2.5t-31 6.5v40q15 -4 33 -6.5t34 -2.5q34 0 51 12t17 35q0 20 -14.5 32.5t-47.5 12.5h-30v107h36v-95l-21 25h13q50 0 78 -22.5t28 -58.5q0 -39 -28.5 -63.5t-81.5 -24.5z" />
    <glyph glyph-name="uni00B9" unicode="&#xb9;" horiz-adv-x="254" 
d="M129 420v373l12 -10h-107v39h138v-402h-43z" />
    <glyph glyph-name="ordmasculine" unicode="&#xba;" horiz-adv-x="441" 
d="M220 347q-56 0 -96 27t-61 70.5t-21 89.5v8q0 49 21.5 91.5t61.5 69.5t95 27q56 0 96 -27t61.5 -69.5t21.5 -91.5v-8q0 -46 -21 -89.5t-60.5 -70.5t-97.5 -27zM220 390q42 0 71 20.5t44 54.5t15 73q0 41 -15.5 74.5t-44.5 53.5t-70 20q-40 0 -69.5 -20t-44.5 -53.5
t-15 -74.5q0 -39 14.5 -73t44 -54.5t70.5 -20.5z" />
    <glyph glyph-name="guillemotright" unicode="&#xbb;" horiz-adv-x="475" 
d="M293 483l126 -203v-34l-127 -207h-51l130 214v17l-131 213h53zM110 483l126 -203v-34l-127 -207h-51l130 214v17l-131 213h53z" />
    <glyph glyph-name="onequarter" unicode="&#xbc;" horiz-adv-x="774" 
d="M129 255v373l12 -10h-107v39h138v-402h-43zM145 -22l380 702h45l-380 -702h-45zM431 98v50l179 259l34 -22l-169 -244l5 -7h270v-36h-319zM652 0v283h42v-283h-42z" />
    <glyph glyph-name="onehalf" unicode="&#xbd;" horiz-adv-x="816" 
d="M129 255v373l12 -10h-107v39h138v-402h-43zM145 -22l380 702h45l-380 -702h-45zM501 0v62q0 34 17 55.5t62 41.5l83 36q30 13 47.5 34.5t17.5 54.5q0 42 -25.5 66t-68.5 24q-42 0 -68 -24t-26 -66h-43q0 56 37 92t100 36q64 0 100.5 -35t36.5 -88v-7q0 -43 -24.5 -72.5
t-68.5 -48.5l-84 -37q-28 -12 -38.5 -25t-10.5 -33v-38l-13 10h246v-38h-277z" />
    <glyph glyph-name="threequarters" unicode="&#xbe;" horiz-adv-x="880" 
d="M179 246q-67 0 -105.5 36.5t-38.5 90.5h43q0 -40 27.5 -65t73.5 -25q47 0 74.5 25.5t27.5 64.5q0 41 -26.5 66t-74.5 25q-19 0 -33 -4.5t-24 -11.5l-24 39l164 124l-4 7h-208v39h259v-51l-169 -127l-19 6q12 6 27 9.5t32 3.5q66 0 104.5 -35t38.5 -87v-7q0 -51 -38.5 -87
t-106.5 -36zM251 -22l380 702h45l-380 -702h-45zM537 98v50l179 259l34 -22l-169 -244l5 -7h270v-36h-319zM758 0v283h42v-283h-42z" />
    <glyph glyph-name="questiondown" unicode="&#xbf;" horiz-adv-x="544" 
d="M328 339v-185h-47q-80 0 -123 -47t-43 -118q0 -49 20 -86.5t56.5 -58t85.5 -20.5q50 0 88.5 22.5t60 62t21.5 93.5h50q0 -64 -26.5 -115t-76 -81t-117.5 -30q-66 0 -114 28.5t-74 76t-26 103.5v11q0 54 25 101.5t75.5 76t125.5 28.5l-15 -29l1 167h53zM337 525v-77h-71
v77h71z" />
    <glyph glyph-name="Agrave" unicode="&#xc0;" horiz-adv-x="741" 
d="M37 0l275 730h108l284 -730h-56l-271 699l33 -18h-91l34 18l-262 -699h-54zM168 246l19 49h362l19 -49h-400zM346 797l-125 147h63l116 -147h-54z" />
    <glyph glyph-name="Aacute" unicode="&#xc1;" horiz-adv-x="741" 
d="M37 0l275 730h108l284 -730h-56l-271 699l33 -18h-91l34 18l-262 -699h-54zM168 246l19 49h362l19 -49h-400zM330 797l117 147h62l-126 -147h-53z" />
    <glyph glyph-name="Acircumflex" unicode="&#xc2;" horiz-adv-x="741" 
d="M37 0l275 730h108l284 -730h-56l-271 699l33 -18h-91l34 18l-262 -699h-54zM168 246l19 49h362l19 -49h-400zM213 797l117 147h72l118 -147h-53l-92 116h-19l-92 -116h-51z" />
    <glyph glyph-name="Atilde" unicode="&#xc3;" horiz-adv-x="741" 
d="M37 0l275 730h108l284 -730h-56l-271 699l33 -18h-91l34 18l-262 -699h-54zM168 246l19 49h362l19 -49h-400zM437 824q-24 0 -40.5 7.5t-31 16.5t-29 16.5t-35.5 7.5t-41 -10.5t-32 -32.5l-21 30q13 24 38.5 39.5t57.5 15.5q23 0 39.5 -7.5t31 -16.5t29.5 -16.5t35 -7.5
q21 0 40.5 11t31.5 32l22 -30q-15 -24 -39.5 -39.5t-55.5 -15.5z" />
    <glyph glyph-name="Adieresis" unicode="&#xc4;" horiz-adv-x="741" 
d="M37 0l275 730h108l284 -730h-56l-271 699l33 -18h-91l34 18l-262 -699h-54zM168 246l19 49h362l19 -49h-400zM262 825q-21 0 -33.5 12t-12.5 32t12.5 32t33.5 12q22 0 33.5 -12t11.5 -32t-11.5 -32t-33.5 -12zM470 825q-21 0 -33.5 12t-12.5 32t12.5 32t33.5 12
q22 0 33.5 -12t11.5 -32t-11.5 -32t-33.5 -12z" />
    <glyph glyph-name="Aring" unicode="&#xc5;" horiz-adv-x="741" 
d="M37 0l275 730h108l284 -730h-56l-271 699l33 -18h-91l34 18l-262 -699h-54zM168 246l19 49h362l19 -49h-400zM366 776q-53 0 -81.5 31.5t-28.5 71.5t28.5 71t81.5 31q52 0 80.5 -31t28.5 -71t-28.5 -71.5t-80.5 -31.5zM366 811q36 0 54 20t18 48t-18 48t-54 20t-54.5 -20
t-18.5 -48t18.5 -48t54.5 -20z" />
    <glyph glyph-name="AE" unicode="&#xc6;" horiz-adv-x="965" 
d="M21 0l295 730h185v-49h-178l32 18l-280 -699h-54zM173 291l18 50h310v-50h-328zM485 0v730h55v-730h-55zM523 0v49h372v-49h-372zM523 344v49h336v-49h-336zM523 681v49h360v-49h-360z" />
    <glyph glyph-name="Ccedilla" unicode="&#xc7;" horiz-adv-x="793" 
d="M427 -17q-95 0 -164 34.5t-112.5 90t-64.5 122t-21 129.5v15q0 68 21.5 134.5t65 121t110.5 87t158 32.5q89 0 156.5 -32.5t108.5 -91t50 -136.5h-55q-9 68 -45 115t-91.5 71t-123.5 24q-74 0 -130 -26.5t-94 -73t-57 -106.5t-19 -127q0 -62 19 -122t57 -107t95.5 -75.5
t135.5 -28.5q106 0 178.5 54.5t88.5 155.5h55q-11 -76 -52.5 -134.5t-109.5 -92t-160 -33.5zM427 -237q-21 0 -40 3t-33 7v41q15 -4 34.5 -7t38.5 -3q35 0 54 12t19 37q0 21 -17 33.5t-49 12.5h-31v111h39v-98l-22 25h12q51 0 81 -22.5t30 -60.5q0 -42 -30.5 -66.5
t-85.5 -24.5z" />
    <glyph glyph-name="Egrave" unicode="&#xc8;" horiz-adv-x="605" 
d="M122 0v730h54v-730h-54zM159 0v49h376v-49h-376zM159 346v50h340v-50h-340zM159 681v49h364v-49h-364zM303 797l-125 147h63l116 -147h-54z" />
    <glyph glyph-name="Eacute" unicode="&#xc9;" horiz-adv-x="605" 
d="M122 0v730h54v-730h-54zM159 0v49h376v-49h-376zM159 346v50h340v-50h-340zM159 681v49h364v-49h-364zM288 797l117 147h62l-126 -147h-53z" />
    <glyph glyph-name="Ecircumflex" unicode="&#xca;" horiz-adv-x="605" 
d="M122 0v730h54v-730h-54zM159 0v49h376v-49h-376zM159 346v50h340v-50h-340zM159 681v49h364v-49h-364zM171 797l117 147h72l118 -147h-53l-92 116h-19l-92 -116h-51z" />
    <glyph glyph-name="Edieresis" unicode="&#xcb;" horiz-adv-x="605" 
d="M122 0v730h54v-730h-54zM159 0v49h376v-49h-376zM159 346v50h340v-50h-340zM159 681v49h364v-49h-364zM220 825q-21 0 -33.5 12t-12.5 32t12.5 32t33.5 12q22 0 33.5 -12t11.5 -32t-11.5 -32t-33.5 -12zM428 825q-21 0 -33.5 12t-12.5 32t12.5 32t33.5 12q22 0 33.5 -12
t11.5 -32t-11.5 -32t-33.5 -12z" />
    <glyph glyph-name="Igrave" unicode="&#xcc;" horiz-adv-x="302" 
d="M124 0v730h54v-730h-54zM131 797l-125 147h63l116 -147h-54z" />
    <glyph glyph-name="Iacute" unicode="&#xcd;" horiz-adv-x="302" 
d="M124 0v730h54v-730h-54zM115 797l117 147h62l-126 -147h-53z" />
    <glyph glyph-name="Icircumflex" unicode="&#xce;" horiz-adv-x="302" 
d="M124 0v730h54v-730h-54zM-2 797l117 147h72l118 -147h-53l-92 116h-19l-92 -116h-51z" />
    <glyph glyph-name="Idieresis" unicode="&#xcf;" horiz-adv-x="302" 
d="M124 0v730h54v-730h-54zM47 825q-21 0 -33.5 12t-12.5 32t12.5 32t33.5 12q22 0 33.5 -12t11.5 -32t-11.5 -32t-33.5 -12zM255 825q-21 0 -33.5 12t-12.5 32t12.5 32t33.5 12q22 0 33.5 -12t11.5 -32t-11.5 -32t-33.5 -12z" />
    <glyph glyph-name="Eth" unicode="&#xd0;" horiz-adv-x="800" 
d="M157 -3v50h216q81 0 140.5 26t98.5 71t58.5 102.5t19.5 119.5q0 65 -19.5 122t-59.5 101t-99 69t-139 25h-216v50h210q97 0 168 -30.5t117.5 -81.5t69.5 -115t23 -132v-16q0 -65 -22 -129.5t-68.5 -116.5t-117.5 -83.5t-170 -31.5h-210zM122 -3v736h54v-736h-54zM29 342
v47h354v-47h-354z" />
    <glyph glyph-name="Ntilde" unicode="&#xd1;" horiz-adv-x="831" 
d="M122 0v730h94l428 -681h32l-20 -14v695h53v-730h-95l-428 681h-32l20 14v-695h-52zM504 824q-24 0 -40.5 7.5t-31 16.5t-29 16.5t-35.5 7.5t-41 -10.5t-32 -32.5l-21 30q13 24 38.5 39.5t57.5 15.5q23 0 39.5 -7.5t31 -16.5t29.5 -16.5t35 -7.5q21 0 40.5 11t31.5 32
l22 -30q-15 -24 -39.5 -39.5t-55.5 -15.5z" />
    <glyph glyph-name="Ograve" unicode="&#xd2;" horiz-adv-x="870" 
d="M436 -17q-92 0 -161.5 33.5t-116 89t-70 121.5t-23.5 132v16q0 69 24.5 135t72 120.5t116 86.5t158.5 32q89 0 157.5 -32t116 -86.5t71.5 -120.5t24 -135v-16q0 -66 -23.5 -132t-69.5 -121.5t-115 -89t-161 -33.5zM436 33q75 0 133.5 28t99 75.5t61 107t20.5 122.5
q0 66 -21.5 126t-62 106.5t-99 73.5t-131.5 27q-74 0 -132.5 -27t-99.5 -73.5t-62.5 -106.5t-21.5 -126q0 -63 21 -122.5t61.5 -107t99 -75.5t134.5 -28zM415 797l-125 147h63l116 -147h-54z" />
    <glyph glyph-name="Oacute" unicode="&#xd3;" horiz-adv-x="870" 
d="M436 -17q-92 0 -161.5 33.5t-116 89t-70 121.5t-23.5 132v16q0 69 24.5 135t72 120.5t116 86.5t158.5 32q89 0 157.5 -32t116 -86.5t71.5 -120.5t24 -135v-16q0 -66 -23.5 -132t-69.5 -121.5t-115 -89t-161 -33.5zM436 33q75 0 133.5 28t99 75.5t61 107t20.5 122.5
q0 66 -21.5 126t-62 106.5t-99 73.5t-131.5 27q-74 0 -132.5 -27t-99.5 -73.5t-62.5 -106.5t-21.5 -126q0 -63 21 -122.5t61.5 -107t99 -75.5t134.5 -28zM400 797l117 147h62l-126 -147h-53z" />
    <glyph glyph-name="Ocircumflex" unicode="&#xd4;" horiz-adv-x="870" 
d="M436 -17q-92 0 -161.5 33.5t-116 89t-70 121.5t-23.5 132v16q0 69 24.5 135t72 120.5t116 86.5t158.5 32q89 0 157.5 -32t116 -86.5t71.5 -120.5t24 -135v-16q0 -66 -23.5 -132t-69.5 -121.5t-115 -89t-161 -33.5zM436 33q75 0 133.5 28t99 75.5t61 107t20.5 122.5
q0 66 -21.5 126t-62 106.5t-99 73.5t-131.5 27q-74 0 -132.5 -27t-99.5 -73.5t-62.5 -106.5t-21.5 -126q0 -63 21 -122.5t61.5 -107t99 -75.5t134.5 -28zM283 797l117 147h72l118 -147h-53l-92 116h-19l-92 -116h-51z" />
    <glyph glyph-name="Otilde" unicode="&#xd5;" horiz-adv-x="870" 
d="M436 -17q-92 0 -161.5 33.5t-116 89t-70 121.5t-23.5 132v16q0 69 24.5 135t72 120.5t116 86.5t158.5 32q89 0 157.5 -32t116 -86.5t71.5 -120.5t24 -135v-16q0 -66 -23.5 -132t-69.5 -121.5t-115 -89t-161 -33.5zM436 33q75 0 133.5 28t99 75.5t61 107t20.5 122.5
q0 66 -21.5 126t-62 106.5t-99 73.5t-131.5 27q-74 0 -132.5 -27t-99.5 -73.5t-62.5 -106.5t-21.5 -126q0 -63 21 -122.5t61.5 -107t99 -75.5t134.5 -28zM506 824q-24 0 -40.5 7.5t-31 16.5t-29 16.5t-35.5 7.5t-41 -10.5t-32 -32.5l-21 30q13 24 38.5 39.5t57.5 15.5
q23 0 39.5 -7.5t31 -16.5t29.5 -16.5t35 -7.5q21 0 40.5 11t31.5 32l22 -30q-15 -24 -39.5 -39.5t-55.5 -15.5z" />
    <glyph glyph-name="Odieresis" unicode="&#xd6;" horiz-adv-x="870" 
d="M436 -17q-92 0 -161.5 33.5t-116 89t-70 121.5t-23.5 132v16q0 69 24.5 135t72 120.5t116 86.5t158.5 32q89 0 157.5 -32t116 -86.5t71.5 -120.5t24 -135v-16q0 -66 -23.5 -132t-69.5 -121.5t-115 -89t-161 -33.5zM436 33q75 0 133.5 28t99 75.5t61 107t20.5 122.5
q0 66 -21.5 126t-62 106.5t-99 73.5t-131.5 27q-74 0 -132.5 -27t-99.5 -73.5t-62.5 -106.5t-21.5 -126q0 -63 21 -122.5t61.5 -107t99 -75.5t134.5 -28zM332 825q-21 0 -33.5 12t-12.5 32t12.5 32t33.5 12q22 0 33.5 -12t11.5 -32t-11.5 -32t-33.5 -12zM540 825
q-21 0 -33.5 12t-12.5 32t12.5 32t33.5 12q22 0 33.5 -12t11.5 -32t-11.5 -32t-33.5 -12z" />
    <glyph glyph-name="multiply" unicode="&#xd7;" horiz-adv-x="586" 
d="M472 136l31 32l-389 387l-31 -32zM113 137l390 387l-30 30l-390 -387z" />
    <glyph glyph-name="Oslash" unicode="&#xd8;" horiz-adv-x="870" 
d="M124 -39l566 806h56l-566 -806h-56zM436 -17q-92 0 -161.5 33.5t-116 89t-70 121.5t-23.5 132v16q0 69 24.5 135t72 120.5t116 86.5t158.5 32q89 0 157.5 -32t116 -86.5t71.5 -120.5t24 -135v-16q0 -66 -23.5 -132t-69.5 -121.5t-115 -89t-161 -33.5zM436 33
q75 0 133.5 28t99 75.5t61 107t20.5 122.5q0 66 -21.5 126t-62 106.5t-99 73.5t-131.5 27q-74 0 -132.5 -27t-99.5 -73.5t-62.5 -106.5t-21.5 -126q0 -63 21 -122.5t61.5 -107t99 -75.5t134.5 -28z" />
    <glyph glyph-name="Ugrave" unicode="&#xd9;" horiz-adv-x="800" 
d="M400 -17q-99 0 -164 38.5t-96.5 105.5t-31.5 153v450h54v-457q0 -71 26 -125.5t79 -84.5t133 -30q82 0 134.5 30t78 84t25.5 126v457h54v-450q0 -86 -31 -153t-95.5 -105.5t-165.5 -38.5zM380 797l-125 147h63l116 -147h-54z" />
    <glyph glyph-name="Uacute" unicode="&#xda;" horiz-adv-x="800" 
d="M400 -17q-99 0 -164 38.5t-96.5 105.5t-31.5 153v450h54v-457q0 -71 26 -125.5t79 -84.5t133 -30q82 0 134.5 30t78 84t25.5 126v457h54v-450q0 -86 -31 -153t-95.5 -105.5t-165.5 -38.5zM364 797l117 147h62l-126 -147h-53z" />
    <glyph glyph-name="Ucircumflex" unicode="&#xdb;" horiz-adv-x="800" 
d="M400 -17q-99 0 -164 38.5t-96.5 105.5t-31.5 153v450h54v-457q0 -71 26 -125.5t79 -84.5t133 -30q82 0 134.5 30t78 84t25.5 126v457h54v-450q0 -86 -31 -153t-95.5 -105.5t-165.5 -38.5zM247 797l117 147h72l118 -147h-53l-92 116h-19l-92 -116h-51z" />
    <glyph glyph-name="Udieresis" unicode="&#xdc;" horiz-adv-x="800" 
d="M400 -17q-99 0 -164 38.5t-96.5 105.5t-31.5 153v450h54v-457q0 -71 26 -125.5t79 -84.5t133 -30q82 0 134.5 30t78 84t25.5 126v457h54v-450q0 -86 -31 -153t-95.5 -105.5t-165.5 -38.5zM297 825q-21 0 -33.5 12t-12.5 32t12.5 32t33.5 12q22 0 33.5 -12t11.5 -32
t-11.5 -32t-33.5 -12zM505 825q-21 0 -33.5 12t-12.5 32t12.5 32t33.5 12q22 0 33.5 -12t11.5 -32t-11.5 -32t-33.5 -12z" />
    <glyph glyph-name="Yacute" unicode="&#xdd;" horiz-adv-x="647" 
d="M263 287l-236 443h56l219 -411l-25 13h103l-25 -13l208 411h54l-226 -443h-128zM301 0v302h53v-302h-53zM285 797l117 147h62l-126 -147h-53z" />
    <glyph glyph-name="Thorn" unicode="&#xde;" horiz-adv-x="602" 
d="M157 151v49h162q65 0 104 22.5t57.5 61.5t18.5 88t-18.5 87.5t-57.5 61.5t-104 23h-162v49h156q83 0 136 -29.5t78.5 -78t25.5 -108.5v-11q0 -58 -25.5 -107.5t-78.5 -78.5t-136 -29h-156zM122 0v731h54v-731h-54z" />
    <glyph glyph-name="germandbls" unicode="&#xdf;" horiz-adv-x="597" 
d="M324 -11q-25 0 -51.5 3t-46.5 7v47q21 -4 48.5 -7t49.5 -3q87 0 128.5 45.5t41.5 112.5q0 56 -25.5 96.5t-70 62.5t-100.5 22h-41v46h34q45 0 73.5 20t42.5 51.5t14 65.5q0 33 -13.5 64.5t-41.5 51.5t-72 20q-46 0 -76 -23.5t-44.5 -62.5t-14.5 -88v-520h-54v511
q0 107 49 168.5t138 61.5h4q57 0 96.5 -25t60.5 -66.5t21 -90.5q0 -50 -22.5 -89.5t-63 -61t-95.5 -21.5l2 22q76 0 133 -26t88 -75t31 -117q0 -58 -25.5 -103.5t-75.5 -72t-122 -26.5zM45 472v45h84v-45h-84z" />
    <glyph glyph-name="agrave" unicode="&#xe0;" horiz-adv-x="562" 
d="M424 0v157h-10v193q0 63 -33 97.5t-109 34.5q-27 0 -55 -1.5t-53 -3t-45 -4.5v48q20 3 42.5 5t45.5 3t44 1q79 0 126 -20.5t68 -62t21 -105.5v-342h-42zM241 -14q-53 0 -95 19t-66.5 56t-24.5 90q0 51 23.5 87t68 55t107.5 19h165v-43h-170q-68 0 -104.5 -32.5
t-36.5 -85.5q0 -56 39 -88.5t102 -32.5q39 0 76 15t62 50.5t27 95.5l20 -23q-3 -61 -29.5 -101.5t-68.5 -60.5t-95 -20zM259 613l-101 189h58l91 -189h-48z" />
    <glyph glyph-name="aacute" unicode="&#xe1;" horiz-adv-x="562" 
d="M424 0v157h-10v193q0 63 -33 97.5t-109 34.5q-27 0 -55 -1.5t-53 -3t-45 -4.5v48q20 3 42.5 5t45.5 3t44 1q79 0 126 -20.5t68 -62t21 -105.5v-342h-42zM241 -14q-53 0 -95 19t-66.5 56t-24.5 90q0 51 23.5 87t68 55t107.5 19h165v-43h-170q-68 0 -104.5 -32.5
t-36.5 -85.5q0 -56 39 -88.5t102 -32.5q39 0 76 15t62 50.5t27 95.5l20 -23q-3 -61 -29.5 -101.5t-68.5 -60.5t-95 -20zM242 613l85 189h57l-95 -189h-47z" />
    <glyph glyph-name="acircumflex" unicode="&#xe2;" horiz-adv-x="562" 
d="M424 0v157h-10v193q0 63 -33 97.5t-109 34.5q-27 0 -55 -1.5t-53 -3t-45 -4.5v48q20 3 42.5 5t45.5 3t44 1q79 0 126 -20.5t68 -62t21 -105.5v-342h-42zM241 -14q-53 0 -95 19t-66.5 56t-24.5 90q0 51 23.5 87t68 55t107.5 19h165v-43h-170q-68 0 -104.5 -32.5
t-36.5 -85.5q0 -56 39 -88.5t102 -32.5q39 0 76 15t62 50.5t27 95.5l20 -23q-3 -61 -29.5 -101.5t-68.5 -60.5t-95 -20zM133 613l107 189h69l107 -189h-46l-91 158h-8l-91 -158h-47z" />
    <glyph glyph-name="atilde" unicode="&#xe3;" horiz-adv-x="562" 
d="M424 0v157h-10v193q0 63 -33 97.5t-109 34.5q-27 0 -55 -1.5t-53 -3t-45 -4.5v48q20 3 42.5 5t45.5 3t44 1q79 0 126 -20.5t68 -62t21 -105.5v-342h-42zM241 -14q-53 0 -95 19t-66.5 56t-24.5 90q0 51 23.5 87t68 55t107.5 19h165v-43h-170q-68 0 -104.5 -32.5
t-36.5 -85.5q0 -56 39 -88.5t102 -32.5q39 0 76 15t62 50.5t27 95.5l20 -23q-3 -61 -29.5 -101.5t-68.5 -60.5t-95 -20zM339 651q-23 0 -39 7.5t-29.5 17.5t-27.5 18t-32 8q-20 0 -36 -11t-30 -31l-19 32q16 25 38 38.5t48 13.5q23 0 40 -8t30 -18t27 -17.5t32 -7.5
q20 0 36 10.5t30 31.5l19 -33q-16 -25 -38 -38t-49 -13z" />
    <glyph glyph-name="adieresis" unicode="&#xe4;" horiz-adv-x="562" 
d="M424 0v157h-10v193q0 63 -33 97.5t-109 34.5q-27 0 -55 -1.5t-53 -3t-45 -4.5v48q20 3 42.5 5t45.5 3t44 1q79 0 126 -20.5t68 -62t21 -105.5v-342h-42zM241 -14q-53 0 -95 19t-66.5 56t-24.5 90q0 51 23.5 87t68 55t107.5 19h165v-43h-170q-68 0 -104.5 -32.5
t-36.5 -85.5q0 -56 39 -88.5t102 -32.5q39 0 76 15t62 50.5t27 95.5l20 -23q-3 -61 -29.5 -101.5t-68.5 -60.5t-95 -20zM178 652q-22 0 -33 12t-11 30t11 30t33 12q23 0 34 -12t11 -30t-11 -30t-34 -12zM371 652q-22 0 -33 12t-11 30t11 30t33 12q23 0 34 -12t11 -30
t-11 -30t-34 -12z" />
    <glyph glyph-name="aring" unicode="&#xe5;" horiz-adv-x="562" 
d="M424 0v157h-10v193q0 63 -33 97.5t-109 34.5q-27 0 -55 -1.5t-53 -3t-45 -4.5v48q20 3 42.5 5t45.5 3t44 1q79 0 126 -20.5t68 -62t21 -105.5v-342h-42zM241 -14q-53 0 -95 19t-66.5 56t-24.5 90q0 51 23.5 87t68 55t107.5 19h165v-43h-170q-68 0 -104.5 -32.5
t-36.5 -85.5q0 -56 39 -88.5t102 -32.5q39 0 76 15t62 50.5t27 95.5l20 -23q-3 -61 -29.5 -101.5t-68.5 -60.5t-95 -20zM275 603q-48 0 -77.5 30.5t-29.5 74.5t29.5 75t77.5 31t77 -31t29 -75t-29.5 -74.5t-76.5 -30.5zM275 638q32 0 51 20t19 50q0 31 -19 51t-51 20
t-51 -20t-19 -51q0 -30 19 -50t51 -20z" />
    <glyph glyph-name="ae" unicode="&#xe6;" horiz-adv-x="954" 
d="M668 -17q-58 0 -99.5 17t-70.5 45t-46.5 61.5t-26.5 68.5h17q-3 -66 -31 -107.5t-73 -61.5t-99 -20q-52 0 -94 19t-66 56t-24 90q0 51 23.5 86.5t67.5 54.5t107 19h163v-43h-169q-68 0 -103.5 -32t-35.5 -85q0 -56 38.5 -88.5t100.5 -32.5q40 0 76.5 15t61.5 50.5
t27 95.5v159q0 63 -32 97.5t-106 34.5q-29 0 -57 -1.5t-53 -3t-45 -4.5v48q20 3 42 5t45 3t44 1q79 0 124.5 -20.5t64.5 -61.5t19 -106h-33q11 55 40.5 100t78.5 72t118 27q79 0 133 -36t82 -92.5t28 -120.5v-35h-455v44h420l-16 -20q0 61 -22.5 108.5t-65.5 75t-104 27.5
q-66 0 -110.5 -31t-67 -82.5t-22.5 -114.5t22 -115.5t68 -84.5t116 -32q74 0 120.5 34.5t56.5 83.5h52q-11 -50 -41.5 -87.5t-78 -58.5t-109.5 -21z" />
    <glyph glyph-name="ccedilla" unicode="&#xe7;" horiz-adv-x="602" 
d="M318 -17q-65 0 -113.5 24t-81 64t-48.5 89t-16 99v10q0 51 16 100t48.5 87.5t81 61.5t113.5 23q63 0 112.5 -23t81 -64.5t39.5 -99.5h-52q-9 60 -56 99.5t-125 39.5q-69 0 -115 -31t-68.5 -83t-22.5 -115q0 -61 23 -114t69 -85.5t114 -32.5q53 0 93.5 19.5t65.5 52
t30 71.5h52q-7 -58 -40 -100.5t-85 -67t-116 -24.5zM319 -229q-19 0 -36 2.5t-31 6.5v40q15 -4 33 -6.5t34 -2.5q34 0 51 12t17 35q0 20 -14.5 32.5t-47.5 12.5h-30v107h36v-95l-21 25h13q50 0 78 -22.5t28 -58.5q0 -39 -28.5 -63.5t-81.5 -24.5z" />
    <glyph glyph-name="egrave" unicode="&#xe8;" horiz-adv-x="605" 
d="M317 -17q-67 0 -116 23.5t-80 63t-46.5 89t-15.5 100.5v10q0 52 15.5 100t47 87.5t79 62t110.5 22.5q80 0 134.5 -35.5t82.5 -92.5t28 -120v-36h-472v44h437l-16 -20q0 61 -22.5 109t-66 75.5t-105.5 27.5q-67 0 -112 -31t-67.5 -83t-22.5 -115t22.5 -115.5t68.5 -85
t117 -32.5q76 0 122.5 35t56.5 84h52q-11 -49 -42 -87t-78.5 -59t-110.5 -21zM295 612l-101 189h58l91 -189h-48z" />
    <glyph glyph-name="eacute" unicode="&#xe9;" horiz-adv-x="605" 
d="M317 -17q-67 0 -116 23.5t-80 63t-46.5 89t-15.5 100.5v10q0 52 15.5 100t47 87.5t79 62t110.5 22.5q80 0 134.5 -35.5t82.5 -92.5t28 -120v-36h-472v44h437l-16 -20q0 61 -22.5 109t-66 75.5t-105.5 27.5q-67 0 -112 -31t-67.5 -83t-22.5 -115t22.5 -115.5t68.5 -85
t117 -32.5q76 0 122.5 35t56.5 84h52q-11 -49 -42 -87t-78.5 -59t-110.5 -21zM278 612l85 189h57l-95 -189h-47z" />
    <glyph glyph-name="ecircumflex" unicode="&#xea;" horiz-adv-x="605" 
d="M317 -17q-67 0 -116 23.5t-80 63t-46.5 89t-15.5 100.5v10q0 52 15.5 100t47 87.5t79 62t110.5 22.5q80 0 134.5 -35.5t82.5 -92.5t28 -120v-36h-472v44h437l-16 -20q0 61 -22.5 109t-66 75.5t-105.5 27.5q-67 0 -112 -31t-67.5 -83t-22.5 -115t22.5 -115.5t68.5 -85
t117 -32.5q76 0 122.5 35t56.5 84h52q-11 -49 -42 -87t-78.5 -59t-110.5 -21zM169 612l107 189h69l107 -189h-46l-91 158h-8l-91 -158h-47z" />
    <glyph glyph-name="edieresis" unicode="&#xeb;" horiz-adv-x="605" 
d="M317 -17q-67 0 -116 23.5t-80 63t-46.5 89t-15.5 100.5v10q0 52 15.5 100t47 87.5t79 62t110.5 22.5q80 0 134.5 -35.5t82.5 -92.5t28 -120v-36h-472v44h437l-16 -20q0 61 -22.5 109t-66 75.5t-105.5 27.5q-67 0 -112 -31t-67.5 -83t-22.5 -115t22.5 -115.5t68.5 -85
t117 -32.5q76 0 122.5 35t56.5 84h52q-11 -49 -42 -87t-78.5 -59t-110.5 -21zM214 651q-22 0 -33 12t-11 30t11 30t33 12q23 0 34 -12t11 -30t-11 -30t-34 -12zM407 651q-22 0 -33 12t-11 30t11 30t33 12q23 0 34 -12t11 -30t-11 -30t-34 -12z" />
    <glyph glyph-name="igrave" unicode="&#xec;" horiz-adv-x="289" 
d="M131 0v525h54v-525h-54zM44 479v46h141v-46h-141zM104 612l-101 189h58l91 -189h-48z" />
    <glyph glyph-name="iacute" unicode="&#xed;" horiz-adv-x="289" 
d="M131 0v525h54v-525h-54zM44 479v46h141v-46h-141zM87 612l85 189h57l-95 -189h-47z" />
    <glyph glyph-name="icircumflex" unicode="&#xee;" horiz-adv-x="289" 
d="M131 0v525h54v-525h-54zM44 479v46h141v-46h-141zM-22 612l107 189h69l107 -189h-46l-91 158h-8l-91 -158h-47z" />
    <glyph glyph-name="idieresis" unicode="&#xef;" horiz-adv-x="289" 
d="M131 0v525h54v-525h-54zM44 479v46h141v-46h-141zM23 651q-22 0 -33 12t-11 30t11 30t33 12q23 0 34 -12t11 -30t-11 -30t-34 -12zM216 651q-22 0 -33 12t-11 30t11 30t33 12q23 0 34 -12t11 -30t-11 -30t-34 -12z" />
    <glyph glyph-name="eth" unicode="&#xf0;" horiz-adv-x="629" 
d="M314 -17q-64 0 -112.5 21.5t-80 58t-47 82t-15.5 94.5v22q0 67 28 125t84.5 94t138.5 36q70 0 116.5 -25t71.5 -65.5t29 -86.5h-8q-1 112 -21.5 190.5t-64.5 111.5q-25 18 -57 28t-84 10q-25 0 -50 -2t-50 -6v46q23 4 48.5 6t51.5 2q98 0 158.5 -41.5t88.5 -135
t28 -251.5v-16q0 -89 -28 -156.5t-83.5 -104.5t-141.5 -37zM314 31q69 0 114 29t66.5 78.5t21.5 111.5q0 65 -23 114t-68 77t-111 28q-68 0 -113 -28.5t-67 -78t-22 -112.5q0 -61 22 -111t67.5 -79t112.5 -29zM346 547l-22 27l216 174l22 -27z" />
    <glyph glyph-name="ntilde" unicode="&#xf1;" horiz-adv-x="631" 
d="M103 0v525h42v-215h-12q0 69 22.5 120.5t67 80t110.5 28.5h3q99 0 149 -61.5t50 -167.5v-310h-54v322q0 75 -40.5 121.5t-116.5 46.5q-77 0 -122.5 -47.5t-45.5 -125.5v-317h-53zM388 650q-23 0 -39 7.5t-29.5 17.5t-27.5 18t-32 8q-20 0 -36 -11t-30 -31l-19 32
q16 25 38 38.5t48 13.5q23 0 40 -8t30 -18t27 -17.5t32 -7.5q20 0 36 10.5t30 31.5l19 -33q-16 -25 -38 -38t-49 -13z" />
    <glyph glyph-name="ograve" unicode="&#xf2;" horiz-adv-x="661" 
d="M331 -17q-66 0 -117 24t-85.5 63t-52 87.5t-17.5 99.5v10q0 52 18 101t53 88t85.5 62t115.5 23q64 0 114.5 -23t85.5 -62t53.5 -88t18.5 -101v-10q0 -51 -18 -99.5t-52.5 -87.5t-85 -63t-116.5 -24zM331 32q70 0 118.5 32t74 84.5t25.5 113.5q0 63 -26 115.5t-74.5 84
t-117.5 31.5q-68 0 -117.5 -31.5t-75.5 -84t-26 -115.5q0 -61 25.5 -113.5t74.5 -84.5t119 -32zM315 612l-101 189h58l91 -189h-48z" />
    <glyph glyph-name="oacute" unicode="&#xf3;" horiz-adv-x="661" 
d="M331 -17q-66 0 -117 24t-85.5 63t-52 87.5t-17.5 99.5v10q0 52 18 101t53 88t85.5 62t115.5 23q64 0 114.5 -23t85.5 -62t53.5 -88t18.5 -101v-10q0 -51 -18 -99.5t-52.5 -87.5t-85 -63t-116.5 -24zM331 32q70 0 118.5 32t74 84.5t25.5 113.5q0 63 -26 115.5t-74.5 84
t-117.5 31.5q-68 0 -117.5 -31.5t-75.5 -84t-26 -115.5q0 -61 25.5 -113.5t74.5 -84.5t119 -32zM298 612l85 189h57l-95 -189h-47z" />
    <glyph glyph-name="ocircumflex" unicode="&#xf4;" horiz-adv-x="661" 
d="M331 -17q-66 0 -117 24t-85.5 63t-52 87.5t-17.5 99.5v10q0 52 18 101t53 88t85.5 62t115.5 23q64 0 114.5 -23t85.5 -62t53.5 -88t18.5 -101v-10q0 -51 -18 -99.5t-52.5 -87.5t-85 -63t-116.5 -24zM331 32q70 0 118.5 32t74 84.5t25.5 113.5q0 63 -26 115.5t-74.5 84
t-117.5 31.5q-68 0 -117.5 -31.5t-75.5 -84t-26 -115.5q0 -61 25.5 -113.5t74.5 -84.5t119 -32zM189 612l107 189h69l107 -189h-46l-91 158h-8l-91 -158h-47z" />
    <glyph glyph-name="otilde" unicode="&#xf5;" horiz-adv-x="661" 
d="M331 -17q-66 0 -117 24t-85.5 63t-52 87.5t-17.5 99.5v10q0 52 18 101t53 88t85.5 62t115.5 23q64 0 114.5 -23t85.5 -62t53.5 -88t18.5 -101v-10q0 -51 -18 -99.5t-52.5 -87.5t-85 -63t-116.5 -24zM331 32q70 0 118.5 32t74 84.5t25.5 113.5q0 63 -26 115.5t-74.5 84
t-117.5 31.5q-68 0 -117.5 -31.5t-75.5 -84t-26 -115.5q0 -61 25.5 -113.5t74.5 -84.5t119 -32zM395 650q-23 0 -39 7.5t-29.5 17.5t-27.5 18t-32 8q-20 0 -36 -11t-30 -31l-19 32q16 25 38 38.5t48 13.5q23 0 40 -8t30 -18t27 -17.5t32 -7.5q20 0 36 10.5t30 31.5l19 -33
q-16 -25 -38 -38t-49 -13z" />
    <glyph glyph-name="odieresis" unicode="&#xf6;" horiz-adv-x="661" 
d="M331 -17q-66 0 -117 24t-85.5 63t-52 87.5t-17.5 99.5v10q0 52 18 101t53 88t85.5 62t115.5 23q64 0 114.5 -23t85.5 -62t53.5 -88t18.5 -101v-10q0 -51 -18 -99.5t-52.5 -87.5t-85 -63t-116.5 -24zM331 32q70 0 118.5 32t74 84.5t25.5 113.5q0 63 -26 115.5t-74.5 84
t-117.5 31.5q-68 0 -117.5 -31.5t-75.5 -84t-26 -115.5q0 -61 25.5 -113.5t74.5 -84.5t119 -32zM233 651q-22 0 -33 12t-11 30t11 30t33 12q23 0 34 -12t11 -30t-11 -30t-34 -12zM426 651q-22 0 -33 12t-11 30t11 30t33 12q23 0 34 -12t11 -30t-11 -30t-34 -12z" />
    <glyph glyph-name="divide" unicode="&#xf7;" horiz-adv-x="586" 
d="M79 323v44h428v-44h-428zM258 114v76h70v-76h-70zM258 499v76h70v-76h-70z" />
    <glyph glyph-name="oslash" unicode="&#xf8;" horiz-adv-x="661" 
d="M91 -41l435 618h50l-435 -618h-50zM331 -17q-66 0 -117 24t-85.5 63t-52 87.5t-17.5 99.5v10q0 52 18 101t53 88t85.5 62t115.5 23q64 0 114.5 -23t85.5 -62t53.5 -88t18.5 -101v-10q0 -51 -18 -99.5t-52.5 -87.5t-85 -63t-116.5 -24zM331 32q70 0 118.5 32t74 84.5
t25.5 113.5q0 63 -26 115.5t-74.5 84t-117.5 31.5q-68 0 -117.5 -31.5t-75.5 -84t-26 -115.5q0 -61 25.5 -113.5t74.5 -84.5t119 -32z" />
    <glyph glyph-name="ugrave" unicode="&#xf9;" horiz-adv-x="612" 
d="M282 -15q-95 0 -144 61t-49 165v314h54v-326q0 -73 38.5 -118.5t111.5 -45.5q74 0 117.5 47t43.5 123v320h53v-525h-42v212h12q0 -67 -21.5 -118.5t-63.5 -80t-107 -28.5h-3zM282 612l-101 189h58l91 -189h-48z" />
    <glyph glyph-name="uacute" unicode="&#xfa;" horiz-adv-x="612" 
d="M282 -15q-95 0 -144 61t-49 165v314h54v-326q0 -73 38.5 -118.5t111.5 -45.5q74 0 117.5 47t43.5 123v320h53v-525h-42v212h12q0 -67 -21.5 -118.5t-63.5 -80t-107 -28.5h-3zM265 612l85 189h57l-95 -189h-47z" />
    <glyph glyph-name="ucircumflex" unicode="&#xfb;" horiz-adv-x="612" 
d="M282 -15q-95 0 -144 61t-49 165v314h54v-326q0 -73 38.5 -118.5t111.5 -45.5q74 0 117.5 47t43.5 123v320h53v-525h-42v212h12q0 -67 -21.5 -118.5t-63.5 -80t-107 -28.5h-3zM156 612l107 189h69l107 -189h-46l-91 158h-8l-91 -158h-47z" />
    <glyph glyph-name="udieresis" unicode="&#xfc;" horiz-adv-x="612" 
d="M282 -15q-95 0 -144 61t-49 165v314h54v-326q0 -73 38.5 -118.5t111.5 -45.5q74 0 117.5 47t43.5 123v320h53v-525h-42v212h12q0 -67 -21.5 -118.5t-63.5 -80t-107 -28.5h-3zM201 651q-22 0 -33 12t-11 30t11 30t33 12q23 0 34 -12t11 -30t-11 -30t-34 -12zM394 651
q-22 0 -33 12t-11 30t11 30t33 12q23 0 34 -12t11 -30t-11 -30t-34 -12z" />
    <glyph glyph-name="yacute" unicode="&#xfd;" horiz-adv-x="521" 
d="M44 -204v49h60q35 0 61 8.5t45.5 30.5t32.5 63l187 578h53l-195 -595q-16 -49 -42.5 -78.5t-63 -42.5t-82.5 -13h-56zM226 13v47h74v-47h-74zM216 13l-191 512h54l189 -512h-52zM222 612l85 189h57l-95 -189h-47z" />
    <glyph glyph-name="thorn" unicode="&#xfe;" horiz-adv-x="679" 
d="M103 -200v930h53v-372l-26 -60q2 73 32.5 127.5t84 85.5t122.5 31q59 0 106 -22t79.5 -60.5t49 -88t16.5 -103.5v-11q0 -52 -17 -101t-49.5 -87.5t-79.5 -61.5t-107 -23q-70 0 -123.5 32t-83.5 88.5t-32 128.5l28 -70v-363h-53zM360 32q66 0 112.5 32.5t70.5 85.5t24 114
q0 64 -25 116t-71 83t-111 31q-59 0 -106 -26.5t-74 -73t-27 -106.5v-52q0 -57 26.5 -103t73 -73.5t107.5 -27.5z" />
    <glyph glyph-name="ydieresis" unicode="&#xff;" horiz-adv-x="521" 
d="M44 -204v49h60q35 0 61 8.5t45.5 30.5t32.5 63l187 578h53l-195 -595q-16 -49 -42.5 -78.5t-63 -42.5t-82.5 -13h-56zM226 13v47h74v-47h-74zM216 13l-191 512h54l189 -512h-52zM158 651q-22 0 -33 12t-11 30t11 30t33 12q23 0 34 -12t11 -30t-11 -30t-34 -12zM351 651
q-22 0 -33 12t-11 30t11 30t33 12q23 0 34 -12t11 -30t-11 -30t-34 -12z" />
    <glyph glyph-name="Amacron" unicode="&#x100;" horiz-adv-x="741" 
d="M37 0l275 730h108l284 -730h-56l-271 699l33 -18h-91l34 18l-262 -699h-54zM168 246l19 49h362l19 -49h-400zM221 849v41h289v-41h-289z" />
    <glyph glyph-name="amacron" unicode="&#x101;" horiz-adv-x="562" 
d="M424 0v157h-10v193q0 63 -33 97.5t-109 34.5q-27 0 -55 -1.5t-53 -3t-45 -4.5v48q20 3 42.5 5t45.5 3t44 1q79 0 126 -20.5t68 -62t21 -105.5v-342h-42zM241 -14q-53 0 -95 19t-66.5 56t-24.5 90q0 51 23.5 87t68 55t107.5 19h165v-43h-170q-68 0 -104.5 -32.5
t-36.5 -85.5q0 -56 39 -88.5t102 -32.5q39 0 76 15t62 50.5t27 95.5l20 -23q-3 -61 -29.5 -101.5t-68.5 -60.5t-95 -20zM153 676v42h243v-42h-243z" />
    <glyph glyph-name="Abreve" unicode="&#x102;" horiz-adv-x="741" 
d="M37 0l275 730h108l284 -730h-56l-271 699l33 -18h-91l34 18l-262 -699h-54zM168 246l19 49h362l19 -49h-400zM366 790q-51 0 -82.5 20.5t-47.5 55t-19 78.5h41q4 -50 28 -82.5t80 -32.5q57 0 82 32.5t28 82.5h40q-3 -44 -19 -78.5t-48 -55t-83 -20.5z" />
    <glyph glyph-name="abreve" unicode="&#x103;" horiz-adv-x="562" 
d="M424 0v157h-10v193q0 63 -33 97.5t-109 34.5q-27 0 -55 -1.5t-53 -3t-45 -4.5v48q20 3 42.5 5t45.5 3t44 1q79 0 126 -20.5t68 -62t21 -105.5v-342h-42zM241 -14q-53 0 -95 19t-66.5 56t-24.5 90q0 51 23.5 87t68 55t107.5 19h165v-43h-170q-68 0 -104.5 -32.5
t-36.5 -85.5q0 -56 39 -88.5t102 -32.5q39 0 76 15t62 50.5t27 95.5l20 -23q-3 -61 -29.5 -101.5t-68.5 -60.5t-95 -20zM275 608q-66 0 -100 50.5t-37 143.5h42q5 -75 26.5 -115t69.5 -40t69.5 40.5t25.5 114.5h41q-3 -93 -36 -143.5t-101 -50.5z" />
    <glyph glyph-name="Aogonek" unicode="&#x104;" horiz-adv-x="741" 
d="M37 0l275 730h108l284 -730h-56l-271 699l33 -18h-91l34 18l-262 -699h-54zM168 246l19 49h362l19 -49h-400zM667 -247q-45 0 -75 28t-30 75q0 46 25.5 83.5t67.5 69.5l26 19l21 -28l-27 -20q-34 -28 -52.5 -58t-18.5 -62t18 -48.5t47 -16.5q11 0 23.5 2.5t23.5 6.5v-42
q-10 -4 -22.5 -6.5t-26.5 -2.5z" />
    <glyph glyph-name="aogonek" unicode="&#x105;" horiz-adv-x="562" 
d="M424 0v157h-10v193q0 63 -33 97.5t-109 34.5q-27 0 -55 -1.5t-53 -3t-45 -4.5v48q20 3 42.5 5t45.5 3t44 1q79 0 126 -20.5t68 -62t21 -105.5v-342h-42zM241 -14q-53 0 -95 19t-66.5 56t-24.5 90q0 51 23.5 87t68 55t107.5 19h165v-43h-170q-68 0 -104.5 -32.5
t-36.5 -85.5q0 -56 39 -88.5t102 -32.5q39 0 76 15t62 50.5t27 95.5l20 -23q-3 -61 -29.5 -101.5t-68.5 -60.5t-95 -20zM431 -239q-44 0 -72 25t-28 72q0 45 25 80.5t65 67.5l25 21l21 -27l-25 -20q-35 -29 -52 -58t-17 -60t16.5 -45.5t42.5 -14.5q23 0 47 9v-41
q-10 -4 -21.5 -6.5t-26.5 -2.5z" />
    <glyph glyph-name="Cacute" unicode="&#x106;" horiz-adv-x="793" 
d="M427 -17q-95 0 -164 34.5t-112.5 90t-64.5 122t-21 129.5v15q0 68 21.5 134.5t65 121t110.5 87t158 32.5q89 0 156.5 -32.5t108.5 -91t50 -136.5h-55q-9 68 -45 115t-91.5 71t-123.5 24q-74 0 -130 -26.5t-94 -73t-57 -106.5t-19 -127q0 -62 19 -122t57 -107t95.5 -75.5
t135.5 -28.5q106 0 178.5 54.5t88.5 155.5h55q-11 -76 -52.5 -134.5t-109.5 -92t-160 -33.5zM384 797l117 147h62l-126 -147h-53z" />
    <glyph glyph-name="cacute" unicode="&#x107;" horiz-adv-x="602" 
d="M318 -17q-65 0 -113.5 24t-81 64t-48.5 89t-16 99v10q0 51 16 100t48.5 87.5t81 61.5t113.5 23q63 0 112.5 -23t81 -64.5t39.5 -99.5h-52q-9 60 -56 99.5t-125 39.5q-69 0 -115 -31t-68.5 -83t-22.5 -115q0 -61 23 -114t69 -85.5t114 -32.5q53 0 93.5 19.5t65.5 52
t30 71.5h52q-7 -58 -40 -100.5t-85 -67t-116 -24.5zM285 612l85 189h57l-95 -189h-47z" />
    <glyph glyph-name="Ccircumflex" unicode="&#x108;" horiz-adv-x="793" 
d="M427 -17q-95 0 -164 34.5t-112.5 90t-64.5 122t-21 129.5v15q0 68 21.5 134.5t65 121t110.5 87t158 32.5q89 0 156.5 -32.5t108.5 -91t50 -136.5h-55q-9 68 -45 115t-91.5 71t-123.5 24q-74 0 -130 -26.5t-94 -73t-57 -106.5t-19 -127q0 -62 19 -122t57 -107t95.5 -75.5
t135.5 -28.5q106 0 178.5 54.5t88.5 155.5h55q-11 -76 -52.5 -134.5t-109.5 -92t-160 -33.5zM267 797l117 147h72l118 -147h-53l-92 116h-19l-92 -116h-51z" />
    <glyph glyph-name="ccircumflex" unicode="&#x109;" horiz-adv-x="602" 
d="M318 -17q-65 0 -113.5 24t-81 64t-48.5 89t-16 99v10q0 51 16 100t48.5 87.5t81 61.5t113.5 23q63 0 112.5 -23t81 -64.5t39.5 -99.5h-52q-9 60 -56 99.5t-125 39.5q-69 0 -115 -31t-68.5 -83t-22.5 -115q0 -61 23 -114t69 -85.5t114 -32.5q53 0 93.5 19.5t65.5 52
t30 71.5h52q-7 -58 -40 -100.5t-85 -67t-116 -24.5zM176 612l107 189h69l107 -189h-46l-91 158h-8l-91 -158h-47z" />
    <glyph glyph-name="Cdotaccent" unicode="&#x10a;" horiz-adv-x="793" 
d="M427 -17q-95 0 -164 34.5t-112.5 90t-64.5 122t-21 129.5v15q0 68 21.5 134.5t65 121t110.5 87t158 32.5q89 0 156.5 -32.5t108.5 -91t50 -136.5h-55q-9 68 -45 115t-91.5 71t-123.5 24q-74 0 -130 -26.5t-94 -73t-57 -106.5t-19 -127q0 -62 19 -122t57 -107t95.5 -75.5
t135.5 -28.5q106 0 178.5 54.5t88.5 155.5h55q-11 -76 -52.5 -134.5t-109.5 -92t-160 -33.5zM420 825q-21 0 -33.5 12t-12.5 32t12.5 32t33.5 12q22 0 33.5 -12t11.5 -32t-11.5 -32t-33.5 -12z" />
    <glyph glyph-name="cdotaccent" unicode="&#x10b;" horiz-adv-x="602" 
d="M318 -17q-65 0 -113.5 24t-81 64t-48.5 89t-16 99v10q0 51 16 100t48.5 87.5t81 61.5t113.5 23q63 0 112.5 -23t81 -64.5t39.5 -99.5h-52q-9 60 -56 99.5t-125 39.5q-69 0 -115 -31t-68.5 -83t-22.5 -115q0 -61 23 -114t69 -85.5t114 -32.5q53 0 93.5 19.5t65.5 52
t30 71.5h52q-7 -58 -40 -100.5t-85 -67t-116 -24.5zM317 651q-22 0 -33 12t-11 30t11 30t33 12q23 0 34 -12t11 -30t-11 -30t-34 -12z" />
    <glyph glyph-name="Ccaron" unicode="&#x10c;" horiz-adv-x="793" 
d="M427 -17q-95 0 -164 34.5t-112.5 90t-64.5 122t-21 129.5v15q0 68 21.5 134.5t65 121t110.5 87t158 32.5q89 0 156.5 -32.5t108.5 -91t50 -136.5h-55q-9 68 -45 115t-91.5 71t-123.5 24q-74 0 -130 -26.5t-94 -73t-57 -106.5t-19 -127q0 -62 19 -122t57 -107t95.5 -75.5
t135.5 -28.5q106 0 178.5 54.5t88.5 155.5h55q-11 -76 -52.5 -134.5t-109.5 -92t-160 -33.5zM383 797l-114 147h52l89 -116h19l86 116h51l-111 -147h-72z" />
    <glyph glyph-name="ccaron" unicode="&#x10d;" horiz-adv-x="602" 
d="M318 -17q-65 0 -113.5 24t-81 64t-48.5 89t-16 99v10q0 51 16 100t48.5 87.5t81 61.5t113.5 23q63 0 112.5 -23t81 -64.5t39.5 -99.5h-52q-9 60 -56 99.5t-125 39.5q-69 0 -115 -31t-68.5 -83t-22.5 -115q0 -61 23 -114t69 -85.5t114 -32.5q53 0 93.5 19.5t65.5 52
t30 71.5h52q-7 -58 -40 -100.5t-85 -67t-116 -24.5zM285 612l-106 189h48l88 -158h8l82 158h46l-99 -189h-67z" />
    <glyph glyph-name="Dcaron" unicode="&#x10e;" horiz-adv-x="800" 
d="M157 -3v50h216q81 0 140.5 26t98.5 71t58.5 102.5t19.5 119.5q0 65 -19.5 122t-59.5 101t-99 69t-139 25h-216v50h210q97 0 168 -30.5t117.5 -81.5t69.5 -115t23 -132v-16q0 -65 -22 -129.5t-68.5 -116.5t-117.5 -83.5t-170 -31.5h-210zM122 -3v736h54v-736h-54zM349 797
l-114 147h52l89 -116h19l86 116h51l-111 -147h-72z" />
    <glyph glyph-name="dcaron" unicode="&#x10f;" horiz-adv-x="679" 
d="M314 -17q-59 0 -106.5 22.5t-80.5 61t-50.5 87.5t-17.5 103v10q0 52 17 100.5t49.5 88t79.5 62.5t108 23q71 0 123.5 -32t82 -87.5t31.5 -126.5l-27 59v376h53v-730h-42v233h20q-2 -75 -33 -131.5t-84.5 -87.5t-122.5 -31zM319 31q61 0 107.5 27t73 73.5t26.5 106.5v52
q0 57 -26.5 103t-73 73t-107.5 27q-66 0 -112 -32t-70.5 -84.5t-24.5 -114.5q0 -64 25 -116.5t71.5 -83.5t110.5 -31zM666 585v228h47l-5 -228h-42z" />
    <glyph glyph-name="Dcroat" unicode="&#x110;" horiz-adv-x="800" 
d="M157 -3v50h216q81 0 140.5 26t98.5 71t58.5 102.5t19.5 119.5q0 65 -19.5 122t-59.5 101t-99 69t-139 25h-216v50h210q97 0 168 -30.5t117.5 -81.5t69.5 -115t23 -132v-16q0 -65 -22 -129.5t-68.5 -116.5t-117.5 -83.5t-170 -31.5h-210zM122 -3v736h54v-736h-54zM29 342
v47h354v-47h-354z" />
    <glyph glyph-name="dcroat" unicode="&#x111;" horiz-adv-x="679" 
d="M314 -17q-59 0 -106.5 22.5t-80.5 61t-50.5 87.5t-17.5 103v10q0 52 17 100.5t49.5 88t79.5 62.5t108 23q71 0 123.5 -32t82 -87.5t31.5 -126.5l-27 59v376h53v-730h-42v233h20q-2 -75 -33 -131.5t-84.5 -87.5t-122.5 -31zM319 31q61 0 107.5 27t73 73.5t26.5 106.5v52
q0 57 -26.5 103t-73 73t-107.5 27q-66 0 -112 -32t-70.5 -84.5t-24.5 -114.5q0 -64 25 -116.5t71.5 -83.5t110.5 -31zM325 620v40h324v-40h-324z" />
    <glyph glyph-name="Emacron" unicode="&#x112;" horiz-adv-x="605" 
d="M122 0v730h54v-730h-54zM159 0v49h376v-49h-376zM159 346v50h340v-50h-340zM159 681v49h364v-49h-364zM179 849v41h289v-41h-289z" />
    <glyph glyph-name="emacron" unicode="&#x113;" horiz-adv-x="605" 
d="M317 -17q-67 0 -116 23.5t-80 63t-46.5 89t-15.5 100.5v10q0 52 15.5 100t47 87.5t79 62t110.5 22.5q80 0 134.5 -35.5t82.5 -92.5t28 -120v-36h-472v44h437l-16 -20q0 61 -22.5 109t-66 75.5t-105.5 27.5q-67 0 -112 -31t-67.5 -83t-22.5 -115t22.5 -115.5t68.5 -85
t117 -32.5q76 0 122.5 35t56.5 84h52q-11 -49 -42 -87t-78.5 -59t-110.5 -21zM189 675v42h243v-42h-243z" />
    <glyph glyph-name="Ebreve" unicode="&#x114;" horiz-adv-x="605" 
d="M122 0v730h54v-730h-54zM159 0v49h376v-49h-376zM159 346v50h340v-50h-340zM159 681v49h364v-49h-364zM323 790q-51 0 -82.5 20.5t-47.5 55t-19 78.5h41q4 -50 28 -82.5t80 -32.5q57 0 82 32.5t28 82.5h40q-3 -44 -19 -78.5t-48 -55t-83 -20.5z" />
    <glyph glyph-name="ebreve" unicode="&#x115;" horiz-adv-x="605" 
d="M317 -17q-67 0 -116 23.5t-80 63t-46.5 89t-15.5 100.5v10q0 52 15.5 100t47 87.5t79 62t110.5 22.5q80 0 134.5 -35.5t82.5 -92.5t28 -120v-36h-472v44h437l-16 -20q0 61 -22.5 109t-66 75.5t-105.5 27.5q-67 0 -112 -31t-67.5 -83t-22.5 -115t22.5 -115.5t68.5 -85
t117 -32.5q76 0 122.5 35t56.5 84h52q-11 -49 -42 -87t-78.5 -59t-110.5 -21zM311 607q-66 0 -100 50.5t-37 143.5h42q5 -75 26.5 -115t69.5 -40t69.5 40.5t25.5 114.5h41q-3 -93 -36 -143.5t-101 -50.5z" />
    <glyph glyph-name="Edotaccent" unicode="&#x116;" horiz-adv-x="605" 
d="M122 0v730h54v-730h-54zM159 0v49h376v-49h-376zM159 346v50h340v-50h-340zM159 681v49h364v-49h-364zM324 825q-21 0 -33.5 12t-12.5 32t12.5 32t33.5 12q22 0 33.5 -12t11.5 -32t-11.5 -32t-33.5 -12z" />
    <glyph glyph-name="edotaccent" unicode="&#x117;" horiz-adv-x="605" 
d="M317 -17q-67 0 -116 23.5t-80 63t-46.5 89t-15.5 100.5v10q0 52 15.5 100t47 87.5t79 62t110.5 22.5q80 0 134.5 -35.5t82.5 -92.5t28 -120v-36h-472v44h437l-16 -20q0 61 -22.5 109t-66 75.5t-105.5 27.5q-67 0 -112 -31t-67.5 -83t-22.5 -115t22.5 -115.5t68.5 -85
t117 -32.5q76 0 122.5 35t56.5 84h52q-11 -49 -42 -87t-78.5 -59t-110.5 -21zM310 651q-22 0 -33 12t-11 30t11 30t33 12q23 0 34 -12t11 -30t-11 -30t-34 -12z" />
    <glyph glyph-name="Eogonek" unicode="&#x118;" horiz-adv-x="605" 
d="M122 0v730h54v-730h-54zM159 0v49h376v-49h-376zM159 346v50h340v-50h-340zM159 681v49h364v-49h-364zM501 -247q-45 0 -75 28t-30 75q0 46 25.5 83.5t67.5 69.5l26 19l21 -28l-27 -20q-34 -28 -52.5 -58t-18.5 -62t18 -48.5t47 -16.5q11 0 23.5 2.5t23.5 6.5v-42
q-10 -4 -22.5 -6.5t-26.5 -2.5z" />
    <glyph glyph-name="eogonek" unicode="&#x119;" horiz-adv-x="605" 
d="M317 -17q-67 0 -116 23.5t-80 63t-46.5 89t-15.5 100.5v10q0 52 15.5 100t47 87.5t79 62t110.5 22.5q80 0 134.5 -35.5t82.5 -92.5t28 -120v-36h-472v44h437l-16 -20q0 61 -22.5 109t-66 75.5t-105.5 27.5q-67 0 -112 -31t-67.5 -83t-22.5 -115t22.5 -115.5t68.5 -85
t117 -32.5q76 0 122.5 35t56.5 84h52q-11 -49 -42 -87t-78.5 -59t-110.5 -21zM428 -216q-44 0 -72 25t-28 72q0 45 25 80.5t65 67.5l25 21l21 -27l-25 -20q-35 -29 -52 -58t-17 -60t16.5 -45.5t42.5 -14.5q23 0 47 9v-41q-10 -4 -21.5 -6.5t-26.5 -2.5z" />
    <glyph glyph-name="Ecaron" unicode="&#x11a;" horiz-adv-x="605" 
d="M122 0v730h54v-730h-54zM159 0v49h376v-49h-376zM159 346v50h340v-50h-340zM159 681v49h364v-49h-364zM287 797l-114 147h52l89 -116h19l86 116h51l-111 -147h-72z" />
    <glyph glyph-name="ecaron" unicode="&#x11b;" horiz-adv-x="605" 
d="M317 -17q-67 0 -116 23.5t-80 63t-46.5 89t-15.5 100.5v10q0 52 15.5 100t47 87.5t79 62t110.5 22.5q80 0 134.5 -35.5t82.5 -92.5t28 -120v-36h-472v44h437l-16 -20q0 61 -22.5 109t-66 75.5t-105.5 27.5q-67 0 -112 -31t-67.5 -83t-22.5 -115t22.5 -115.5t68.5 -85
t117 -32.5q76 0 122.5 35t56.5 84h52q-11 -49 -42 -87t-78.5 -59t-110.5 -21zM278 612l-106 189h48l88 -158h8l82 158h46l-99 -189h-67z" />
    <glyph glyph-name="Gcircumflex" unicode="&#x11c;" horiz-adv-x="831" 
d="M434 -17q-95 0 -164.5 32t-115 86t-67.5 121.5t-22 137.5v16q0 69 22.5 135.5t67 120.5t110.5 85.5t153 31.5t154.5 -32.5t108.5 -91t50 -136.5h-55q-8 68 -44 114.5t-91.5 71t-122.5 24.5q-71 0 -126.5 -26t-93.5 -71.5t-58 -105.5t-20 -128t19 -129t58 -107t98 -72.5
t139 -26.5q87 0 154 32.5t104 87.5l-23 -70v216h52v-192q-45 -56 -117.5 -90t-169.5 -34zM407 285v46h382v-46h-382zM264 797l117 147h72l118 -147h-53l-92 116h-19l-92 -116h-51z" />
    <glyph glyph-name="gcircumflex" unicode="&#x11d;" horiz-adv-x="668" 
d="M303 -205q-35 0 -73 3t-73 9v47q36 -6 75.5 -9.5t74.5 -3.5q80 0 126 20.5t66 67t20 123.5v108l24 73q-1 -72 -30.5 -127t-81.5 -86.5t-122 -31.5q-59 0 -105.5 22.5t-78.5 61t-49 88t-17 101.5v10q0 51 17 99.5t49 87t79 61t107 22.5q73 0 126 -33t81.5 -89t29.5 -124
l-20 27v203h43v-473q0 -94 -26 -150.5t-85 -81.5t-157 -25zM316 37q60 0 106 26.5t72 73t26 105.5v51q0 57 -25.5 102.5t-71.5 72.5t-106 27q-66 0 -111.5 -32t-69.5 -84t-24 -113q0 -63 25 -115.5t70.5 -83t108.5 -30.5zM196 612l107 189h69l107 -189h-46l-91 158h-8
l-91 -158h-47z" />
    <glyph glyph-name="Gbreve" unicode="&#x11e;" horiz-adv-x="831" 
d="M434 -17q-95 0 -164.5 32t-115 86t-67.5 121.5t-22 137.5v16q0 69 22.5 135.5t67 120.5t110.5 85.5t153 31.5t154.5 -32.5t108.5 -91t50 -136.5h-55q-8 68 -44 114.5t-91.5 71t-122.5 24.5q-71 0 -126.5 -26t-93.5 -71.5t-58 -105.5t-20 -128t19 -129t58 -107t98 -72.5
t139 -26.5q87 0 154 32.5t104 87.5l-23 -70v216h52v-192q-45 -56 -117.5 -90t-169.5 -34zM407 285v46h382v-46h-382zM417 790q-51 0 -82.5 20.5t-47.5 55t-19 78.5h41q4 -50 28 -82.5t80 -32.5q57 0 82 32.5t28 82.5h40q-3 -44 -19 -78.5t-48 -55t-83 -20.5z" />
    <glyph glyph-name="gbreve" unicode="&#x11f;" horiz-adv-x="668" 
d="M303 -205q-35 0 -73 3t-73 9v47q36 -6 75.5 -9.5t74.5 -3.5q80 0 126 20.5t66 67t20 123.5v108l24 73q-1 -72 -30.5 -127t-81.5 -86.5t-122 -31.5q-59 0 -105.5 22.5t-78.5 61t-49 88t-17 101.5v10q0 51 17 99.5t49 87t79 61t107 22.5q73 0 126 -33t81.5 -89t29.5 -124
l-20 27v203h43v-473q0 -94 -26 -150.5t-85 -81.5t-157 -25zM316 37q60 0 106 26.5t72 73t26 105.5v51q0 57 -25.5 102.5t-71.5 72.5t-106 27q-66 0 -111.5 -32t-69.5 -84t-24 -113q0 -63 25 -115.5t70.5 -83t108.5 -30.5zM338 607q-66 0 -100 50.5t-37 143.5h42
q5 -75 26.5 -115t69.5 -40t69.5 40.5t25.5 114.5h41q-3 -93 -36 -143.5t-101 -50.5z" />
    <glyph glyph-name="Gdotaccent" unicode="&#x120;" horiz-adv-x="831" 
d="M434 -17q-95 0 -164.5 32t-115 86t-67.5 121.5t-22 137.5v16q0 69 22.5 135.5t67 120.5t110.5 85.5t153 31.5t154.5 -32.5t108.5 -91t50 -136.5h-55q-8 68 -44 114.5t-91.5 71t-122.5 24.5q-71 0 -126.5 -26t-93.5 -71.5t-58 -105.5t-20 -128t19 -129t58 -107t98 -72.5
t139 -26.5q87 0 154 32.5t104 87.5l-23 -70v216h52v-192q-45 -56 -117.5 -90t-169.5 -34zM407 285v46h382v-46h-382zM418 825q-21 0 -33.5 12t-12.5 32t12.5 32t33.5 12q22 0 33.5 -12t11.5 -32t-11.5 -32t-33.5 -12z" />
    <glyph glyph-name="gdotaccent" unicode="&#x121;" horiz-adv-x="668" 
d="M303 -205q-35 0 -73 3t-73 9v47q36 -6 75.5 -9.5t74.5 -3.5q80 0 126 20.5t66 67t20 123.5v108l24 73q-1 -72 -30.5 -127t-81.5 -86.5t-122 -31.5q-59 0 -105.5 22.5t-78.5 61t-49 88t-17 101.5v10q0 51 17 99.5t49 87t79 61t107 22.5q73 0 126 -33t81.5 -89t29.5 -124
l-20 27v203h43v-473q0 -94 -26 -150.5t-85 -81.5t-157 -25zM316 37q60 0 106 26.5t72 73t26 105.5v51q0 57 -25.5 102.5t-71.5 72.5t-106 27q-66 0 -111.5 -32t-69.5 -84t-24 -113q0 -63 25 -115.5t70.5 -83t108.5 -30.5zM337 651q-22 0 -33 12t-11 30t11 30t33 12
q23 0 34 -12t11 -30t-11 -30t-34 -12z" />
    <glyph glyph-name="uni0122" unicode="&#x122;" horiz-adv-x="831" 
d="M434 -17q-95 0 -164.5 32t-115 86t-67.5 121.5t-22 137.5v16q0 69 22.5 135.5t67 120.5t110.5 85.5t153 31.5t154.5 -32.5t108.5 -91t50 -136.5h-55q-8 68 -44 114.5t-91.5 71t-122.5 24.5q-71 0 -126.5 -26t-93.5 -71.5t-58 -105.5t-20 -128t19 -129t58 -107t98 -72.5
t139 -26.5q87 0 154 32.5t104 87.5l-23 -70v216h52v-192q-45 -56 -117.5 -90t-169.5 -34zM407 285v46h382v-46h-382zM376 -265v32h8q33 0 51 22.5t18 67.5v30l10 -2q-4 -10 -13 -18.5t-25 -8.5q-18 0 -30 11.5t-12 31.5t13 32t33 12q26 0 42.5 -19.5t16.5 -61.5v-5
q0 -63 -28 -93.5t-76 -30.5h-8z" />
    <glyph glyph-name="uni0123" unicode="&#x123;" horiz-adv-x="668" 
d="M303 -205q-35 0 -73 3t-73 9v47q36 -6 75.5 -9.5t74.5 -3.5q80 0 126 20.5t66 67t20 123.5v108l24 73q-1 -72 -30.5 -127t-81.5 -86.5t-122 -31.5q-59 0 -105.5 22.5t-78.5 61t-49 88t-17 101.5v10q0 51 17 99.5t49 87t79 61t107 22.5q73 0 126 -33t81.5 -89t29.5 -124
l-20 27v203h43v-473q0 -94 -26 -150.5t-85 -81.5t-157 -25zM316 37q60 0 106 26.5t72 73t26 105.5v51q0 57 -25.5 102.5t-71.5 72.5t-106 27q-66 0 -111.5 -32t-69.5 -84t-24 -113q0 -63 25 -115.5t70.5 -83t108.5 -30.5zM344 606q-25 0 -41 21t-16 66v4q0 63 26.5 91
t74.5 28h5v-31h-6q-32 0 -49 -20.5t-16 -63.5v-38h-12q4 11 13 19t25 8t27.5 -10.5t11.5 -30.5t-12 -31.5t-31 -11.5z" />
    <glyph glyph-name="Hbar" unicode="&#x126;" horiz-adv-x="808" 
d="M53 580v45h702v-45h-702zM632 0v730h54v-730h-54zM122 0v730h54v-730h-54zM161 336v50h486v-50h-486z" />
    <glyph glyph-name="hbar" unicode="&#x127;" horiz-adv-x="631" 
d="M103 0v730h53v-390l-19 -34q0 69 21.5 121.5t65.5 82t111 29.5h2q98 0 148 -61.5t50 -167.5v-310h-54v322q0 76 -41 122t-116 46q-77 0 -122.5 -48.5t-45.5 -126.5v-315h-53zM30 620v40h324v-40h-324z" />
    <glyph glyph-name="Itilde" unicode="&#x128;" horiz-adv-x="302" 
d="M124 0v730h54v-730h-54zM222 824q-24 0 -40.5 7.5t-31 16.5t-29 16.5t-35.5 7.5t-41 -10.5t-32 -32.5l-21 30q13 24 38.5 39.5t57.5 15.5q23 0 39.5 -7.5t31 -16.5t29.5 -16.5t35 -7.5q21 0 40.5 11t31.5 32l22 -30q-15 -24 -39.5 -39.5t-55.5 -15.5z" />
    <glyph glyph-name="itilde" unicode="&#x129;" horiz-adv-x="289" 
d="M131 0v525h54v-525h-54zM44 479v46h141v-46h-141zM184 650q-23 0 -39 7.5t-29.5 17.5t-27.5 18t-32 8q-20 0 -36 -11t-30 -31l-19 32q16 25 38 38.5t48 13.5q23 0 40 -8t30 -18t27 -17.5t32 -7.5q20 0 36 10.5t30 31.5l19 -33q-16 -25 -38 -38t-49 -13z" />
    <glyph glyph-name="Imacron" unicode="&#x12a;" horiz-adv-x="302" 
d="M124 0v730h54v-730h-54zM6 849v41h289v-41h-289z" />
    <glyph glyph-name="imacron" unicode="&#x12b;" horiz-adv-x="289" 
d="M131 0v525h54v-525h-54zM44 479v46h141v-46h-141zM-2 675v42h243v-42h-243z" />
    <glyph glyph-name="Ibreve" unicode="&#x12c;" horiz-adv-x="302" 
d="M124 0v730h54v-730h-54zM151 790q-51 0 -82.5 20.5t-47.5 55t-19 78.5h41q4 -50 28 -82.5t80 -32.5q57 0 82 32.5t28 82.5h40q-3 -44 -19 -78.5t-48 -55t-83 -20.5z" />
    <glyph glyph-name="ibreve" unicode="&#x12d;" horiz-adv-x="289" 
d="M131 0v525h54v-525h-54zM44 479v46h141v-46h-141zM120 607q-66 0 -100 50.5t-37 143.5h42q5 -75 26.5 -115t69.5 -40t69.5 40.5t25.5 114.5h41q-3 -93 -36 -143.5t-101 -50.5z" />
    <glyph glyph-name="Iogonek" unicode="&#x12e;" horiz-adv-x="302" 
d="M124 0v730h54v-730h-54zM143 -247q-45 0 -75 28t-30 75q0 46 25.5 83.5t67.5 69.5l26 19l21 -28l-27 -20q-34 -28 -52.5 -58t-18.5 -62t18 -48.5t47 -16.5q11 0 23.5 2.5t23.5 6.5v-42q-10 -4 -22.5 -6.5t-26.5 -2.5z" />
    <glyph glyph-name="iogonek" unicode="&#x12f;" horiz-adv-x="289" 
d="M131 0v525h54v-525h-54zM44 479v46h141v-46h-141zM136 635q-21 0 -32 11.5t-11 29.5q0 19 11 31t33 12q21 0 32 -12t11 -31q0 -18 -10.5 -29.5t-33.5 -11.5zM149 -239q-44 0 -72 25t-28 72q0 45 25 80.5t65 67.5l25 21l21 -27l-25 -20q-35 -29 -52 -58t-17 -60
t16.5 -45.5t42.5 -14.5q23 0 47 9v-41q-10 -4 -21.5 -6.5t-26.5 -2.5z" />
    <glyph glyph-name="Idotaccent" unicode="&#x130;" horiz-adv-x="302" 
d="M124 0v730h54v-730h-54zM151 825q-21 0 -33.5 12t-12.5 32t12.5 32t33.5 12q22 0 33.5 -12t11.5 -32t-11.5 -32t-33.5 -12z" />
    <glyph glyph-name="dotlessi" unicode="&#x131;" horiz-adv-x="289" 
d="M131 0v525h54v-525h-54zM44 479v46h141v-46h-141z" />
    <glyph glyph-name="Jcircumflex" unicode="&#x134;" horiz-adv-x="636" 
d="M285 -17q-73 0 -128 30t-84.5 85t-29.5 132v27h54v-36q0 -87 50 -137.5t138 -50.5t137.5 50.5t49.5 137.5v478h54v-469q0 -77 -29.5 -132t-83.5 -85t-128 -30zM141 681v49h385v-49h-385zM182 797l117 147h72l118 -147h-53l-92 116h-19l-92 -116h-51z" />
    <glyph glyph-name="jcircumflex" unicode="&#x135;" horiz-adv-x="298" 
d="M-5 -203v49h65q40 0 61 24t21 70v585h52v-571q0 -57 -15 -91t-47 -50t-85 -16h-52zM52 479v46h142v-46h-142zM-13 612l107 189h69l107 -189h-46l-91 158h-8l-91 -158h-47z" />
    <glyph glyph-name="uni0136" unicode="&#x136;" horiz-adv-x="637" 
d="M579 0l-339 348h-81l348 382h63l-324 -355l-3 43l406 -418h-70zM122 0v730h54v-730h-54zM308 -265v32h8q33 0 51 22.5t18 67.5v30l10 -2q-4 -10 -13 -18.5t-25 -8.5q-18 0 -30 11.5t-12 31.5t13 32t33 12q26 0 42.5 -19.5t16.5 -61.5v-5q0 -63 -28 -93.5t-76 -30.5h-8z
" />
    <glyph glyph-name="uni0137" unicode="&#x137;" horiz-adv-x="526" 
d="M454 0l-224 247h-84l256 278h60l-228 -247l1 33l283 -311h-64zM103 0v730h53v-730h-53zM304 -54q25 0 41 -21t16 -66v-4q0 -63 -26.5 -91t-74.5 -28h-5v31h6q32 0 49 20.5t16 63.5v38h12q-4 -11 -13 -19t-25 -8t-27.5 10.5t-11.5 30.5t12 31.5t31 11.5z" />
    <glyph glyph-name="Lacute" unicode="&#x139;" horiz-adv-x="535" 
d="M122 0v730h54v-730h-54zM157 0v49h352v-49h-352zM113 797l117 147h62l-126 -147h-53z" />
    <glyph glyph-name="lacute" unicode="&#x13a;" horiz-adv-x="262" 
d="M106 0v730h53v-730h-53zM27 685v45h132v-45h-132zM62 797l117 147h62l-126 -147h-53z" />
    <glyph glyph-name="uni013B" unicode="&#x13b;" horiz-adv-x="535" 
d="M122 0v730h54v-730h-54zM157 0v49h352v-49h-352zM264 -266v32h8q33 0 51 22.5t18 67.5v30l10 -2q-4 -10 -13 -18.5t-25 -8.5q-18 0 -30 11.5t-12 31.5t13 32t33 12q26 0 42.5 -19.5t16.5 -61.5v-5q0 -63 -28 -93.5t-76 -30.5h-8z" />
    <glyph glyph-name="uni013C" unicode="&#x13c;" horiz-adv-x="262" 
d="M106 0v730h53v-730h-53zM27 685v45h132v-45h-132zM130 -54q25 0 41 -21t16 -66v-4q0 -63 -26.5 -91t-74.5 -28h-5v31h6q32 0 49 20.5t16 63.5v38h12q-4 -11 -13 -19t-25 -8t-27.5 10.5t-11.5 30.5t12 31.5t31 11.5z" />
    <glyph glyph-name="Lcaron" unicode="&#x13d;" horiz-adv-x="535" 
d="M122 0v730h54v-730h-54zM157 0v49h352v-49h-352zM341 592v228h47l-5 -228h-42z" />
    <glyph glyph-name="lcaron" unicode="&#x13e;" horiz-adv-x="262" 
d="M106 0v730h53v-730h-53zM27 685v45h132v-45h-132zM249 585v228h47l-5 -228h-42z" />
    <glyph glyph-name="Lslash" unicode="&#x141;" horiz-adv-x="535" 
d="M160 311v48l203 118v-48zM37 241v48l100 58v-48zM122 0v730h54v-730h-54zM157 0v49h352v-49h-352z" />
    <glyph glyph-name="lslash" unicode="&#x142;" horiz-adv-x="262" 
d="M32 250v45l85 50v-45zM149 318v44l83 49v-44zM106 0v730h53v-730h-53zM27 685v45h132v-45h-132z" />
    <glyph glyph-name="Nacute" unicode="&#x143;" horiz-adv-x="831" 
d="M122 0v730h94l428 -681h32l-20 -14v695h53v-730h-95l-428 681h-32l20 14v-695h-52zM397 797l117 147h62l-126 -147h-53z" />
    <glyph glyph-name="nacute" unicode="&#x144;" horiz-adv-x="631" 
d="M103 0v525h42v-215h-12q0 69 22.5 120.5t67 80t110.5 28.5h3q99 0 149 -61.5t50 -167.5v-310h-54v322q0 75 -40.5 121.5t-116.5 46.5q-77 0 -122.5 -47.5t-45.5 -125.5v-317h-53zM290 612l85 189h57l-95 -189h-47z" />
    <glyph glyph-name="uni0145" unicode="&#x145;" horiz-adv-x="831" 
d="M122 0v730h94l428 -681h32l-20 -14v695h53v-730h-95l-428 681h-32l20 14v-695h-52zM341 -265v32h8q33 0 51 22.5t18 67.5v30l10 -2q-4 -10 -13 -18.5t-25 -8.5q-18 0 -30 11.5t-12 31.5t13 32t33 12q26 0 42.5 -19.5t16.5 -61.5v-5q0 -63 -28 -93.5t-76 -30.5h-8z" />
    <glyph glyph-name="uni0146" unicode="&#x146;" horiz-adv-x="631" 
d="M103 0v525h42v-215h-12q0 69 22.5 120.5t67 80t110.5 28.5h3q99 0 149 -61.5t50 -167.5v-310h-54v322q0 75 -40.5 121.5t-116.5 46.5q-77 0 -122.5 -47.5t-45.5 -125.5v-317h-53zM316 -54q25 0 41 -21t16 -66v-4q0 -63 -26.5 -91t-74.5 -28h-5v31h6q32 0 49 20.5t16 63.5
v38h12q-4 -11 -13 -19t-25 -8t-27.5 10.5t-11.5 30.5t12 31.5t31 11.5z" />
    <glyph glyph-name="Ncaron" unicode="&#x147;" horiz-adv-x="831" 
d="M122 0v730h94l428 -681h32l-20 -14v695h53v-730h-95l-428 681h-32l20 14v-695h-52zM396 797l-114 147h52l89 -116h19l86 116h51l-111 -147h-72z" />
    <glyph glyph-name="ncaron" unicode="&#x148;" horiz-adv-x="631" 
d="M103 0v525h42v-215h-12q0 69 22.5 120.5t67 80t110.5 28.5h3q99 0 149 -61.5t50 -167.5v-310h-54v322q0 75 -40.5 121.5t-116.5 46.5q-77 0 -122.5 -47.5t-45.5 -125.5v-317h-53zM290 612l-106 189h48l88 -158h8l82 158h46l-99 -189h-67z" />
    <glyph glyph-name="Eng" unicode="&#x14a;" horiz-adv-x="831" 
d="M419 -213v48h111q66 0 96 35.5t30 105.5v40l21 -13h-64l-427 678h-32l20 14v-695h-52v730h94l428 -681h32l-20 -14v695h53v-744q0 -69 -20.5 -113t-61.5 -65t-101 -21h-107z" />
    <glyph glyph-name="eng" unicode="&#x14b;" horiz-adv-x="631" 
d="M318 -201v48h80q41 0 62 24.5t21 72.5v76h54v-62q0 -85 -36 -122t-114 -37h-67zM103 0v525h42v-215h-12q0 69 22.5 120.5t67 80t110.5 28.5h3q99 0 149 -61.5t50 -167.5v-310h-54v322q0 75 -40.5 121.5t-116.5 46.5q-77 0 -122.5 -47.5t-45.5 -125.5v-317h-53z" />
    <glyph glyph-name="Omacron" unicode="&#x14c;" horiz-adv-x="870" 
d="M436 -17q-92 0 -161.5 33.5t-116 89t-70 121.5t-23.5 132v16q0 69 24.5 135t72 120.5t116 86.5t158.5 32q89 0 157.5 -32t116 -86.5t71.5 -120.5t24 -135v-16q0 -66 -23.5 -132t-69.5 -121.5t-115 -89t-161 -33.5zM436 33q75 0 133.5 28t99 75.5t61 107t20.5 122.5
q0 66 -21.5 126t-62 106.5t-99 73.5t-131.5 27q-74 0 -132.5 -27t-99.5 -73.5t-62.5 -106.5t-21.5 -126q0 -63 21 -122.5t61.5 -107t99 -75.5t134.5 -28zM291 849v41h289v-41h-289z" />
    <glyph glyph-name="omacron" unicode="&#x14d;" horiz-adv-x="661" 
d="M331 -17q-66 0 -117 24t-85.5 63t-52 87.5t-17.5 99.5v10q0 52 18 101t53 88t85.5 62t115.5 23q64 0 114.5 -23t85.5 -62t53.5 -88t18.5 -101v-10q0 -51 -18 -99.5t-52.5 -87.5t-85 -63t-116.5 -24zM331 32q70 0 118.5 32t74 84.5t25.5 113.5q0 63 -26 115.5t-74.5 84
t-117.5 31.5q-68 0 -117.5 -31.5t-75.5 -84t-26 -115.5q0 -61 25.5 -113.5t74.5 -84.5t119 -32zM209 675v42h243v-42h-243z" />
    <glyph glyph-name="Obreve" unicode="&#x14e;" horiz-adv-x="870" 
d="M436 -17q-92 0 -161.5 33.5t-116 89t-70 121.5t-23.5 132v16q0 69 24.5 135t72 120.5t116 86.5t158.5 32q89 0 157.5 -32t116 -86.5t71.5 -120.5t24 -135v-16q0 -66 -23.5 -132t-69.5 -121.5t-115 -89t-161 -33.5zM436 33q75 0 133.5 28t99 75.5t61 107t20.5 122.5
q0 66 -21.5 126t-62 106.5t-99 73.5t-131.5 27q-74 0 -132.5 -27t-99.5 -73.5t-62.5 -106.5t-21.5 -126q0 -63 21 -122.5t61.5 -107t99 -75.5t134.5 -28zM435 790q-51 0 -82.5 20.5t-47.5 55t-19 78.5h41q4 -50 28 -82.5t80 -32.5q57 0 82 32.5t28 82.5h40q-3 -44 -19 -78.5
t-48 -55t-83 -20.5z" />
    <glyph glyph-name="obreve" unicode="&#x14f;" horiz-adv-x="661" 
d="M331 -17q-66 0 -117 24t-85.5 63t-52 87.5t-17.5 99.5v10q0 52 18 101t53 88t85.5 62t115.5 23q64 0 114.5 -23t85.5 -62t53.5 -88t18.5 -101v-10q0 -51 -18 -99.5t-52.5 -87.5t-85 -63t-116.5 -24zM331 32q70 0 118.5 32t74 84.5t25.5 113.5q0 63 -26 115.5t-74.5 84
t-117.5 31.5q-68 0 -117.5 -31.5t-75.5 -84t-26 -115.5q0 -61 25.5 -113.5t74.5 -84.5t119 -32zM331 607q-66 0 -100 50.5t-37 143.5h42q5 -75 26.5 -115t69.5 -40t69.5 40.5t25.5 114.5h41q-3 -93 -36 -143.5t-101 -50.5z" />
    <glyph glyph-name="Ohungarumlaut" unicode="&#x150;" horiz-adv-x="870" 
d="M436 -17q-92 0 -161.5 33.5t-116 89t-70 121.5t-23.5 132v16q0 69 24.5 135t72 120.5t116 86.5t158.5 32q89 0 157.5 -32t116 -86.5t71.5 -120.5t24 -135v-16q0 -66 -23.5 -132t-69.5 -121.5t-115 -89t-161 -33.5zM436 33q75 0 133.5 28t99 75.5t61 107t20.5 122.5
q0 66 -21.5 126t-62 106.5t-99 73.5t-131.5 27q-74 0 -132.5 -27t-99.5 -73.5t-62.5 -106.5t-21.5 -126q0 -63 21 -122.5t61.5 -107t99 -75.5t134.5 -28zM477 797l85 147h54l-95 -147h-44zM326 797l85 147h55l-96 -147h-44z" />
    <glyph glyph-name="ohungarumlaut" unicode="&#x151;" horiz-adv-x="661" 
d="M331 -17q-66 0 -117 24t-85.5 63t-52 87.5t-17.5 99.5v10q0 52 18 101t53 88t85.5 62t115.5 23q64 0 114.5 -23t85.5 -62t53.5 -88t18.5 -101v-10q0 -51 -18 -99.5t-52.5 -87.5t-85 -63t-116.5 -24zM331 32q70 0 118.5 32t74 84.5t25.5 113.5q0 63 -26 115.5t-74.5 84
t-117.5 31.5q-68 0 -117.5 -31.5t-75.5 -84t-26 -115.5q0 -61 25.5 -113.5t74.5 -84.5t119 -32zM379 612l69 189h53l-77 -189h-45zM230 612l68 189h53l-76 -189h-45z" />
    <glyph glyph-name="OE" unicode="&#x152;" horiz-adv-x="1064" 
d="M447 -17q-78 0 -139.5 21t-107 57.5t-75.5 84.5t-45 103t-15 110v15q0 73 25 140t73 120t119.5 84t164.5 31q39 0 79 -5.5t67 -13.5h42v-730h-46q-29 -8 -66 -12.5t-76 -4.5zM447 32q38 0 78 6t71 16l-15 -23v664l18 -18q-31 11 -72 16.5t-80 5.5q-103 0 -176 -44.5
t-111.5 -120t-38.5 -168.5q0 -68 20.5 -128t62 -106.5t102.5 -73t141 -26.5zM620 0v49h374v-49h-374zM618 346v50h340v-50h-340zM622 681v49h360v-49h-360z" />
    <glyph glyph-name="oe" unicode="&#x153;" horiz-adv-x="1095" 
d="M330 -17q-66 0 -116.5 23.5t-85 63t-52 88t-17.5 99.5v10q0 52 18 101.5t53 88t85.5 61.5t114.5 23q66 0 115 -22.5t82 -61.5t49.5 -88t16.5 -100h-37q0 52 14 100.5t44.5 87.5t76.5 61.5t109 22.5q80 0 134.5 -35.5t82.5 -92t28 -120.5v-36h-458v44h424l-16 -20
q0 61 -23 109t-66.5 75.5t-105.5 27.5q-66 0 -111 -31.5t-67.5 -83t-22.5 -114.5t22.5 -115.5t68.5 -84.5t116 -32q76 0 122.5 34t57.5 83h51q-16 -74 -76 -120t-155 -46q-67 0 -115 23.5t-77.5 63.5t-43.5 89t-14 99h37q0 -50 -16 -99t-48.5 -89t-82 -63.5t-116.5 -23.5z
M330 32q71 0 119.5 32t74 84.5t25.5 113.5q0 63 -26 115.5t-75 84t-118 31.5q-68 0 -117 -31.5t-75 -83.5t-26 -116q0 -61 25.5 -113.5t74.5 -84.5t118 -32z" />
    <glyph glyph-name="Racute" unicode="&#x154;" horiz-adv-x="675" 
d="M122 0v733h54v-733h-54zM578 0l-258 320h65l259 -320h-66zM151 289v49h196q63 0 101.5 23t57 62.5t18.5 87.5t-18.5 87.5t-57 62.5t-101.5 23h-196v49h189q80 0 133 -27.5t79 -76t26 -112.5v-12q0 -64 -26 -112.5t-79 -76t-133 -27.5h-189zM289 797l117 147h62l-126 -147
h-53z" />
    <glyph glyph-name="racute" unicode="&#x155;" horiz-adv-x="397" 
d="M103 0v525h42v-222h-8q0 114 51 170t165 56h18v-48h-28q-93 0 -140 -47.5t-47 -139.5v-294h-53zM187 612l85 189h57l-95 -189h-47z" />
    <glyph glyph-name="uni0156" unicode="&#x156;" horiz-adv-x="675" 
d="M122 0v733h54v-733h-54zM578 0l-258 320h65l259 -320h-66zM151 289v49h196q63 0 101.5 23t57 62.5t18.5 87.5t-18.5 87.5t-57 62.5t-101.5 23h-196v49h189q80 0 133 -27.5t79 -76t26 -112.5v-12q0 -64 -26 -112.5t-79 -76t-133 -27.5h-189zM310 -265v32h8q33 0 51 22.5
t18 67.5v30l10 -2q-4 -10 -13 -18.5t-25 -8.5q-18 0 -30 11.5t-12 31.5t13 32t33 12q26 0 42.5 -19.5t16.5 -61.5v-5q0 -63 -28 -93.5t-76 -30.5h-8z" />
    <glyph glyph-name="uni0157" unicode="&#x157;" horiz-adv-x="397" 
d="M103 0v525h42v-222h-8q0 114 51 170t165 56h18v-48h-28q-93 0 -140 -47.5t-47 -139.5v-294h-53zM127 -54q25 0 41 -21t16 -66v-4q0 -63 -26.5 -91t-74.5 -28h-5v31h6q32 0 49 20.5t16 63.5v38h12q-4 -11 -13 -19t-25 -8t-27.5 10.5t-11.5 30.5t12 31.5t31 11.5z" />
    <glyph glyph-name="Rcaron" unicode="&#x158;" horiz-adv-x="675" 
d="M122 0v733h54v-733h-54zM578 0l-258 320h65l259 -320h-66zM151 289v49h196q63 0 101.5 23t57 62.5t18.5 87.5t-18.5 87.5t-57 62.5t-101.5 23h-196v49h189q80 0 133 -27.5t79 -76t26 -112.5v-12q0 -64 -26 -112.5t-79 -76t-133 -27.5h-189zM288 797l-114 147h52l89 -116
h19l86 116h51l-111 -147h-72z" />
    <glyph glyph-name="rcaron" unicode="&#x159;" horiz-adv-x="397" 
d="M103 0v525h42v-222h-8q0 114 51 170t165 56h18v-48h-28q-93 0 -140 -47.5t-47 -139.5v-294h-53zM187 612l-106 189h48l88 -158h8l82 158h46l-99 -189h-67z" />
    <glyph glyph-name="Sacute" unicode="&#x15a;" horiz-adv-x="704" 
d="M352 -17q-93 0 -155 29.5t-93 81t-31 116.5h54q0 -50 23.5 -90t73.5 -63.5t128 -23.5q73 0 122 21t73.5 57.5t24.5 84.5q0 59 -44 100.5t-134 50.5l-87 7q-91 8 -144 58t-53 131q0 58 27 104.5t81 74t133 27.5q80 0 135 -29.5t83.5 -79t28.5 -111.5h-54q0 45 -20 83.5
t-62.5 62.5t-110.5 24q-66 0 -107 -21.5t-60.5 -57t-19.5 -77.5q0 -60 38.5 -96t110.5 -43l87 -7q73 -6 123.5 -33.5t76.5 -70.5t26 -97q0 -61 -32 -109.5t-93 -76t-149 -27.5zM315 797l117 147h62l-126 -147h-53z" />
    <glyph glyph-name="sacute" unicode="&#x15b;" horiz-adv-x="523" 
d="M260 -15q-98 0 -150.5 45t-53.5 115h52q0 -45 35.5 -78.5t116.5 -33.5q79 0 116 33.5t37 79.5q0 45 -33.5 69t-90.5 30l-62 7q-69 8 -109.5 43t-40.5 95q0 43 22 77t63.5 54t97.5 20q82 0 132.5 -40t51.5 -109h-52q1 43 -33.5 72t-98.5 29q-67 0 -99.5 -31t-32.5 -73
q0 -35 25.5 -60t77.5 -31l62 -7q74 -7 122.5 -43t48.5 -103q0 -45 -24.5 -81t-69.5 -57.5t-110 -21.5zM227 612l85 189h57l-95 -189h-47z" />
    <glyph glyph-name="Scircumflex" unicode="&#x15c;" horiz-adv-x="704" 
d="M352 -17q-93 0 -155 29.5t-93 81t-31 116.5h54q0 -50 23.5 -90t73.5 -63.5t128 -23.5q73 0 122 21t73.5 57.5t24.5 84.5q0 59 -44 100.5t-134 50.5l-87 7q-91 8 -144 58t-53 131q0 58 27 104.5t81 74t133 27.5q80 0 135 -29.5t83.5 -79t28.5 -111.5h-54q0 45 -20 83.5
t-62.5 62.5t-110.5 24q-66 0 -107 -21.5t-60.5 -57t-19.5 -77.5q0 -60 38.5 -96t110.5 -43l87 -7q73 -6 123.5 -33.5t76.5 -70.5t26 -97q0 -61 -32 -109.5t-93 -76t-149 -27.5zM198 797l117 147h72l118 -147h-53l-92 116h-19l-92 -116h-51z" />
    <glyph glyph-name="scircumflex" unicode="&#x15d;" horiz-adv-x="523" 
d="M260 -15q-98 0 -150.5 45t-53.5 115h52q0 -45 35.5 -78.5t116.5 -33.5q79 0 116 33.5t37 79.5q0 45 -33.5 69t-90.5 30l-62 7q-69 8 -109.5 43t-40.5 95q0 43 22 77t63.5 54t97.5 20q82 0 132.5 -40t51.5 -109h-52q1 43 -33.5 72t-98.5 29q-67 0 -99.5 -31t-32.5 -73
q0 -35 25.5 -60t77.5 -31l62 -7q74 -7 122.5 -43t48.5 -103q0 -45 -24.5 -81t-69.5 -57.5t-110 -21.5zM118 612l107 189h69l107 -189h-46l-91 158h-8l-91 -158h-47z" />
    <glyph glyph-name="Scedilla" unicode="&#x15e;" horiz-adv-x="704" 
d="M352 -17q-93 0 -155 29.5t-93 81t-31 116.5h54q0 -50 23.5 -90t73.5 -63.5t128 -23.5q73 0 122 21t73.5 57.5t24.5 84.5q0 59 -44 100.5t-134 50.5l-87 7q-91 8 -144 58t-53 131q0 58 27 104.5t81 74t133 27.5q80 0 135 -29.5t83.5 -79t28.5 -111.5h-54q0 45 -20 83.5
t-62.5 62.5t-110.5 24q-66 0 -107 -21.5t-60.5 -57t-19.5 -77.5q0 -60 38.5 -96t110.5 -43l87 -7q73 -6 123.5 -33.5t76.5 -70.5t26 -97q0 -61 -32 -109.5t-93 -76t-149 -27.5zM357 -237q-21 0 -40 3t-33 7v41q15 -4 34.5 -7t38.5 -3q35 0 54 12t19 37q0 21 -17 33.5
t-49 12.5h-31v111h39v-98l-22 25h12q51 0 81 -22.5t30 -60.5q0 -42 -30.5 -66.5t-85.5 -24.5z" />
    <glyph glyph-name="scedilla" unicode="&#x15f;" horiz-adv-x="523" 
d="M260 -15q-98 0 -150.5 45t-53.5 115h52q0 -45 35.5 -78.5t116.5 -33.5q79 0 116 33.5t37 79.5q0 45 -33.5 69t-90.5 30l-62 7q-69 8 -109.5 43t-40.5 95q0 43 22 77t63.5 54t97.5 20q82 0 132.5 -40t51.5 -109h-52q1 43 -33.5 72t-98.5 29q-67 0 -99.5 -31t-32.5 -73
q0 -35 25.5 -60t77.5 -31l62 -7q74 -7 122.5 -43t48.5 -103q0 -45 -24.5 -81t-69.5 -57.5t-110 -21.5zM263 -229q-19 0 -36 2.5t-31 6.5v40q15 -4 33 -6.5t34 -2.5q34 0 51 12t17 35q0 20 -14.5 32.5t-47.5 12.5h-30v107h36v-95l-21 25h13q50 0 78 -22.5t28 -58.5
q0 -39 -28.5 -63.5t-81.5 -24.5z" />
    <glyph glyph-name="Scaron" unicode="&#x160;" horiz-adv-x="704" 
d="M352 -17q-93 0 -155 29.5t-93 81t-31 116.5h54q0 -50 23.5 -90t73.5 -63.5t128 -23.5q73 0 122 21t73.5 57.5t24.5 84.5q0 59 -44 100.5t-134 50.5l-87 7q-91 8 -144 58t-53 131q0 58 27 104.5t81 74t133 27.5q80 0 135 -29.5t83.5 -79t28.5 -111.5h-54q0 45 -20 83.5
t-62.5 62.5t-110.5 24q-66 0 -107 -21.5t-60.5 -57t-19.5 -77.5q0 -60 38.5 -96t110.5 -43l87 -7q73 -6 123.5 -33.5t76.5 -70.5t26 -97q0 -61 -32 -109.5t-93 -76t-149 -27.5zM315 797l-114 147h52l89 -116h19l86 116h51l-111 -147h-72z" />
    <glyph glyph-name="scaron" unicode="&#x161;" horiz-adv-x="523" 
d="M260 -15q-98 0 -150.5 45t-53.5 115h52q0 -45 35.5 -78.5t116.5 -33.5q79 0 116 33.5t37 79.5q0 45 -33.5 69t-90.5 30l-62 7q-69 8 -109.5 43t-40.5 95q0 43 22 77t63.5 54t97.5 20q82 0 132.5 -40t51.5 -109h-52q1 43 -33.5 72t-98.5 29q-67 0 -99.5 -31t-32.5 -73
q0 -35 25.5 -60t77.5 -31l62 -7q74 -7 122.5 -43t48.5 -103q0 -45 -24.5 -81t-69.5 -57.5t-110 -21.5zM227 612l-106 189h48l88 -158h8l82 158h46l-99 -189h-67z" />
    <glyph glyph-name="uni0162" unicode="&#x162;" horiz-adv-x="582" 
d="M264 0v698h54v-698h-54zM30 681v49h522v-49h-522zM296 -237q-21 0 -40 3t-33 7v41q15 -4 34.5 -7t38.5 -3q35 0 54 12t19 37q0 21 -17 33.5t-49 12.5h-31v111h39v-98l-22 25h12q51 0 81 -22.5t30 -60.5q0 -42 -30.5 -66.5t-85.5 -24.5z" />
    <glyph glyph-name="uni0163" unicode="&#x163;" horiz-adv-x="417" 
d="M278 -5q-49 0 -86 14.5t-57 49.5t-20 94v543h52v-552q0 -48 26.5 -74.5t73.5 -26.5h98v-48h-87zM15 482v43h350v-43h-350zM240 -229q-19 0 -36 2.5t-31 6.5v40q15 -4 33 -6.5t34 -2.5q34 0 51 12t17 35q0 20 -14.5 32.5t-47.5 12.5h-30v107h36v-95l-21 25h13
q50 0 78 -22.5t28 -58.5q0 -39 -28.5 -63.5t-81.5 -24.5z" />
    <glyph glyph-name="Tcaron" unicode="&#x164;" horiz-adv-x="582" 
d="M264 0v698h54v-698h-54zM30 681v49h522v-49h-522zM254 797l-114 147h52l89 -116h19l86 116h51l-111 -147h-72z" />
    <glyph glyph-name="tcaron" unicode="&#x165;" horiz-adv-x="417" 
d="M278 -5q-49 0 -86 14.5t-57 49.5t-20 94v543h52v-552q0 -48 26.5 -74.5t73.5 -26.5h98v-48h-87zM15 482v43h350v-43h-350zM259 627v228h47l-5 -228h-42z" />
    <glyph glyph-name="Tbar" unicode="&#x166;" horiz-adv-x="582" 
d="M97 348v45h388v-45h-388zM264 0v698h54v-698h-54zM30 681v49h522v-49h-522z" />
    <glyph glyph-name="tbar" unicode="&#x167;" horiz-adv-x="417" 
d="M278 -5q-49 0 -86 14.5t-57 49.5t-20 94v543h52v-552q0 -48 26.5 -74.5t73.5 -26.5h98v-48h-87zM15 482v43h350v-43h-350zM21 270v40h324v-40h-324z" />
    <glyph glyph-name="Utilde" unicode="&#x168;" horiz-adv-x="800" 
d="M400 -17q-99 0 -164 38.5t-96.5 105.5t-31.5 153v450h54v-457q0 -71 26 -125.5t79 -84.5t133 -30q82 0 134.5 30t78 84t25.5 126v457h54v-450q0 -86 -31 -153t-95.5 -105.5t-165.5 -38.5zM471 824q-24 0 -40.5 7.5t-31 16.5t-29 16.5t-35.5 7.5t-41 -10.5t-32 -32.5
l-21 30q13 24 38.5 39.5t57.5 15.5q23 0 39.5 -7.5t31 -16.5t29.5 -16.5t35 -7.5q21 0 40.5 11t31.5 32l22 -30q-15 -24 -39.5 -39.5t-55.5 -15.5z" />
    <glyph glyph-name="utilde" unicode="&#x169;" horiz-adv-x="612" 
d="M282 -15q-95 0 -144 61t-49 165v314h54v-326q0 -73 38.5 -118.5t111.5 -45.5q74 0 117.5 47t43.5 123v320h53v-525h-42v212h12q0 -67 -21.5 -118.5t-63.5 -80t-107 -28.5h-3zM363 650q-23 0 -39 7.5t-29.5 17.5t-27.5 18t-32 8q-20 0 -36 -11t-30 -31l-19 32
q16 25 38 38.5t48 13.5q23 0 40 -8t30 -18t27 -17.5t32 -7.5q20 0 36 10.5t30 31.5l19 -33q-16 -25 -38 -38t-49 -13z" />
    <glyph glyph-name="Umacron" unicode="&#x16a;" horiz-adv-x="800" 
d="M400 -17q-99 0 -164 38.5t-96.5 105.5t-31.5 153v450h54v-457q0 -71 26 -125.5t79 -84.5t133 -30q82 0 134.5 30t78 84t25.5 126v457h54v-450q0 -86 -31 -153t-95.5 -105.5t-165.5 -38.5zM256 849v41h289v-41h-289z" />
    <glyph glyph-name="umacron" unicode="&#x16b;" horiz-adv-x="612" 
d="M282 -15q-95 0 -144 61t-49 165v314h54v-326q0 -73 38.5 -118.5t111.5 -45.5q74 0 117.5 47t43.5 123v320h53v-525h-42v212h12q0 -67 -21.5 -118.5t-63.5 -80t-107 -28.5h-3zM177 675v42h243v-42h-243z" />
    <glyph glyph-name="Ubreve" unicode="&#x16c;" horiz-adv-x="800" 
d="M400 -17q-99 0 -164 38.5t-96.5 105.5t-31.5 153v450h54v-457q0 -71 26 -125.5t79 -84.5t133 -30q82 0 134.5 30t78 84t25.5 126v457h54v-450q0 -86 -31 -153t-95.5 -105.5t-165.5 -38.5zM400 790q-51 0 -82.5 20.5t-47.5 55t-19 78.5h41q4 -50 28 -82.5t80 -32.5
q57 0 82 32.5t28 82.5h40q-3 -44 -19 -78.5t-48 -55t-83 -20.5z" />
    <glyph glyph-name="ubreve" unicode="&#x16d;" horiz-adv-x="612" 
d="M282 -15q-95 0 -144 61t-49 165v314h54v-326q0 -73 38.5 -118.5t111.5 -45.5q74 0 117.5 47t43.5 123v320h53v-525h-42v212h12q0 -67 -21.5 -118.5t-63.5 -80t-107 -28.5h-3zM298 607q-66 0 -100 50.5t-37 143.5h42q5 -75 26.5 -115t69.5 -40t69.5 40.5t25.5 114.5h41
q-3 -93 -36 -143.5t-101 -50.5z" />
    <glyph glyph-name="Uring" unicode="&#x16e;" horiz-adv-x="800" 
d="M400 -17q-99 0 -164 38.5t-96.5 105.5t-31.5 153v450h54v-457q0 -71 26 -125.5t79 -84.5t133 -30q82 0 134.5 30t78 84t25.5 126v457h54v-450q0 -86 -31 -153t-95.5 -105.5t-165.5 -38.5zM401 776q-53 0 -81.5 31.5t-28.5 71.5t28.5 71t81.5 31q52 0 80.5 -31t28.5 -71
t-28.5 -71.5t-80.5 -31.5zM401 811q36 0 54 20t18 48t-18 48t-54 20t-54.5 -20t-18.5 -48t18.5 -48t54.5 -20z" />
    <glyph glyph-name="uring" unicode="&#x16f;" horiz-adv-x="612" 
d="M282 -15q-95 0 -144 61t-49 165v314h54v-326q0 -73 38.5 -118.5t111.5 -45.5q74 0 117.5 47t43.5 123v320h53v-525h-42v212h12q0 -67 -21.5 -118.5t-63.5 -80t-107 -28.5h-3zM299 602q-48 0 -77.5 30.5t-29.5 74.5t29.5 75t77.5 31t77 -31t29 -75t-29.5 -74.5
t-76.5 -30.5zM299 637q32 0 51 20t19 50q0 31 -19 51t-51 20t-51 -20t-19 -51q0 -30 19 -50t51 -20z" />
    <glyph glyph-name="Uhungarumlaut" unicode="&#x170;" horiz-adv-x="800" 
d="M400 -17q-99 0 -164 38.5t-96.5 105.5t-31.5 153v450h54v-457q0 -71 26 -125.5t79 -84.5t133 -30q82 0 134.5 30t78 84t25.5 126v457h54v-450q0 -86 -31 -153t-95.5 -105.5t-165.5 -38.5zM441 797l85 147h54l-95 -147h-44zM290 797l85 147h55l-96 -147h-44z" />
    <glyph glyph-name="uhungarumlaut" unicode="&#x171;" horiz-adv-x="612" 
d="M282 -15q-95 0 -144 61t-49 165v314h54v-326q0 -73 38.5 -118.5t111.5 -45.5q74 0 117.5 47t43.5 123v320h53v-525h-42v212h12q0 -67 -21.5 -118.5t-63.5 -80t-107 -28.5h-3zM347 612l69 189h53l-77 -189h-45zM198 612l68 189h53l-76 -189h-45z" />
    <glyph glyph-name="Uogonek" unicode="&#x172;" horiz-adv-x="800" 
d="M400 -17q-99 0 -164 38.5t-96.5 105.5t-31.5 153v450h54v-457q0 -71 26 -125.5t79 -84.5t133 -30q82 0 134.5 30t78 84t25.5 126v457h54v-450q0 -86 -31 -153t-95.5 -105.5t-165.5 -38.5zM470 -250q-45 0 -75 28t-30 75q0 46 25.5 83.5t67.5 69.5l26 19l21 -28l-27 -20
q-34 -28 -52.5 -58t-18.5 -62t18 -48.5t47 -16.5q11 0 23.5 2.5t23.5 6.5v-42q-10 -4 -22.5 -6.5t-26.5 -2.5z" />
    <glyph glyph-name="uogonek" unicode="&#x173;" horiz-adv-x="612" 
d="M282 -15q-95 0 -144 61t-49 165v314h54v-326q0 -73 38.5 -118.5t111.5 -45.5q74 0 117.5 47t43.5 123v320h53v-525h-42v212h12q0 -67 -21.5 -118.5t-63.5 -80t-107 -28.5h-3zM472 -239q-44 0 -72 25t-28 72q0 45 25 80.5t65 67.5l25 21l21 -27l-25 -20q-35 -29 -52 -58
t-17 -60t16.5 -45.5t42.5 -14.5q23 0 47 9v-41q-10 -4 -21.5 -6.5t-26.5 -2.5z" />
    <glyph glyph-name="Wcircumflex" unicode="&#x174;" horiz-adv-x="1022" 
d="M243 0l-206 730h55l193 -696l-23 15h75l-23 -15l160 663h51l-170 -697h-112zM682 0l-185 697h52l176 -663l-25 15h78l-25 -15l178 696h54l-190 -730h-113zM358 797l117 147h72l118 -147h-53l-92 116h-19l-92 -116h-51z" />
    <glyph glyph-name="wcircumflex" unicode="&#x175;" horiz-adv-x="805" 
d="M241 0l120 507h80l135 -507h-49l-135 504h16l-120 -504h-47zM205 0v45h72v-45h-72zM192 0l-157 525h53l154 -525h-50zM542 0v45h67v-45h-67zM575 0l137 525h50l-138 -525h-49zM259 612l107 189h69l107 -189h-46l-91 158h-8l-91 -158h-47z" />
    <glyph glyph-name="Ycircumflex" unicode="&#x176;" horiz-adv-x="647" 
d="M263 287l-236 443h56l219 -411l-25 13h103l-25 -13l208 411h54l-226 -443h-128zM301 0v302h53v-302h-53zM168 797l117 147h72l118 -147h-53l-92 116h-19l-92 -116h-51z" />
    <glyph glyph-name="ycircumflex" unicode="&#x177;" horiz-adv-x="521" 
d="M44 -204v49h60q35 0 61 8.5t45.5 30.5t32.5 63l187 578h53l-195 -595q-16 -49 -42.5 -78.5t-63 -42.5t-82.5 -13h-56zM226 13v47h74v-47h-74zM216 13l-191 512h54l189 -512h-52zM113 612l107 189h69l107 -189h-46l-91 158h-8l-91 -158h-47z" />
    <glyph glyph-name="Ydieresis" unicode="&#x178;" horiz-adv-x="647" 
d="M263 287l-236 443h56l219 -411l-25 13h103l-25 -13l208 411h54l-226 -443h-128zM301 0v302h53v-302h-53zM217 825q-21 0 -33.5 12t-12.5 32t12.5 32t33.5 12q22 0 33.5 -12t11.5 -32t-11.5 -32t-33.5 -12zM425 825q-21 0 -33.5 12t-12.5 32t12.5 32t33.5 12
q22 0 33.5 -12t11.5 -32t-11.5 -32t-33.5 -12z" />
    <glyph glyph-name="Zacute" unicode="&#x179;" horiz-adv-x="659" 
d="M77 0v75l472 609l-6 -28l-19 44l15 -17h-456v47h506v-75l-472 -609l5 29l21 -46l-18 18h480v-47h-528zM295 797l117 147h62l-126 -147h-53z" />
    <glyph glyph-name="zacute" unicode="&#x17a;" horiz-adv-x="481" 
d="M61 0v68l325 415l-6 -17l-12 19l9 -4h-318v44h366v-68l-324 -416l6 17l13 -20l-10 6h331v-44h-380zM210 612l85 189h57l-95 -189h-47z" />
    <glyph glyph-name="Zdotaccent" unicode="&#x17b;" horiz-adv-x="659" 
d="M77 0v75l472 609l-6 -28l-19 44l15 -17h-456v47h506v-75l-472 -609l5 29l21 -46l-18 18h480v-47h-528zM331 825q-21 0 -33.5 12t-12.5 32t12.5 32t33.5 12q22 0 33.5 -12t11.5 -32t-11.5 -32t-33.5 -12z" />
    <glyph glyph-name="zdotaccent" unicode="&#x17c;" horiz-adv-x="481" 
d="M61 0v68l325 415l-6 -17l-12 19l9 -4h-318v44h366v-68l-324 -416l6 17l13 -20l-10 6h331v-44h-380zM242 651q-22 0 -33 12t-11 30t11 30t33 12q23 0 34 -12t11 -30t-11 -30t-34 -12z" />
    <glyph glyph-name="Zcaron" unicode="&#x17d;" horiz-adv-x="659" 
d="M77 0v75l472 609l-6 -28l-19 44l15 -17h-456v47h506v-75l-472 -609l5 29l21 -46l-18 18h480v-47h-528zM294 797l-114 147h52l89 -116h19l86 116h51l-111 -147h-72z" />
    <glyph glyph-name="zcaron" unicode="&#x17e;" horiz-adv-x="481" 
d="M61 0v68l325 415l-6 -17l-12 19l9 -4h-318v44h366v-68l-324 -416l6 17l13 -20l-10 6h331v-44h-380zM210 612l-106 189h48l88 -158h8l82 158h46l-99 -189h-67z" />
    <glyph glyph-name="Aringacute" unicode="&#x1fa;" horiz-adv-x="741" 
d="M37 0l275 730h108l284 -730h-56l-271 699l33 -18h-91l34 18l-262 -699h-54zM168 246l19 49h362l19 -49h-400zM366 776q-53 0 -81.5 31.5t-28.5 71.5t28.5 71t81.5 31q52 0 80.5 -31t28.5 -71t-28.5 -71.5t-80.5 -31.5zM366 811q36 0 54 20t18 48t-18 48t-54 20t-54.5 -20
t-18.5 -48t18.5 -48t54.5 -20zM330 1014l117 147h62l-126 -147h-53z" />
    <glyph glyph-name="uni0218" unicode="&#x218;" horiz-adv-x="704" 
d="M352 -17q-93 0 -155 29.5t-93 81t-31 116.5h54q0 -50 23.5 -90t73.5 -63.5t128 -23.5q73 0 122 21t73.5 57.5t24.5 84.5q0 59 -44 100.5t-134 50.5l-87 7q-91 8 -144 58t-53 131q0 58 27 104.5t81 74t133 27.5q80 0 135 -29.5t83.5 -79t28.5 -111.5h-54q0 45 -20 83.5
t-62.5 62.5t-110.5 24q-66 0 -107 -21.5t-60.5 -57t-19.5 -77.5q0 -60 38.5 -96t110.5 -43l87 -7q73 -6 123.5 -33.5t76.5 -70.5t26 -97q0 -61 -32 -109.5t-93 -76t-149 -27.5zM296 -265v32h8q33 0 51 22.5t18 67.5v30l10 -2q-4 -10 -13 -18.5t-25 -8.5q-18 0 -30 11.5
t-12 31.5t13 32t33 12q26 0 42.5 -19.5t16.5 -61.5v-5q0 -63 -28 -93.5t-76 -30.5h-8z" />
    <glyph glyph-name="uni0219" unicode="&#x219;" horiz-adv-x="523" 
d="M260 -15q-98 0 -150.5 45t-53.5 115h52q0 -45 35.5 -78.5t116.5 -33.5q79 0 116 33.5t37 79.5q0 45 -33.5 69t-90.5 30l-62 7q-69 8 -109.5 43t-40.5 95q0 43 22 77t63.5 54t97.5 20q82 0 132.5 -40t51.5 -109h-52q1 43 -33.5 72t-98.5 29q-67 0 -99.5 -31t-32.5 -73
q0 -35 25.5 -60t77.5 -31l62 -7q74 -7 122.5 -43t48.5 -103q0 -45 -24.5 -81t-69.5 -57.5t-110 -21.5zM256 -54q25 0 41 -21t16 -66v-4q0 -63 -26.5 -91t-74.5 -28h-5v31h6q32 0 49 20.5t16 63.5v38h12q-4 -11 -13 -19t-25 -8t-27.5 10.5t-11.5 30.5t12 31.5t31 11.5z" />
    <glyph glyph-name="uni021A" unicode="&#x21a;" horiz-adv-x="582" 
d="M264 0v698h54v-698h-54zM30 681v49h522v-49h-522zM235 -265v32h8q33 0 51 22.5t18 67.5v30l10 -2q-4 -10 -13 -18.5t-25 -8.5q-18 0 -30 11.5t-12 31.5t13 32t33 12q26 0 42.5 -19.5t16.5 -61.5v-5q0 -63 -28 -93.5t-76 -30.5h-8z" />
    <glyph glyph-name="uni021B" unicode="&#x21b;" horiz-adv-x="417" 
d="M278 -5q-49 0 -86 14.5t-57 49.5t-20 94v543h52v-552q0 -48 26.5 -74.5t73.5 -26.5h98v-48h-87zM15 482v43h350v-43h-350zM233 -54q25 0 41 -21t16 -66v-4q0 -63 -26.5 -91t-74.5 -28h-5v31h6q32 0 49 20.5t16 63.5v38h12q-4 -11 -13 -19t-25 -8t-27.5 10.5t-11.5 30.5
t12 31.5t31 11.5z" />
    <glyph glyph-name="uni0237" unicode="&#x237;" horiz-adv-x="298" 
d="M-5 -203v49h65q40 0 61 24t21 70v585h52v-571q0 -57 -15 -91t-47 -50t-85 -16h-52zM52 479v46h142v-46h-142z" />
    <glyph glyph-name="circumflex" unicode="&#x2c6;" horiz-adv-x="300" 
d="M0 612l107 189h69l107 -189h-46l-91 158h-8l-91 -158h-47z" />
    <glyph glyph-name="ring" unicode="&#x2da;" horiz-adv-x="300" 
d="M107 602q-48 0 -77.5 30.5t-29.5 74.5t29.5 75t77.5 31t77 -31t29 -75t-29.5 -74.5t-76.5 -30.5zM107 637q32 0 51 20t19 50q0 31 -19 51t-51 20t-51 -20t-19 -51q0 -30 19 -50t51 -20z" />
    <glyph glyph-name="tilde" unicode="&#x2dc;" horiz-adv-x="300" 
d="M213 650q-23 0 -39 7.5t-29.5 17.5t-27.5 18t-32 8q-20 0 -36 -11t-30 -31l-19 32q16 25 38 38.5t48 13.5q23 0 40 -8t30 -18t27 -17.5t32 -7.5q20 0 36 10.5t30 31.5l19 -33q-16 -25 -38 -38t-49 -13z" />
    <glyph glyph-name="gravecomb" unicode="&#x300;" 
d="M101 612l-101 189h58l91 -189h-48z" />
    <glyph glyph-name="acutecomb" unicode="&#x301;" 
d="M0 612l85 189h57l-95 -189h-47z" />
    <glyph glyph-name="uni0302" unicode="&#x302;" 
d="M0 612l107 189h69l107 -189h-46l-91 158h-8l-91 -158h-47z" />
    <glyph glyph-name="tildecomb" unicode="&#x303;" 
d="M213 650q-23 0 -39 7.5t-29.5 17.5t-27.5 18t-32 8q-20 0 -36 -11t-30 -31l-19 32q16 25 38 38.5t48 13.5q23 0 40 -8t30 -18t27 -17.5t32 -7.5q20 0 36 10.5t30 31.5l19 -33q-16 -25 -38 -38t-49 -13z" />
    <glyph glyph-name="uni0304" unicode="&#x304;" 
d="M0 675v42h243v-42h-243z" />
    <glyph glyph-name="uni0306" unicode="&#x306;" 
d="M137 607q-66 0 -100 50.5t-37 143.5h42q5 -75 26.5 -115t69.5 -40t69.5 40.5t25.5 114.5h41q-3 -93 -36 -143.5t-101 -50.5z" />
    <glyph glyph-name="uni0307" unicode="&#x307;" 
d="M44 651q-22 0 -33 12t-11 30t11 30t33 12q23 0 34 -12t11 -30t-11 -30t-34 -12z" />
    <glyph glyph-name="uni0308" unicode="&#x308;" 
d="M44 651q-22 0 -33 12t-11 30t11 30t33 12q23 0 34 -12t11 -30t-11 -30t-34 -12zM237 651q-22 0 -33 12t-11 30t11 30t33 12q23 0 34 -12t11 -30t-11 -30t-34 -12z" />
    <glyph glyph-name="uni030A" unicode="&#x30a;" 
d="M107 602q-48 0 -77.5 30.5t-29.5 74.5t29.5 75t77.5 31t77 -31t29 -75t-29.5 -74.5t-76.5 -30.5zM107 637q32 0 51 20t19 50q0 31 -19 51t-51 20t-51 -20t-19 -51q0 -30 19 -50t51 -20z" />
    <glyph glyph-name="uni030B" unicode="&#x30b;" 
d="M149 612l69 189h53l-77 -189h-45zM0 612l68 189h53l-76 -189h-45z" />
    <glyph glyph-name="uni030C" unicode="&#x30c;" 
d="M106 612l-106 189h48l88 -158h8l82 158h46l-99 -189h-67z" />
    <glyph glyph-name="uni0312" unicode="&#x312;" 
d="M57 606q-25 0 -41 21t-16 66v4q0 63 26.5 91t74.5 28h5v-31h-6q-32 0 -49 -20.5t-16 -63.5v-38h-12q4 11 13 19t25 8t27.5 -10.5t11.5 -30.5t-12 -31.5t-31 -11.5z" />
    <glyph glyph-name="uni0326" unicode="&#x326;" 
d="M45 -54q25 0 41 -21t16 -66v-4q0 -63 -26.5 -91t-74.5 -28h-5v31h6q32 0 49 20.5t16 63.5v38h12q-4 -11 -13 -19t-25 -8t-27.5 10.5t-11.5 30.5t12 31.5t31 11.5z" />
    <glyph glyph-name="uni0327" unicode="&#x327;" 
d="M125 -229q-19 0 -36 2.5t-31 6.5v40q15 -4 33 -6.5t34 -2.5q34 0 51 12t17 35q0 20 -14.5 32.5t-47.5 12.5h-30v107h36v-95l-21 25h13q50 0 78 -22.5t28 -58.5q0 -39 -28.5 -63.5t-81.5 -24.5z" />
    <glyph glyph-name="uni0328" unicode="&#x328;" 
d="M173 -239q-44 0 -72 25t-28 72q0 45 25 80.5t65 67.5l25 21l21 -27l-25 -20q-35 -29 -52 -58t-17 -60t16.5 -45.5t42.5 -14.5q23 0 47 9v-41q-10 -4 -21.5 -6.5t-26.5 -2.5z" />
    <glyph glyph-name="uni0335" unicode="&#x335;" 
d="M-12 247v40h324v-40h-324z" />
    <glyph glyph-name="uni0336" unicode="&#x336;" 
d="M-27 336v47h354v-47h-354z" />
    <glyph glyph-name="uni17DB" unicode="&#x17db;" horiz-adv-x="505" 
d="M256 -5q-55 0 -96 16t-63 46.5t-22 74.5q0 47 25.5 78.5t71.5 47.5t109 16v-44q-76 0 -116.5 -23t-40.5 -75q0 -43 31.5 -67t98.5 -24h46l-26 -23v364h49v-387h-67zM128 369v41h328v-41h-328zM274 396v40q0 21 -6.5 34.5t-26.5 26.5q-21 15 -44.5 29.5t-41.5 27.5
q-32 22 -38 55t9 66q16 33 45 46.5t79 13.5q34 0 66.5 -3t67.5 -8v-46q-36 6 -68 9t-72 3q-31 0 -47.5 -7t-25.5 -29q-10 -22 -5 -38t19 -27q9 -7 23 -16t31 -19t34 -22q28 -19 39 -40t11 -56v-40h-49z" />
    <glyph glyph-name="Wgrave" unicode="&#x1e80;" horiz-adv-x="1022" 
d="M243 0l-206 730h55l193 -696l-23 15h75l-23 -15l160 663h51l-170 -697h-112zM682 0l-185 697h52l176 -663l-25 15h78l-25 -15l178 696h54l-190 -730h-113zM491 797l-125 147h63l116 -147h-54z" />
    <glyph glyph-name="wgrave" unicode="&#x1e81;" horiz-adv-x="805" 
d="M241 0l120 507h80l135 -507h-49l-135 504h16l-120 -504h-47zM205 0v45h72v-45h-72zM192 0l-157 525h53l154 -525h-50zM542 0v45h67v-45h-67zM575 0l137 525h50l-138 -525h-49zM385 612l-101 189h58l91 -189h-48z" />
    <glyph glyph-name="Wacute" unicode="&#x1e82;" horiz-adv-x="1022" 
d="M243 0l-206 730h55l193 -696l-23 15h75l-23 -15l160 663h51l-170 -697h-112zM682 0l-185 697h52l176 -663l-25 15h78l-25 -15l178 696h54l-190 -730h-113zM475 797l117 147h62l-126 -147h-53z" />
    <glyph glyph-name="wacute" unicode="&#x1e83;" horiz-adv-x="805" 
d="M241 0l120 507h80l135 -507h-49l-135 504h16l-120 -504h-47zM205 0v45h72v-45h-72zM192 0l-157 525h53l154 -525h-50zM542 0v45h67v-45h-67zM575 0l137 525h50l-138 -525h-49zM368 612l85 189h57l-95 -189h-47z" />
    <glyph glyph-name="Wdieresis" unicode="&#x1e84;" horiz-adv-x="1022" 
d="M243 0l-206 730h55l193 -696l-23 15h75l-23 -15l160 663h51l-170 -697h-112zM682 0l-185 697h52l176 -663l-25 15h78l-25 -15l178 696h54l-190 -730h-113zM407 825q-21 0 -33.5 12t-12.5 32t12.5 32t33.5 12q22 0 33.5 -12t11.5 -32t-11.5 -32t-33.5 -12zM615 825
q-21 0 -33.5 12t-12.5 32t12.5 32t33.5 12q22 0 33.5 -12t11.5 -32t-11.5 -32t-33.5 -12z" />
    <glyph glyph-name="wdieresis" unicode="&#x1e85;" horiz-adv-x="805" 
d="M241 0l120 507h80l135 -507h-49l-135 504h16l-120 -504h-47zM205 0v45h72v-45h-72zM192 0l-157 525h53l154 -525h-50zM542 0v45h67v-45h-67zM575 0l137 525h50l-138 -525h-49zM304 651q-22 0 -33 12t-11 30t11 30t33 12q23 0 34 -12t11 -30t-11 -30t-34 -12zM497 651
q-22 0 -33 12t-11 30t11 30t33 12q23 0 34 -12t11 -30t-11 -30t-34 -12z" />
    <glyph glyph-name="uni1E9E" unicode="&#x1e9e;" horiz-adv-x="1354" 
d="M348 -16q-91 0 -152.5 28.5t-92 80t-30.5 117.5h54q0 -49 22.5 -89t71.5 -63.5t127 -23.5q72 0 120 21t72 57.5t24 83.5q0 59 -43 100.5t-133 50.5l-84 7q-60 6 -104 29.5t-67.5 63.5t-23.5 95q0 59 26.5 105t79 73t130.5 27q81 0 135.5 -28.5t81.5 -77.5t27 -112h-53
q0 44 -20 82.5t-62 62t-109 23.5q-65 0 -105 -21t-58.5 -56.5t-18.5 -77.5q0 -59 37.5 -95t109.5 -43l84 -7q73 -7 123 -34t75.5 -70t25.5 -97q0 -61 -31 -109t-90.5 -75.5t-148.5 -27.5zM1008 -16q-92 0 -152.5 28.5t-90.5 80t-30 117.5h53q0 -49 22.5 -89t71 -63.5
t126.5 -23.5q72 0 119.5 21t71 57.5t23.5 83.5q0 59 -43 100.5t-133 50.5l-86 7q-60 6 -103.5 29.5t-67.5 63.5t-24 95q0 59 27 105t79.5 73t131.5 27q81 0 135.5 -28.5t81.5 -77.5t27 -112h-53q0 44 -20 82.5t-62 62t-109 23.5q-65 0 -105.5 -21t-59.5 -56.5t-19 -77.5
q0 -59 38 -95t109 -43l86 -7q72 -6 122 -33.5t76 -70t26 -97.5q0 -61 -30.5 -109t-90 -75.5t-147.5 -27.5z" />
    <glyph glyph-name="uni1EBC" unicode="&#x1ebc;" horiz-adv-x="605" 
d="M122 0v730h54v-730h-54zM159 0v49h376v-49h-376zM159 346v50h340v-50h-340zM159 681v49h364v-49h-364zM394 824q-24 0 -40.5 7.5t-31 16.5t-29 16.5t-35.5 7.5t-41 -10.5t-32 -32.5l-21 30q13 24 38.5 39.5t57.5 15.5q23 0 39.5 -7.5t31 -16.5t29.5 -16.5t35 -7.5
q21 0 40.5 11t31.5 32l22 -30q-15 -24 -39.5 -39.5t-55.5 -15.5z" />
    <glyph glyph-name="uni1EBD" unicode="&#x1ebd;" horiz-adv-x="605" 
d="M317 -17q-67 0 -116 23.5t-80 63t-46.5 89t-15.5 100.5v10q0 52 15.5 100t47 87.5t79 62t110.5 22.5q80 0 134.5 -35.5t82.5 -92.5t28 -120v-36h-472v44h437l-16 -20q0 61 -22.5 109t-66 75.5t-105.5 27.5q-67 0 -112 -31t-67.5 -83t-22.5 -115t22.5 -115.5t68.5 -85
t117 -32.5q76 0 122.5 35t56.5 84h52q-11 -49 -42 -87t-78.5 -59t-110.5 -21zM375 650q-23 0 -39 7.5t-29.5 17.5t-27.5 18t-32 8q-20 0 -36 -11t-30 -31l-19 32q16 25 38 38.5t48 13.5q23 0 40 -8t30 -18t27 -17.5t32 -7.5q20 0 36 10.5t30 31.5l19 -33q-16 -25 -38 -38
t-49 -13z" />
    <glyph glyph-name="Ygrave" unicode="&#x1ef2;" horiz-adv-x="647" 
d="M263 287l-236 443h56l219 -411l-25 13h103l-25 -13l208 411h54l-226 -443h-128zM301 0v302h53v-302h-53zM301 797l-125 147h63l116 -147h-54z" />
    <glyph glyph-name="ygrave" unicode="&#x1ef3;" horiz-adv-x="521" 
d="M44 -204v49h60q35 0 61 8.5t45.5 30.5t32.5 63l187 578h53l-195 -595q-16 -49 -42.5 -78.5t-63 -42.5t-82.5 -13h-56zM226 13v47h74v-47h-74zM216 13l-191 512h54l189 -512h-52zM239 612l-101 189h58l91 -189h-48z" />
    <glyph glyph-name="endash" unicode="&#x2013;" horiz-adv-x="500" 
d="M18 255v46h464v-46h-464z" />
    <glyph glyph-name="emdash" unicode="&#x2014;" horiz-adv-x="888" 
d="M18 255v46h852v-46h-852z" />
    <glyph glyph-name="quoteleft" unicode="&#x2018;" horiz-adv-x="232" 
d="M179 734v-36h-9q-29 0 -47.5 -10.5t-27 -37t-8.5 -72.5v-58l-13 22q5 4 14 7t20 3q21 0 34 -13t13 -35q0 -21 -12 -34t-35 -13q-17 0 -30 8t-21 27.5t-8 53.5v19q0 69 14.5 105.5t42 50t64.5 13.5h9z" />
    <glyph glyph-name="quoteright" unicode="&#x2019;" horiz-adv-x="232" 
d="M53 458v36h9q29 0 47.5 10.5t27 37t8.5 72.5v58l13 -22q-5 -4 -14 -7t-20 -3q-21 0 -34 13t-13 35q0 21 12 34t35 13q17 0 30 -8t21 -27.5t8 -53.5v-19q0 -69 -14.5 -105.5t-42 -50t-64.5 -13.5h-9z" />
    <glyph glyph-name="quotesinglbase" unicode="&#x201a;" horiz-adv-x="232" 
d="M53 -183v36h9q29 0 47.5 10.5t27 37t8.5 72.5v58l13 -22q-5 -4 -14 -7t-20 -3q-21 0 -34 13t-13 35q0 21 12 34t35 13q17 0 30 -8t21 -27.5t8 -53.5v-19q0 -69 -14.5 -105.5t-42 -50t-64.5 -13.5h-9z" />
    <glyph glyph-name="quotedblleft" unicode="&#x201c;" horiz-adv-x="406" 
d="M353 734v-36h-9q-29 0 -47.5 -10.5t-27 -37t-8.5 -72.5v-58l-13 22q5 4 14 7t20 3q21 0 34 -13t13 -35q0 -21 -12 -34t-35 -13q-17 0 -30 8t-21 27.5t-8 53.5v19q0 69 14.5 105.5t42 50t64.5 13.5h9zM179 734v-36h-9q-29 0 -47.5 -10.5t-27 -37t-8.5 -72.5v-58l-13 22
q5 4 14 7t20 3q21 0 34 -13t13 -35q0 -21 -12 -34t-35 -13q-17 0 -30 8t-21 27.5t-8 53.5v19q0 69 14.5 105.5t42 50t64.5 13.5h9z" />
    <glyph glyph-name="quotedblright" unicode="&#x201d;" horiz-adv-x="406" 
d="M53 458v36h9q29 0 47.5 10.5t27 37t8.5 72.5v58l13 -22q-5 -4 -14 -7t-20 -3q-21 0 -34 13t-13 35q0 21 12 34t35 13q17 0 30 -8t21 -27.5t8 -53.5v-19q0 -69 -14.5 -105.5t-42 -50t-64.5 -13.5h-9zM227 458v36h9q29 0 47.5 10.5t27 37t8.5 72.5v58l13 -22q-5 -4 -14 -7
t-20 -3q-21 0 -34 13t-13 35q0 21 12 34t35 13q17 0 30 -8t21 -27.5t8 -53.5v-19q0 -69 -14.5 -105.5t-42 -50t-64.5 -13.5h-9z" />
    <glyph glyph-name="quotedblbase" unicode="&#x201e;" horiz-adv-x="406" 
d="M53 -183v36h9q29 0 47.5 10.5t27 37t8.5 72.5v58l13 -22q-5 -4 -14 -7t-20 -3q-21 0 -34 13t-13 35q0 21 12 34t35 13q17 0 30 -8t21 -27.5t8 -53.5v-19q0 -69 -14.5 -105.5t-42 -50t-64.5 -13.5h-9zM227 -183v36h9q29 0 47.5 10.5t27 37t8.5 72.5v58l13 -22
q-5 -4 -14 -7t-20 -3q-21 0 -34 13t-13 35q0 21 12 34t35 13q17 0 30 -8t21 -27.5t8 -53.5v-19q0 -69 -14.5 -105.5t-42 -50t-64.5 -13.5h-9z" />
    <glyph glyph-name="dagger" unicode="&#x2020;" horiz-adv-x="515" 
d="M233 -200v587h49v-587h-49zM56 481v44h403v-44h-403zM233 507v223h49v-223h-49z" />
    <glyph glyph-name="daggerdbl" unicode="&#x2021;" horiz-adv-x="515" 
d="M56 481v44h403v-44h-403zM233 -207v224h49v-224h-49zM56 -1v44h403v-44h-403zM235 129v266h45v-266h-45zM233 507v223h49v-223h-49z" />
    <glyph glyph-name="bullet" unicode="&#x2022;" horiz-adv-x="431" 
d="M107 173v228h217v-228h-217z" />
    <glyph glyph-name="ellipsis" unicode="&#x2026;" horiz-adv-x="770" 
d="M104 0v77h70v-77h-70zM350 0v77h70v-77h-70zM596 0v77h70v-77h-70z" />
    <glyph glyph-name="perthousand" unicode="&#x2030;" horiz-adv-x="1196" 
d="M245 0l289 730h44l-288 -730h-45zM199 346q-52 0 -85.5 25t-50 67.5t-16.5 94.5v17q0 54 16.5 96t50.5 66.5t85 24.5t85 -24.5t50.5 -66.5t16.5 -96v-17q0 -52 -16.5 -94.5t-50 -67.5t-85.5 -25zM199 385q55 0 82.5 40.5t27.5 115.5q0 76 -27.5 116.5t-82.5 40.5
t-82.5 -40.5t-27.5 -115.5t27.5 -116t82.5 -41zM623 -7q-52 0 -85.5 25t-50 67.5t-16.5 94.5v17q0 54 16.5 96t50.5 66.5t85 24.5t85 -24.5t50.5 -66.5t16.5 -96v-17q0 -52 -16.5 -94.5t-50 -67.5t-85.5 -25zM623 32q55 0 82.5 40.5t27.5 115.5q0 76 -27.5 116.5t-82.5 40.5
t-82.5 -40.5t-27.5 -116.5q0 -74 27.5 -115t82.5 -41zM997 -7q-52 0 -86 25t-50.5 67.5t-16.5 94.5v17q0 54 17 96t51 66.5t85 24.5t85 -24.5t50.5 -66.5t16.5 -96v-17q0 -52 -16.5 -94.5t-50 -67.5t-85.5 -25zM997 32q55 0 82.5 40.5t27.5 115.5q0 76 -27.5 116.5
t-82.5 40.5t-83 -40.5t-28 -116.5q0 -74 27.5 -115t83.5 -41z" />
    <glyph glyph-name="minute" unicode="&#x2032;" horiz-adv-x="259" 
d="M81 476l50 254h47l-49 -254h-48z" />
    <glyph glyph-name="second" unicode="&#x2033;" horiz-adv-x="394" 
d="M81 476l50 254h47l-49 -254h-48zM216 476l50 254h47l-49 -254h-48z" />
    <glyph glyph-name="guilsinglleft" unicode="&#x2039;" horiz-adv-x="293" 
d="M182 39l-126 203v34l127 207h51l-130 -214v-17l131 -213h-53z" />
    <glyph glyph-name="guilsinglright" unicode="&#x203a;" horiz-adv-x="293" 
d="M111 483l126 -203v-34l-127 -207h-51l130 214v17l-131 213h53z" />
    <glyph glyph-name="fraction" unicode="&#x2044;" horiz-adv-x="197" 
d="M-105 -22l380 702h45l-380 -702h-45z" />
    <glyph glyph-name="uni2074" unicode="&#x2074;" horiz-adv-x="379" 
d="M36 518v50l179 259l34 -22l-169 -244l5 -7h270v-36h-319zM257 420v283h42v-283h-42z" />
    <glyph glyph-name="Euro" unicode="&#x20ac;" horiz-adv-x="691" 
d="M407 -12q-139 0 -214 93.5t-75 276.5v14q0 184 72.5 277t207.5 93q77 0 129.5 -26.5t80.5 -72.5t31 -104h-49q-4 69 -52.5 112.5t-139.5 43.5q-111 0 -170.5 -78t-59.5 -252t63 -252t176 -78q94 0 139.5 43.5t49.5 112.5h49q-3 -59 -30 -105t-78.5 -72t-129.5 -26z
M23 264v41h444v-41h-444zM41 407v41h444v-41h-444z" />
    <glyph glyph-name="trademark" unicode="&#x2122;" horiz-adv-x="825" 
d="M375 342v388h51l134 -285h10l133 285h51v-388h-41v345l9 -1l-129 -275h-58l-130 275l8 1v-345h-38zM155 342v368h41v-368h-41zM32 693v37h287v-37h-287z" />
    <glyph glyph-name="minus" unicode="&#x2212;" horiz-adv-x="586" 
d="M79 323v44h428v-44h-428z" />
    <glyph glyph-name="uni2215" unicode="&#x2215;" horiz-adv-x="380" 
d="M7 -67l318 871h48l-318 -871h-48z" />
    <glyph glyph-name="lessequal" unicode="&#x2264;" horiz-adv-x="583" 
d="M80 49v44h423v-44h-423zM502 181l-421 136v43l421 -134v-45zM81 353v44l421 136v-46zM95 334v46h24v-46h-24z" />
    <glyph glyph-name="greaterequal" unicode="&#x2265;" horiz-adv-x="583" 
d="M80 49v44h423v-44h-423zM81 181v46l421 134v-44zM502 354l-421 134v45l421 -136v-43zM464 334v46h25v-46h-25z" />
    <glyph glyph-name="sora" unicode="&#xe000;" horiz-adv-x="815" 
d="M109 0h-56l331 500h47l331 -500h-57l-298 449zM52 500v41h710v-41h-710zM384 529v170h47v-170h-47zM52 688v42h710v-42h-710z" />
    <glyph glyph-name="I.salt" horiz-adv-x="445" 
d="M196 28v674h54v-674h-54zM105 0v48h235v-48h-235zM105 682v48h235v-48h-235z" />
    <glyph glyph-name="Iacute.salt" horiz-adv-x="445" 
d="M196 28v674h54v-674h-54zM105 0v48h235v-48h-235zM105 682v48h235v-48h-235zM187 797l117 147h62l-126 -147h-53z" />
    <glyph glyph-name="Ibreve.salt" horiz-adv-x="445" 
d="M196 28v674h54v-674h-54zM105 0v48h235v-48h-235zM105 682v48h235v-48h-235zM222 790q-51 0 -82.5 20.5t-47.5 55t-19 78.5h41q4 -50 28 -82.5t80 -32.5q57 0 82 32.5t28 82.5h40q-3 -44 -19 -78.5t-48 -55t-83 -20.5z" />
    <glyph glyph-name="Icircumflex.salt" horiz-adv-x="445" 
d="M196 28v674h54v-674h-54zM105 0v48h235v-48h-235zM105 682v48h235v-48h-235zM70 797l117 147h72l118 -147h-53l-92 116h-19l-92 -116h-51z" />
    <glyph glyph-name="Idieresis.salt" horiz-adv-x="445" 
d="M196 28v674h54v-674h-54zM105 0v48h235v-48h-235zM105 682v48h235v-48h-235zM119 825q-21 0 -33.5 12t-12.5 32t12.5 32t33.5 12q22 0 33.5 -12t11.5 -32t-11.5 -32t-33.5 -12zM327 825q-21 0 -33.5 12t-12.5 32t12.5 32t33.5 12q22 0 33.5 -12t11.5 -32t-11.5 -32
t-33.5 -12z" />
    <glyph glyph-name="Idotaccent.salt" horiz-adv-x="445" 
d="M196 28v674h54v-674h-54zM105 0v48h235v-48h-235zM105 682v48h235v-48h-235zM223 825q-21 0 -33.5 12t-12.5 32t12.5 32t33.5 12q22 0 33.5 -12t11.5 -32t-11.5 -32t-33.5 -12z" />
    <glyph glyph-name="Igrave.salt" horiz-adv-x="445" 
d="M196 28v674h54v-674h-54zM105 0v48h235v-48h-235zM105 682v48h235v-48h-235zM202 797l-125 147h63l116 -147h-54z" />
    <glyph glyph-name="Imacron.salt" horiz-adv-x="445" 
d="M196 28v674h54v-674h-54zM105 0v48h235v-48h-235zM105 682v48h235v-48h-235zM78 849v41h289v-41h-289z" />
    <glyph glyph-name="Iogonek.salt" horiz-adv-x="445" 
d="M196 28v674h54v-674h-54zM105 0v48h235v-48h-235zM105 682v48h235v-48h-235zM229 -247q-45 0 -75 28t-30 75q0 46 25.5 83.5t67.5 69.5l26 19l21 -28l-27 -20q-34 -28 -52.5 -58t-18.5 -62t18 -48.5t47 -16.5q11 0 23.5 2.5t23.5 6.5v-42q-10 -4 -22.5 -6.5t-26.5 -2.5z
" />
    <glyph glyph-name="Itilde.salt" horiz-adv-x="445" 
d="M196 28v674h54v-674h-54zM105 0v48h235v-48h-235zM105 682v48h235v-48h-235zM293 824q-24 0 -40.5 7.5t-31 16.5t-29 16.5t-35.5 7.5t-41 -10.5t-32 -32.5l-21 30q13 24 38.5 39.5t57.5 15.5q23 0 39.5 -7.5t31 -16.5t29.5 -16.5t35 -7.5q21 0 40.5 11t31.5 32l22 -30
q-15 -24 -39.5 -39.5t-55.5 -15.5z" />
    <glyph glyph-name="J.salt" horiz-adv-x="579" 
d="M266 -19q-59 0 -104 23t-70 68.5t-25 111.5v125h54v-133q0 -75 41.5 -110t103.5 -35q64 0 104.5 35t40.5 110v554h54v-546q0 -66 -25 -111.5t-69.5 -68.5t-104.5 -23z" />
    <glyph glyph-name="Jcircumflex.salt" horiz-adv-x="579" 
d="M266 -19q-59 0 -104 23t-70 68.5t-25 111.5v125h54v-133q0 -75 41.5 -110t103.5 -35q64 0 104.5 35t40.5 110v554h54v-546q0 -66 -25 -111.5t-69.5 -68.5t-104.5 -23zM285 797l117 147h72l118 -147h-53l-92 116h-19l-92 -116h-51z" />
    <glyph glyph-name="P.salt" horiz-adv-x="623" 
d="M157 347v48h237q55 0 88 19t48 51.5t15 74.5t-15 74.5t-48 51t-88 18.5h-237v49h230q73 0 120 -24t70 -66t23 -97v-12q0 -55 -23 -97t-70 -66t-120 -24h-230zM122 0v733h54v-733h-54z" />
    <glyph glyph-name="Q.salt" horiz-adv-x="870" 
d="M701 -66l-261 356h56l261 -356h-56zM436 -17q-92 0 -161.5 33.5t-116 89t-70 121.5t-23.5 132v16q0 69 24.5 135t72 120.5t116 86.5t158.5 32q89 0 157.5 -32t116 -86.5t71.5 -120.5t24 -135v-16q0 -66 -23.5 -132t-69.5 -121.5t-115 -89t-161 -33.5zM436 33
q75 0 133.5 28t99 75.5t61 107t20.5 122.5q0 66 -21.5 126t-62 106.5t-99 73.5t-131.5 27q-74 0 -132.5 -27t-99.5 -73.5t-62.5 -106.5t-21.5 -126q0 -63 21 -122.5t61.5 -107t99 -75.5t134.5 -28z" />
    <glyph glyph-name="R.salt" horiz-adv-x="692" 
d="M122 0v733h54v-733h-54zM574 0l-185 358h58l187 -358h-60zM157 343v49h243q82 0 116.5 41t34.5 105t-35 105t-116 41h-243v49h235q73 0 120.5 -23.5t70 -66t22.5 -99.5v-12q0 -56 -22.5 -99t-70 -66.5t-120.5 -23.5h-235z" />
    <glyph glyph-name="Racute.salt" horiz-adv-x="692" 
d="M122 0v733h54v-733h-54zM574 0l-185 358h58l187 -358h-60zM157 343v49h243q82 0 116.5 41t34.5 105t-35 105t-116 41h-243v49h235q73 0 120.5 -23.5t70 -66t22.5 -99.5v-12q0 -56 -22.5 -99t-70 -66.5t-120.5 -23.5h-235zM299 797l117 147h62l-126 -147h-53z" />
    <glyph glyph-name="Rcaron.salt" horiz-adv-x="692" 
d="M122 0v733h54v-733h-54zM574 0l-185 358h58l187 -358h-60zM157 343v49h243q82 0 116.5 41t34.5 105t-35 105t-116 41h-243v49h235q73 0 120.5 -23.5t70 -66t22.5 -99.5v-12q0 -56 -22.5 -99t-70 -66.5t-120.5 -23.5h-235zM298 797l-114 147h52l89 -116h19l86 116h51
l-111 -147h-72z" />
    <glyph glyph-name="uni0156.salt" horiz-adv-x="692" 
d="M122 0v733h54v-733h-54zM574 0l-185 358h58l187 -358h-60zM157 343v49h243q82 0 116.5 41t34.5 105t-35 105t-116 41h-243v49h235q73 0 120.5 -23.5t70 -66t22.5 -99.5v-12q0 -56 -22.5 -99t-70 -66.5t-120.5 -23.5h-235zM318 -265v32h8q33 0 51 22.5t18 67.5v30l10 -2
q-4 -10 -13 -18.5t-25 -8.5q-18 0 -30 11.5t-12 31.5t13 32t33 12q26 0 42.5 -19.5t16.5 -61.5v-5q0 -63 -28 -93.5t-76 -30.5h-8z" />
    <glyph glyph-name="acutecomb.case" 
d="M0 797l117 147h62l-126 -147h-53z" />
    <glyph glyph-name="braceleft.case" horiz-adv-x="363" 
d="M291 -118q-73 0 -117 42.5t-44 134.5v183q0 37 -19 53.5t-44 16.5v65q25 0 44 17t19 54v181q0 92 44 134.5t117 42.5h18v-44h-18q-53 0 -81 -30t-28 -98v-175q0 -48 -20.5 -75.5t-58.5 -34.5v-8q38 -7 58.5 -34.5t20.5 -76.5v-176q0 -68 28 -98t81 -30h18v-44h-18z" />
    <glyph glyph-name="braceright.case" horiz-adv-x="363" 
d="M72 -118q73 0 117 42.5t44 134.5v183q0 37 19 53.5t44 16.5v65q-25 0 -44 17t-19 54v181q0 92 -44 134.5t-117 42.5h-18v-44h18q53 0 81 -30t28 -98v-175q0 -48 20.5 -75.5t58.5 -34.5v-8q-38 -7 -58.5 -34.5t-20.5 -76.5v-176q0 -68 -28 -98t-81 -30h-18v-44h18z" />
    <glyph glyph-name="bracketleft.case" horiz-adv-x="363" 
d="M127 -118v924h52v-924h-52zM142 -118v44h156v-44h-156zM142 762v44h156v-44h-156z" />
    <glyph glyph-name="bracketright.case" horiz-adv-x="363" 
d="M236 -118v924h-52v-924h52zM221 -118v44h-156v-44h156zM221 762v44h-156v-44h156z" />
    <glyph glyph-name="uni0306.case" 
d="M149 790q-51 0 -82.5 20.5t-47.5 55t-19 78.5h41q4 -50 28 -82.5t80 -32.5q57 0 82 32.5t28 82.5h40q-3 -44 -19 -78.5t-48 -55t-83 -20.5z" />
    <glyph glyph-name="uni030C.alt" 
d="M88 576v228h47l-5 -228h-42z" />
    <glyph glyph-name="uni030C.case" 
d="M114 797l-114 147h52l89 -116h19l86 116h51l-111 -147h-72z" />
    <glyph glyph-name="uni0327.case" 
d="M73 -237q-21 0 -40 3t-33 7v41q15 -4 34.5 -7t38.5 -3q35 0 54 12t19 37q0 21 -17 33.5t-49 12.5h-31v111h39v-98l-22 25h12q51 0 81 -22.5t30 -60.5q0 -42 -30.5 -66.5t-85.5 -24.5z" />
    <glyph glyph-name="cent.tnum" horiz-adv-x="676" 
d="M348 107q-63 0 -110.5 21t-80.5 57.5t-49 81.5t-16 93v15q0 49 16.5 93.5t48.5 80t79.5 56.5t110.5 21q60 0 108 -20t80 -58t43 -91h-52q-12 53 -58.5 87.5t-120.5 34.5q-66 0 -111 -28t-68.5 -76t-23.5 -107t23.5 -107.5t69 -77.5t111.5 -29q75 0 125.5 37t61.5 93h52
q-9 -54 -43 -94t-84.5 -61.5t-111.5 -21.5zM324 0v127h49v-127h-49zM324 603v127h49v-127h-49z" />
    <glyph glyph-name="uni0302.case" 
d="M0 797l117 147h72l118 -147h-53l-92 116h-19l-92 -116h-51z" />
    <glyph glyph-name="uni0326.case" 
d="M0 -265v32h8q33 0 51 22.5t18 67.5v30l10 -2q-4 -10 -13 -18.5t-25 -8.5q-18 0 -30 11.5t-12 31.5t13 32t33 12q26 0 42.5 -19.5t16.5 -61.5v-5q0 -63 -28 -93.5t-76 -30.5h-8z" />
    <glyph glyph-name="currency.tnum" horiz-adv-x="676" 
d="M338 155q-65 0 -112 30t-72.5 77.5t-25.5 101.5v12q0 55 25.5 103t72.5 77t112 29t112 -29t72.5 -77t25.5 -103v-12q0 -54 -25.5 -101.5t-72.5 -77.5t-112 -30zM113 114l-32 32l99 97l32 -32zM180 497l-99 97l32 32l99 -97zM338 200q50 0 86 23t55.5 61.5t19.5 85.5
q0 49 -20 87t-56 60.5t-85 22.5q-48 0 -84.5 -22.5t-56.5 -60.5t-20 -87q0 -47 19.5 -85.5t56 -61.5t85.5 -23zM563 114l-99 97l32 32l99 -97zM496 497l-32 32l99 97l32 -32z" />
    <glyph glyph-name="uni0308.case" 
d="M46 825q-21 0 -33.5 12t-12.5 32t12.5 32t33.5 12q22 0 33.5 -12t11.5 -32t-11.5 -32t-33.5 -12zM254 825q-21 0 -33.5 12t-12.5 32t12.5 32t33.5 12q22 0 33.5 -12t11.5 -32t-11.5 -32t-33.5 -12z" />
    <glyph glyph-name="divide.tnum" horiz-adv-x="676" 
d="M116 323v44h444v-44h-444zM303 114v76h70v-76h-70zM303 499v76h70v-76h-70z" />
    <glyph glyph-name="dollar.tnum" horiz-adv-x="676" 
d="M341 2q-86 0 -143 28t-85 78t-28 115h51q0 -49 21.5 -88.5t66.5 -62.5t117 -23q99 0 148 41.5t49 107.5q0 59 -42 100.5t-129 50.5l-61 6q-88 9 -138 55.5t-50 127.5q0 55 25 98t73.5 67.5t120.5 24.5q73 0 123.5 -27.5t75.5 -75.5t25 -109h-51q0 44 -18 81.5t-56 60.5
t-99 23q-57 0 -94.5 -19t-55 -51.5t-17.5 -72.5q0 -58 36.5 -92.5t105.5 -41.5l61 -6q104 -10 160.5 -64.5t56.5 -135.5q0 -58 -28.5 -102t-84 -69t-136.5 -25zM316 -129v146h49v-146h-49zM312 699v128h49v-128h-49z" />
    <glyph glyph-name="uni0307.case" 
d="M46 825q-21 0 -33.5 12t-12.5 32t12.5 32t33.5 12q22 0 33.5 -12t11.5 -32t-11.5 -32t-33.5 -12z" />
    <glyph glyph-name="eight.dnom" horiz-adv-x="380" 
d="M190 -10q-71 0 -111.5 34t-40.5 85q0 42 26 69t58 34v6q-27 9 -48.5 31t-21.5 58q0 33 17.5 56t48.5 36t72 13t72 -13t48 -36t17 -56q0 -37 -21 -58.5t-48 -30.5v-6q33 -7 58.5 -34t25.5 -69q0 -51 -40.5 -85t-111.5 -34zM190 28q52 0 80.5 24t28.5 61t-28.5 61t-80.5 24
t-80.5 -24t-28.5 -61t28.5 -61t80.5 -24zM190 232q42 0 68 19t26 53q0 33 -25.5 52t-68.5 19t-68.5 -19t-25.5 -52q0 -34 26 -53t68 -19z" />
    <glyph glyph-name="eight.numr" horiz-adv-x="380" 
d="M190 245q-71 0 -111.5 34t-40.5 85q0 42 26 69t58 34v6q-27 9 -48.5 31t-21.5 58q0 33 17.5 56t48.5 36t72 13t72 -13t48 -36t17 -56q0 -37 -21 -58.5t-48 -30.5v-6q33 -7 58.5 -34t25.5 -69q0 -51 -40.5 -85t-111.5 -34zM190 283q52 0 80.5 24t28.5 61t-28.5 61
t-80.5 24t-80.5 -24t-28.5 -61t28.5 -61t80.5 -24zM190 487q42 0 68 19t26 53q0 33 -25.5 52t-68.5 19t-68.5 -19t-25.5 -52q0 -34 26 -53t68 -19z" />
    <glyph glyph-name="eight.tnum" horiz-adv-x="676" 
d="M338 -17q-78 0 -135 29t-87.5 78t-30.5 108q0 50 21.5 89.5t55.5 65t72 33.5v10q-31 11 -59 32t-46 53.5t-18 77.5q0 57 29 99.5t80.5 66t117.5 23.5q67 0 118 -23.5t80 -66t29 -99.5q0 -45 -18 -77.5t-45.5 -53.5t-59.5 -32v-10q39 -8 73 -33.5t55 -65t21 -89.5
q0 -59 -30.5 -108t-87 -78t-135.5 -29zM338 31q64 0 109 22t68.5 60.5t23.5 85.5q0 49 -24 87.5t-68.5 60.5t-108.5 22t-108.5 -22t-68.5 -60.5t-24 -87.5q0 -47 23.5 -85.5t68.5 -60.5t109 -22zM338 413q78 0 126.5 38t48.5 107q0 67 -47.5 105t-127.5 38q-79 0 -127 -38
t-48 -105q0 -69 49 -107t126 -38z" />
    <glyph glyph-name="emdash.case" horiz-adv-x="888" 
d="M18 348v46h852v-46h-852z" />
    <glyph glyph-name="endash.case" horiz-adv-x="500" 
d="M18 348v46h464v-46h-464z" />
    <glyph glyph-name="equal.tnum" horiz-adv-x="676" 
d="M121 393v44h434v-44h-434zM121 229v44h434v-44h-434z" />
    <glyph glyph-name="Euro.tnum" horiz-adv-x="676" 
d="M405 -12q-135 0 -207 94t-72 276v14q0 183 69 276.5t200 93.5q75 0 125 -26.5t76.5 -72.5t29.5 -104h-49q-4 68 -49.5 112t-132.5 44q-107 0 -163 -78.5t-56 -251.5q0 -172 60 -251t169 -79q89 0 132 44t47 112h48q-3 -58 -28 -104t-74.5 -72.5t-124.5 -26.5zM34 264v41
h437v-41h-437zM52 407v41h437v-41h-437z" />
    <glyph glyph-name="exclamdown.case" horiz-adv-x="269" 
d="M108 544v-544h54v544h-54zM99 730v-77h71v77h-71z" />
    <glyph glyph-name="f.salt" horiz-adv-x="362" 
d="M122 0v626q0 50 30.5 83.5t88.5 33.5q55 0 85 -33.5t30 -81.5h-45q0 32 -19 51.5t-50 19.5q-33 0 -50.5 -19.5t-17.5 -51.5v-628h-52zM40 477v43h305v-43h-305z" />
    <glyph glyph-name="f_f.salt" horiz-adv-x="700" 
d="M122 0v625q0 49 29.5 82.5t86.5 33.5q54 0 82.5 -33t28.5 -80h-45q0 31 -18 50t-47 19q-33 0 -49 -19t-16 -50v-628h-52zM460 0v630q0 50 30.5 83.5t88.5 33.5q56 0 85.5 -33.5t29.5 -81.5h-45q0 32 -19 51.5t-50 19.5q-33 0 -50.5 -19.5t-17.5 -51.5v-632h-52zM40 477
v43h643v-43h-643z" />
    <glyph glyph-name="f_f_i.salt" horiz-adv-x="971" 
d="M122 0v626q0 49 29.5 82t86.5 33q54 0 82.5 -33t28.5 -80h-45q0 31 -18 50t-47 19q-33 0 -49 -19t-16 -50v-628h-52zM460 0v630q0 50 31 83.5t89 33.5q55 0 84.5 -33t29.5 -81h-45q0 32 -19 51t-50 19q-32 0 -50 -19t-18 -51v-633h-52zM813 0v525h54v-525h-54zM40 482v43
h629v-43h-629zM730 479v46h137v-46h-137zM819 635q-21 0 -32.5 11.5t-11.5 29.5q0 19 11.5 31t32.5 12q22 0 33 -12t11 -31q0 -18 -11 -29.5t-33 -11.5z" />
    <glyph glyph-name="f_f_j.salt" horiz-adv-x="981" 
d="M122 0v627q0 49 29.5 81.5t86.5 32.5q54 0 82.5 -32t28.5 -79h-45q0 30 -18 48.5t-47 18.5q-32 0 -48.5 -18.5t-16.5 -48.5v-630h-52zM460 0v630q0 50 31 83.5t88 33.5q55 0 85 -33t30 -81h-46q0 32 -19 51t-49 19q-33 0 -50.5 -19t-17.5 -51v-633h-52zM678 -201v48h65
q40 0 61 24t21 71v583h52v-569q0 -57 -15 -91.5t-46.5 -50t-84.5 -15.5h-53zM40 482v43h640v-43h-640zM742 479v46h135v-46h-135zM829 644q-22 0 -33 11.5t-11 30.5q0 18 11 30t33 12t32.5 -12t10.5 -30q0 -19 -10.5 -30.5t-32.5 -11.5z" />
    <glyph glyph-name="f_f_l.salt" horiz-adv-x="976" 
d="M122 0v625q0 49 29.5 82.5t86.5 33.5q54 0 82.5 -33t28.5 -80h-45q0 31 -18 50t-47 19q-33 0 -49 -19t-16 -50v-628h-52zM460 0v630q0 49 30 83t87 34q55 0 84 -33.5t29 -81.5h-46q0 32 -18 51.5t-48 19.5q-33 0 -49.5 -19.5t-16.5 -51.5v-632h-52zM878 -6q-30 0 -53 10
t-36 32.5t-13 59.5v634h54v-638q0 -27 10.5 -39t33.5 -12h58v-47h-54zM40 477v43h637v-43h-637z" />
    <glyph glyph-name="f_j.salt" horiz-adv-x="643" 
d="M122 0v626q0 50 30.5 83.5t88.5 33.5q55 0 84.5 -33t29.5 -81h-45q0 32 -19 51t-49 19q-34 0 -51 -19t-17 -51v-629h-52zM340 -201v48h65q40 0 61 24t21 71v583h52v-569q0 -57 -15 -91.5t-47 -50t-85 -15.5h-52zM40 482v43h297v-43h-297zM403 479v46h136v-46h-136z
M490 644q-21 0 -32 11.5t-11 30.5q0 18 11 30t33 12q21 0 32 -12t11 -30q0 -19 -10.5 -30.5t-33.5 -11.5z" />
    <glyph glyph-name="fi.salt" horiz-adv-x="633" 
d="M122 0v627q0 49 30.5 82.5t87.5 33.5q55 0 84 -33t29 -80h-45q0 31 -18.5 50t-48.5 19q-33 0 -50 -19t-17 -50v-630h-52zM40 482v43h291v-43h-291zM475 0v525h53v-525h-53zM392 479v46h136v-46h-136zM481 635q-22 0 -33 11.5t-11 29.5q0 19 11 31t33 12t32.5 -12
t10.5 -31q0 -18 -10.5 -29.5t-32.5 -11.5z" />
    <glyph glyph-name="five.dnom" horiz-adv-x="371" 
d="M188 -9q-47 0 -79.5 17.5t-49.5 47.5t-17 66h43q0 -40 26.5 -67t77.5 -27t77.5 28t26.5 68t-26 68t-78 28q-24 0 -45.5 -8t-37.5 -24h-41l22 214h211v-39h-194l18 12l-18 -164l-14 1q19 19 44.5 31t59.5 12q46 0 77.5 -17.5t48 -46.5t16.5 -64v-6q0 -34 -17 -64
t-49.5 -48t-81.5 -18z" />
    <glyph glyph-name="five.numr" horiz-adv-x="371" 
d="M188 246q-47 0 -79.5 17.5t-49.5 47.5t-17 66h43q0 -40 26.5 -67t77.5 -27t77.5 28t26.5 68t-26 68t-78 28q-24 0 -45.5 -8t-37.5 -24h-41l22 214h211v-39h-194l18 12l-18 -164l-14 1q19 19 44.5 31t59.5 12q46 0 77.5 -17.5t48 -46.5t16.5 -64v-6q0 -34 -17 -64
t-49.5 -48t-81.5 -18z" />
    <glyph glyph-name="five.tnum" horiz-adv-x="676" 
d="M347 -17q-80 0 -135 33t-82.5 87t-27.5 116h52q0 -52 22 -95t65.5 -68t105.5 -25q64 0 107 25t65 68t22 95q0 53 -22 96t-65 68.5t-107 25.5q-42 0 -82 -15t-69 -43h-50l38 379h344v-47h-318l18 18l-32 -317l-20 2q22 22 48 37.5t57 23.5t68 8q81 0 135 -32.5t81.5 -85
t27.5 -111.5v-13q0 -59 -27.5 -111.5t-82 -85.5t-136.5 -33z" />
    <glyph glyph-name="fl.salt" horiz-adv-x="638" 
d="M122 0v627q0 49 30.5 82.5t86.5 33.5q54 0 83 -33t29 -80h-45q0 31 -18.5 50t-47.5 19q-33 0 -49.5 -19t-16.5 -50v-630h-52zM40 477v43h299v-43h-299zM540 -6q-31 0 -54 10t-35.5 32.5t-12.5 59.5v634h53v-638q0 -27 11 -39t33 -12h59v-47h-54z" />
    <glyph glyph-name="four.dnom" horiz-adv-x="379" 
d="M36 98v50l179 259l34 -22l-169 -244l5 -7h270v-36h-319zM257 0v283h42v-283h-42z" />
    <glyph glyph-name="four.numr" horiz-adv-x="379" 
d="M36 353v50l179 259l34 -22l-169 -244l5 -7h270v-36h-319zM257 255v283h42v-283h-42z" />
    <glyph glyph-name="four.tnum" horiz-adv-x="676" 
d="M81 191v70l313 479l37 -30l-303 -462l8 -13h479v-44h-534zM462 0v511h51v-511h-51z" />
    <glyph glyph-name="gravecomb.case" 
d="M125 797l-125 147h63l116 -147h-54z" />
    <glyph glyph-name="guillemotleft.case" horiz-adv-x="475" 
d="M184 141l-128 205v35l129 210h52l-133 -217v-17l134 -216h-54zM367 141l-128 205v35l129 210h52l-133 -217v-17l134 -216h-54z" />
    <glyph glyph-name="guillemotright.case" horiz-adv-x="475" 
d="M291 591l128 -205v-35l-129 -210h-52l133 217v17l-134 216h54zM108 591l128 -205v-35l-129 -210h-52l133 217v17l-134 216h54z" />
    <glyph glyph-name="guilsinglleft.case" horiz-adv-x="293" 
d="M184 141l-128 205v35l129 210h52l-133 -217v-17l134 -216h-54z" />
    <glyph glyph-name="guilsinglright.case" horiz-adv-x="293" 
d="M109 591l128 -205v-35l-129 -210h-52l133 217v17l-134 216h54z" />
    <glyph glyph-name="uni030B.case" 
d="M151 797l85 147h54l-95 -147h-44zM0 797l85 147h55l-96 -147h-44z" />
    <glyph glyph-name="hyphen.case" horiz-adv-x="499" 
d="M85 348v45h329v-45h-329z" />
    <glyph glyph-name="i.loclTRK" horiz-adv-x="289" 
d="M131 0v525h54v-525h-54zM44 479v46h141v-46h-141zM119 651q-22 0 -33 12t-11 30t11 30t33 12q23 0 34 -12t11 -30t-11 -30t-34 -12z" />
    <glyph glyph-name="l.salt" horiz-adv-x="289" 
d="M191 -6q-30 0 -53 10t-36 32.5t-13 59.5v634h54v-638q0 -27 10.5 -39t33.5 -12h58v-47h-54z" />
    <glyph glyph-name="lacute.salt" horiz-adv-x="289" 
d="M191 -6q-30 0 -53 10t-36 32.5t-13 59.5v634h54v-638q0 -27 10.5 -39t33.5 -12h58v-47h-54zM80 797l117 147h62l-126 -147h-53z" />
    <glyph glyph-name="lcaron.salt" horiz-adv-x="289" 
d="M191 -6q-30 0 -53 10t-36 32.5t-13 59.5v634h54v-638q0 -27 10.5 -39t33.5 -12h58v-47h-54zM232 584v228h47l-5 -228h-42z" />
    <glyph glyph-name="uni013C.salt" horiz-adv-x="289" 
d="M191 -6q-30 0 -53 10t-36 32.5t-13 59.5v634h54v-638q0 -27 10.5 -39t33.5 -12h58v-47h-54zM163 -54q25 0 41 -21t16 -66v-4q0 -63 -26.5 -91t-74.5 -28h-5v31h6q32 0 49 20.5t16 63.5v38h12q-4 -11 -13 -19t-25 -8t-27.5 10.5t-11.5 30.5t12 31.5t31 11.5z" />
    <glyph glyph-name="lslash.salt" horiz-adv-x="290" 
d="M22 252v45l81 48v-45zM135 318v44l83 49v-45zM191 -6q-30 0 -53 10t-36 32.5t-13 59.5v634h54v-638q0 -27 10.5 -39t33.5 -12h58v-47h-54z" />
    <glyph glyph-name="uni0304.case" 
d="M0 849v41h289v-41h-289z" />
    <glyph glyph-name="minus.tnum" horiz-adv-x="676" 
d="M116 322v44h444v-44h-444z" />
    <glyph glyph-name="multiply.tnum" horiz-adv-x="676" 
d="M151 131l404 399l-30 30l-404 -399zM523 130l32 32l-402 399l-32 -32z" />
    <glyph glyph-name="nine.dnom" horiz-adv-x="395" 
d="M188 412q52 0 86.5 -22t52 -64t17.5 -102v-19q0 -101 -47.5 -154t-147.5 -53q-16 0 -34 1t-36 3v38q18 -2 37 -3.5t35 -1.5q57 0 90 20.5t48 59t15 92.5v59l12 4q-1 -58 -36.5 -94t-99.5 -36q-67 0 -104 38t-37 95q0 58 39 98.5t110 40.5zM189 374q-53 0 -80.5 -29.5
t-27.5 -71.5q0 -41 27 -69.5t80 -28.5q52 0 80.5 28t28.5 71q0 26 -12 48.5t-36 37t-60 14.5z" />
    <glyph glyph-name="nine.numr" horiz-adv-x="395" 
d="M188 667q52 0 86.5 -22t52 -64t17.5 -102v-19q0 -101 -47.5 -154t-147.5 -53q-16 0 -34 1t-36 3v38q18 -2 37 -3.5t35 -1.5q57 0 90 20.5t48 59t15 92.5v59l12 4q-1 -58 -36.5 -94t-99.5 -36q-67 0 -104 38t-37 95q0 58 39 98.5t110 40.5zM189 629q-53 0 -80.5 -29.5
t-27.5 -71.5q0 -41 27 -69.5t80 -28.5q52 0 80.5 28t28.5 71q0 26 -12 48.5t-36 37t-60 14.5z" />
    <glyph glyph-name="nine.tnum" horiz-adv-x="676" 
d="M317 747q65 0 113.5 -22.5t80.5 -66.5t47.5 -108t15.5 -145v-37q0 -181 -80 -276.5t-244 -95.5q-29 0 -56.5 2t-57.5 6v48q30 -5 59.5 -7t57.5 -2q97 0 157.5 38.5t88 112.5t27.5 180v127h16q-1 -71 -28 -125t-78 -85t-124 -31q-79 0 -132 32.5t-80 87t-27 121.5
t27.5 123t81.5 89.5t135 33.5zM317 699q-63 0 -106 -27t-64.5 -72t-21.5 -99q0 -55 21 -99t63 -69.5t107 -25.5q62 0 106 25t67 69t23 101q0 50 -21 95.5t-64.5 73.5t-109.5 28z" />
    <glyph glyph-name="uni0328.case" 
d="M174 -247q-45 0 -75 28t-30 75q0 46 25.5 83.5t67.5 69.5l26 19l21 -28l-27 -20q-34 -28 -52.5 -58t-18.5 -62t18 -48.5t47 -16.5q11 0 23.5 2.5t23.5 6.5v-42q-10 -4 -22.5 -6.5t-26.5 -2.5z" />
    <glyph glyph-name="one.dnom" horiz-adv-x="254" 
d="M129 0v373l12 -10h-107v39h138v-402h-43z" />
    <glyph glyph-name="one.numr" horiz-adv-x="254" 
d="M129 255v373l12 -10h-107v39h138v-402h-43z" />
    <glyph glyph-name="one.tnum" horiz-adv-x="676" 
d="M332 0v701l21 -18h-181v47h213v-730h-53zM170 0v47h374v-47h-374z" />
    <glyph glyph-name="parenleft.case" horiz-adv-x="363" 
d="M277 -118q-54 60 -95.5 128t-65 151t-23.5 186q0 102 23.5 183.5t65 149.5t95.5 126h60q-59 -67 -102.5 -136t-66.5 -147.5t-23 -175.5q0 -98 23 -177.5t66 -149t103 -138.5h-60z" />
    <glyph glyph-name="parenright.case" horiz-adv-x="363" 
d="M86 -118q54 60 95.5 128t65 151t23.5 186q0 102 -23.5 183.5t-65 149.5t-95.5 126h-60q59 -67 102.5 -136t66.5 -147.5t23 -175.5q0 -98 -23 -177.5t-66 -149t-103 -138.5h60z" />
    <glyph glyph-name="periodcentered.case" horiz-adv-x="254" 
d="M92 335v77h70v-77h-70z" />
    <glyph glyph-name="plus.tnum" horiz-adv-x="676" 
d="M314 104v480h48v-480h-48zM116 322v44h444v-44h-444z" />
    <glyph glyph-name="questiondown.case" horiz-adv-x="544" 
d="M328 544v-185h-47q-80 0 -123 -47t-43 -118q0 -49 20 -86.5t56.5 -58t85.5 -20.5q50 0 88.5 22.5t60 62t21.5 93.5h50q0 -64 -26.5 -115t-76 -81t-117.5 -30q-66 0 -114 28.5t-74 76t-26 103.5v11q0 54 25 101.5t75.5 76t125.5 28.5l-15 -29l1 167h53zM337 730v-77h-71
v77h71z" />
    <glyph glyph-name="r.salt" horiz-adv-x="419" 
d="M103 0v525h42v-164h-8q0 51 17 89t52 58.5t88 20.5h105v-48h-118q-61 0 -93 -32t-32 -94v-355h-53z" />
    <glyph glyph-name="racute.salt" horiz-adv-x="419" 
d="M103 0v525h42v-164h-8q0 51 17 89t52 58.5t88 20.5h105v-48h-118q-61 0 -93 -32t-32 -94v-355h-53zM203 612l85 189h57l-95 -189h-47z" />
    <glyph glyph-name="rcaron.salt" horiz-adv-x="419" 
d="M103 0v525h42v-164h-8q0 51 17 89t52 58.5t88 20.5h105v-48h-118q-61 0 -93 -32t-32 -94v-355h-53zM203 612l-106 189h48l88 -158h8l82 158h46l-99 -189h-67z" />
    <glyph glyph-name="uni0157.salt" horiz-adv-x="419" 
d="M103 0v525h42v-164h-8q0 51 17 89t52 58.5t88 20.5h105v-48h-118q-61 0 -93 -32t-32 -94v-355h-53zM127 -54q25 0 41 -21t16 -66v-4q0 -63 -26.5 -91t-74.5 -28h-5v31h6q32 0 49 20.5t16 63.5v38h12q-4 -11 -13 -19t-25 -8t-27.5 10.5t-11.5 30.5t12 31.5t31 11.5z" />
    <glyph glyph-name="uni17DB.tnum" horiz-adv-x="676" 
d="M344 -5q-61 0 -104.5 16t-66.5 46.5t-23 74.5q0 47 26.5 78.5t75.5 47.5t117 16v-44q-84 0 -127.5 -23t-43.5 -75q0 -47 37 -69t106 -22h47l-26 -23v364h49v-387h-67zM203 369v41h350v-41h-350zM362 396v40q0 21 -7 34.5t-28 27.5q-23 15 -47.5 30t-39.5 25
q-34 24 -40.5 56.5t9.5 65.5q17 35 47.5 47.5t81.5 12.5q34 0 67.5 -3t70.5 -8v-46q-38 6 -71.5 9t-73.5 3q-33 0 -51 -7t-27 -29q-11 -23 -5.5 -38.5t20.5 -26.5q11 -8 25.5 -16.5t31 -18.5t34.5 -22q29 -19 40.5 -40t11.5 -56v-40h-49z" />
    <glyph glyph-name="uni030A.case" 
d="M110 776q-53 0 -81.5 31.5t-28.5 71.5t28.5 71t81.5 31q52 0 80.5 -31t28.5 -71t-28.5 -71.5t-80.5 -31.5zM110 811q36 0 54 20t18 48t-18 48t-54 20t-54.5 -20t-18.5 -48t18.5 -48t54.5 -20z" />
    <glyph glyph-name="seven.dnom" horiz-adv-x="342" 
d="M98 0l168 357l-5 7h-224v38h277v-38l-170 -364h-46zM37 293v109h37v-109h-37z" />
    <glyph glyph-name="seven.numr" horiz-adv-x="342" 
d="M98 255l168 357l-5 7h-224v38h277v-38l-170 -364h-46zM37 548v109h37v-109h-37z" />
    <glyph glyph-name="seven.salt" horiz-adv-x="526" 
d="M203 0v142q0 175 60 306.5t180 218.5l-4 16h-416v47h470v-82q-85 -63 -137.5 -138.5t-76.5 -166t-24 -201.5v-142h-52z" />
    <glyph glyph-name="seven.tnum" horiz-adv-x="676" 
d="M215 0l305 672l-6 11h-401v47h456v-70l-299 -660h-55zM113 551v179h47v-179h-47z" />
    <glyph glyph-name="seven.tnum.salt" horiz-adv-x="676" 
d="M275 0v142q0 176 61 307t181 218l-4 16h-420v47h474v-82q-85 -63 -138.5 -138t-77.5 -165.5t-24 -202.5v-142h-52z" />
    <glyph glyph-name="six.dnom" horiz-adv-x="395" 
d="M207 -10q-51 0 -86 22t-52.5 64t-17.5 102v19q0 102 48 154.5t147 52.5q16 0 34 -1.5t36 -3.5v-38q-12 2 -25 3t-24.5 1.5t-23.5 0.5q-55 0 -88.5 -20.5t-48.5 -58.5t-15 -93v-58l-12 -4q1 58 36.5 94t99.5 36q68 0 104.5 -38.5t36.5 -94.5q0 -58 -39 -98.5t-110 -40.5z
M206 28q52 0 80 29.5t28 71.5q0 41 -27.5 69t-79.5 28t-81 -27.5t-29 -70.5q0 -26 12.5 -48.5t36.5 -37t60 -14.5z" />
    <glyph glyph-name="six.numr" horiz-adv-x="395" 
d="M207 245q-51 0 -86 22t-52.5 64t-17.5 102v19q0 102 48 154.5t147 52.5q16 0 34 -1.5t36 -3.5v-38q-12 2 -25 3t-24.5 1.5t-23.5 0.5q-55 0 -88.5 -20.5t-48.5 -58.5t-15 -93v-58l-12 -4q1 58 36.5 94t99.5 36q68 0 104.5 -38.5t36.5 -94.5q0 -58 -39 -98.5t-110 -40.5z
M206 283q52 0 80 29.5t28 71.5q0 41 -27.5 69t-79.5 28t-81 -27.5t-29 -70.5q0 -26 12.5 -48.5t36.5 -37t60 -14.5z" />
    <glyph glyph-name="six.tnum" horiz-adv-x="676" 
d="M357 -17q-65 0 -113.5 22.5t-80.5 66.5t-47.5 108t-15.5 145v37q0 181 80 276.5t244 95.5q29 0 56.5 -2t57.5 -6v-48q-30 5 -59.5 7t-57.5 2q-97 0 -157.5 -38.5t-88 -112.5t-27.5 -180v-127h-16q1 71 28 125t78 85t124 31q79 0 132 -32.5t80 -87t27 -121.5t-27.5 -123
t-81.5 -89.5t-135 -33.5zM357 31q63 0 106 27t64.5 72t21.5 99q0 55 -21 99t-63 69.5t-107 25.5q-62 0 -106 -25t-67 -69t-23 -101q0 -50 21 -95.5t64.5 -73.5t109.5 -28z" />
    <glyph glyph-name="sora.tnum" horiz-adv-x="676" 
d="M79 0h-57l287 501h58l286 -501h-56l-259 461zM22 500v41h632v-41h-632zM314 529v170h48v-170h-48zM22 688v42h632v-42h-632z" />
    <glyph glyph-name="sterling.tnum" horiz-adv-x="676" 
d="M178 0v493q0 121 59 182.5t164 61.5q23 0 50.5 -2t54 -5t46.5 -7v-47q-20 4 -47.5 7t-55.5 4.5t-51 1.5q-48 0 -86.5 -18.5t-61 -61.5t-22.5 -118v-491h-50zM96 0v44h488v-44h-488zM102 327v40h371v-40h-371zM551 0v157h48v-157h-48z" />
    <glyph glyph-name="t.salt" horiz-adv-x="456" 
d="M267 -14q-64 0 -105.5 40t-41.5 116v357h52v-361q0 -56 28 -81t69 -25q42 0 71 25t29 81h46q0 -72 -40.5 -112t-107.5 -40zM23 482v43h363v-43h-363zM120 507v185h52v-185h-52z" />
    <glyph glyph-name="tbar.salt" horiz-adv-x="456" 
d="M267 -14q-64 0 -105.5 40t-41.5 116v357h52v-361q0 -56 28 -81t69 -25q42 0 71 25t29 81h46q0 -72 -40.5 -112t-107.5 -40zM23 482v43h363v-43h-363zM120 507v185h52v-185h-52zM29 269v40h324v-40h-324z" />
    <glyph glyph-name="tcaron.salt" horiz-adv-x="456" 
d="M267 -14q-64 0 -105.5 40t-41.5 116v357h52v-361q0 -56 28 -81t69 -25q42 0 71 25t29 81h46q0 -72 -40.5 -112t-107.5 -40zM23 482v43h363v-43h-363zM120 507v185h52v-185h-52zM268 627v228h47l-5 -228h-42z" />
    <glyph glyph-name="uni0163.salt" horiz-adv-x="456" 
d="M267 -14q-64 0 -105.5 40t-41.5 116v357h52v-361q0 -56 28 -81t69 -25q42 0 71 25t29 81h46q0 -72 -40.5 -112t-107.5 -40zM23 482v43h363v-43h-363zM120 507v185h52v-185h-52zM268 -229q-19 0 -36 2.5t-31 6.5v40q15 -4 33 -6.5t34 -2.5q34 0 51 12t17 35
q0 20 -14.5 32.5t-47.5 12.5h-30v107h36v-95l-21 25h13q50 0 78 -22.5t28 -58.5q0 -39 -28.5 -63.5t-81.5 -24.5z" />
    <glyph glyph-name="uni021B.salt" horiz-adv-x="456" 
d="M267 -14q-64 0 -105.5 40t-41.5 116v357h52v-361q0 -56 28 -81t69 -25q42 0 71 25t29 81h46q0 -72 -40.5 -112t-107.5 -40zM23 482v43h363v-43h-363zM120 507v185h52v-185h-52zM261 -54q25 0 41 -21t16 -66v-4q0 -63 -26.5 -91t-74.5 -28h-5v31h6q32 0 49 20.5t16 63.5
v38h12q-4 -11 -13 -19t-25 -8t-27.5 10.5t-11.5 30.5t12 31.5t31 11.5z" />
    <glyph glyph-name="three.dnom" horiz-adv-x="367" 
d="M179 -9q-67 0 -105.5 36.5t-38.5 90.5h43q0 -40 27.5 -65t73.5 -25q47 0 74.5 25.5t27.5 64.5q0 41 -26.5 66t-74.5 25q-19 0 -33 -4.5t-24 -11.5l-24 39l164 124l-4 7h-208v39h259v-51l-169 -127l-19 6q12 6 27 9.5t32 3.5q66 0 104.5 -35t38.5 -87v-7q0 -51 -38.5 -87
t-106.5 -36z" />
    <glyph glyph-name="three.numr" horiz-adv-x="367" 
d="M179 246q-67 0 -105.5 36.5t-38.5 90.5h43q0 -40 27.5 -65t73.5 -25q47 0 74.5 25.5t27.5 64.5q0 41 -26.5 66t-74.5 25q-19 0 -33 -4.5t-24 -11.5l-24 39l164 124l-4 7h-208v39h259v-51l-169 -127l-19 6q12 6 27 9.5t32 3.5q66 0 104.5 -35t38.5 -87v-7q0 -51 -38.5 -87
t-106.5 -36z" />
    <glyph glyph-name="three.tnum" horiz-adv-x="676" 
d="M332 -17q-76 0 -130 31t-82.5 83t-28.5 116h53q0 -82 50 -132t138 -50q57 0 99.5 22.5t65.5 63t23 93.5q0 83 -50 133t-136 50q-32 0 -56 -7.5t-44 -19.5l-34 53l302 250l-8 14h-374v47h426v-83l-284 -236l-29 1q18 12 45 18.5t56 6.5q75 0 128.5 -30t82 -80t28.5 -111
v-12q0 -59 -28.5 -109t-82.5 -81t-130 -31z" />
    <glyph glyph-name="tildecomb.case" 
d="M230 824q-24 0 -40.5 7.5t-31 16.5t-29 16.5t-35.5 7.5t-41 -10.5t-32 -32.5l-21 30q13 24 38.5 39.5t57.5 15.5q23 0 39.5 -7.5t31 -16.5t29.5 -16.5t35 -7.5q21 0 40.5 11t31.5 32l22 -30q-15 -24 -39.5 -39.5t-55.5 -15.5z" />
    <glyph glyph-name="two.dnom" horiz-adv-x="369" 
d="M54 0v62q0 34 17 55.5t62 41.5l83 36q30 13 47.5 34.5t17.5 54.5q0 42 -25.5 66t-68.5 24q-42 0 -68 -24t-26 -66h-43q0 56 37 92t100 36q64 0 100.5 -35t36.5 -88v-7q0 -43 -24.5 -72.5t-68.5 -48.5l-84 -37q-28 -12 -38.5 -25t-10.5 -33v-38l-13 10h246v-38h-277z" />
    <glyph glyph-name="two.numr" horiz-adv-x="369" 
d="M54 255v62q0 34 17 55.5t62 41.5l83 36q30 13 47.5 34.5t17.5 54.5q0 42 -25.5 66t-68.5 24q-42 0 -68 -24t-26 -66h-43q0 56 37 92t100 36q64 0 100.5 -35t36.5 -88v-7q0 -43 -24.5 -72.5t-68.5 -48.5l-84 -37q-28 -12 -38.5 -25t-10.5 -33v-38l-13 10h246v-38h-277z
" />
    <glyph glyph-name="two.tnum" horiz-adv-x="676" 
d="M119 0v103q0 40 11.5 69.5t40 53.5t79.5 48l149 70q55 26 87.5 68t32.5 109q0 84 -48 132t-129 48q-80 0 -128.5 -48t-48.5 -133h-52q0 66 27 118t78.5 81.5t123.5 29.5q73 0 124 -29.5t77.5 -79.5t26.5 -113v-13q0 -77 -42.5 -128.5t-111.5 -83.5l-149 -71
q-57 -27 -75.5 -54t-18.5 -69v-87l-18 26h432v-47h-468z" />
    <glyph glyph-name="u.salt" horiz-adv-x="612" 
d="M306 -17q-67 0 -115 26.5t-73.5 76.5t-25.5 119v320h53v-327q0 -80 41 -122.5t120 -42.5t120 43t41 122v327h53v-320q0 -69 -25.5 -119t-73.5 -76.5t-115 -26.5z" />
    <glyph glyph-name="uacute.salt" horiz-adv-x="612" 
d="M306 -17q-67 0 -115 26.5t-73.5 76.5t-25.5 119v320h53v-327q0 -80 41 -122.5t120 -42.5t120 43t41 122v327h53v-320q0 -69 -25.5 -119t-73.5 -76.5t-115 -26.5zM273 612l85 189h57l-95 -189h-47z" />
    <glyph glyph-name="ubreve.salt" horiz-adv-x="612" 
d="M306 -17q-67 0 -115 26.5t-73.5 76.5t-25.5 119v320h53v-327q0 -80 41 -122.5t120 -42.5t120 43t41 122v327h53v-320q0 -69 -25.5 -119t-73.5 -76.5t-115 -26.5zM306 607q-66 0 -100 50.5t-37 143.5h42q5 -75 26.5 -115t69.5 -40t69.5 40.5t25.5 114.5h41
q-3 -93 -36 -143.5t-101 -50.5z" />
    <glyph glyph-name="ucircumflex.salt" horiz-adv-x="612" 
d="M306 -17q-67 0 -115 26.5t-73.5 76.5t-25.5 119v320h53v-327q0 -80 41 -122.5t120 -42.5t120 43t41 122v327h53v-320q0 -69 -25.5 -119t-73.5 -76.5t-115 -26.5zM164 612l107 189h69l107 -189h-46l-91 158h-8l-91 -158h-47z" />
    <glyph glyph-name="udieresis.salt" horiz-adv-x="612" 
d="M306 -17q-67 0 -115 26.5t-73.5 76.5t-25.5 119v320h53v-327q0 -80 41 -122.5t120 -42.5t120 43t41 122v327h53v-320q0 -69 -25.5 -119t-73.5 -76.5t-115 -26.5zM209 651q-22 0 -33 12t-11 30t11 30t33 12q23 0 34 -12t11 -30t-11 -30t-34 -12zM402 651q-22 0 -33 12
t-11 30t11 30t33 12q23 0 34 -12t11 -30t-11 -30t-34 -12z" />
    <glyph glyph-name="ugrave.salt" horiz-adv-x="612" 
d="M306 -17q-67 0 -115 26.5t-73.5 76.5t-25.5 119v320h53v-327q0 -80 41 -122.5t120 -42.5t120 43t41 122v327h53v-320q0 -69 -25.5 -119t-73.5 -76.5t-115 -26.5zM290 612l-101 189h58l91 -189h-48z" />
    <glyph glyph-name="uhungarumlaut.salt" horiz-adv-x="612" 
d="M306 -17q-67 0 -115 26.5t-73.5 76.5t-25.5 119v320h53v-327q0 -80 41 -122.5t120 -42.5t120 43t41 122v327h53v-320q0 -69 -25.5 -119t-73.5 -76.5t-115 -26.5zM355 612l69 189h53l-77 -189h-45zM206 612l68 189h53l-76 -189h-45z" />
    <glyph glyph-name="umacron.salt" horiz-adv-x="612" 
d="M306 -17q-67 0 -115 26.5t-73.5 76.5t-25.5 119v320h53v-327q0 -80 41 -122.5t120 -42.5t120 43t41 122v327h53v-320q0 -69 -25.5 -119t-73.5 -76.5t-115 -26.5zM184 675v42h243v-42h-243z" />
    <glyph glyph-name="uogonek.salt" horiz-adv-x="612" 
d="M306 -17q-67 0 -115 26.5t-73.5 76.5t-25.5 119v320h53v-327q0 -80 41 -122.5t120 -42.5t120 43t41 122v327h53v-320q0 -69 -25.5 -119t-73.5 -76.5t-115 -26.5zM376 -234q-44 0 -72 25t-28 72q0 45 25 80.5t65 67.5l25 21l21 -27l-25 -20q-35 -29 -52 -58t-17 -60
t16.5 -45.5t42.5 -14.5q23 0 47 9v-41q-10 -4 -21.5 -6.5t-26.5 -2.5z" />
    <glyph glyph-name="uring.salt" horiz-adv-x="612" 
d="M306 -17q-67 0 -115 26.5t-73.5 76.5t-25.5 119v320h53v-327q0 -80 41 -122.5t120 -42.5t120 43t41 122v327h53v-320q0 -69 -25.5 -119t-73.5 -76.5t-115 -26.5zM306 602q-48 0 -77.5 30.5t-29.5 74.5t29.5 75t77.5 31t77 -31t29 -75t-29.5 -74.5t-76.5 -30.5zM306 637
q32 0 51 20t19 50q0 31 -19 51t-51 20t-51 -20t-19 -51q0 -30 19 -50t51 -20z" />
    <glyph glyph-name="utilde.salt" horiz-adv-x="612" 
d="M306 -17q-67 0 -115 26.5t-73.5 76.5t-25.5 119v320h53v-327q0 -80 41 -122.5t120 -42.5t120 43t41 122v327h53v-320q0 -69 -25.5 -119t-73.5 -76.5t-115 -26.5zM370 650q-23 0 -39 7.5t-29.5 17.5t-27.5 18t-32 8q-20 0 -36 -11t-30 -31l-19 32q16 25 38 38.5t48 13.5
q23 0 40 -8t30 -18t27 -17.5t32 -7.5q20 0 36 10.5t30 31.5l19 -33q-16 -25 -38 -38t-49 -13z" />
    <glyph glyph-name="yen.tnum" horiz-adv-x="676" 
d="M297 315l-222 415h57l204 -386l-28 7h74l-28 -7l193 386h54l-210 -415h-94zM318 0v327h50v-327h-50zM106 168v41h474v-41h-474zM106 311v40h474v-40h-474z" />
    <glyph glyph-name="zero.dnom" horiz-adv-x="438" 
d="M219 -9q-56 0 -93 25t-55.5 69.5t-18.5 103.5v23q0 61 19 106t56 69.5t92 24.5t92.5 -24.5t56 -69.5t18.5 -106v-23q0 -58 -18 -103t-55 -70t-94 -25zM219 31q62 0 92.5 42.5t30.5 127.5q0 89 -32 130t-91 41q-60 0 -91.5 -41t-31.5 -130q0 -86 31 -128t92 -42z" />
    <glyph glyph-name="zero.numr" horiz-adv-x="438" 
d="M219 246q-56 0 -93 25t-55.5 69.5t-18.5 103.5v23q0 61 19 106t56 69.5t92 24.5t92.5 -24.5t56 -69.5t18.5 -106v-23q0 -58 -18 -103t-55 -70t-94 -25zM219 286q62 0 92.5 42.5t30.5 127.5q0 89 -32 130t-91 41q-60 0 -91.5 -41t-31.5 -130q0 -86 31 -128t92 -42z" />
    <glyph glyph-name="zero.tnum" horiz-adv-x="676" 
d="M338 -17q-79 0 -133.5 42t-82.5 123t-28 197v38q0 121 29 202t84 122.5t131 41.5t131 -41.5t84 -122.5t29 -202v-38q0 -116 -28 -197t-82.5 -123t-133.5 -42zM338 31q61 0 103.5 34.5t64.5 107.5t22 191q0 122 -23 196t-65.5 107t-101.5 33t-101.5 -33t-65.5 -107
t-23 -195q0 -118 22 -191.5t64.5 -108t103.5 -34.5z" />
    </font>
</defs>
</svg>
