<?xml version="1.0" standalone="no"?>
<!DOCTYPE svg PUBLIC "-//W3C//DTD SVG 20010904//EN"
 "http://www.w3.org/TR/2001/REC-SVG-20010904/DTD/svg10.dtd">
<svg version="1.0" xmlns="http://www.w3.org/2000/svg"
 width="700.000000pt" height="700.000000pt" viewBox="0 0 700.000000 700.000000"
 preserveAspectRatio="xMidYMid meet">
<metadata>
Created by potrace 1.14, written by Peter Selinger 2001-2017
</metadata>
<g transform="translate(0.000000,700.000000) scale(0.100000,-0.100000)"
fill="#000000" stroke="none">
<path d="M3335 6649 c-1426 -66 -2640 -1107 -2925 -2509 -74 -366 -83 -774
-24 -1140 81 -512 302 -1020 621 -1433 518 -669 1295 -1105 2143 -1202 178
-20 523 -20 700 1 670 77 1295 362 1785 813 558 513 912 1211 999 1971 21 177
21 522 0 700 -131 1151 -865 2122 -1939 2569 -304 127 -688 214 -995 226 -74
3 -153 7 -175 8 -22 2 -107 0 -190 -4z m609 -208 c634 -99 1205 -388 1657
-840 472 -472 761 -1061 851 -1736 8 -62 13 -201 13 -365 0 -280 -8 -373 -52
-590 -91 -456 -298 -899 -593 -1270 -107 -134 -325 -353 -460 -460 -408 -325
-903 -541 -1425 -622 -119 -19 -183 -22 -425 -22 -187 -1 -318 4 -380 12 -684
97 -1260 380 -1731 851 -452 452 -742 1025 -840 1657 -27 177 -37 556 -19 731
91 902 563 1690 1310 2188 383 256 836 425 1270 474 52 6 109 13 125 15 17 2
149 3 295 1 211 -2 293 -7 404 -24z"/>
<path d="M3212 6170 c-51 -9 -95 -20 -98 -23 -3 -2 4 -53 15 -113 11 -59 19
-109 18 -111 -2 -1 -42 44 -90 101 l-86 103 -157 -29 c-87 -15 -159 -30 -161
-32 -4 -4 157 -909 163 -915 4 -4 195 27 200 32 1 1 -6 51 -17 111 -11 60 -18
110 -16 112 2 2 41 -41 87 -96 46 -55 88 -100 94 -100 6 0 80 12 164 27 125
22 151 30 148 42 -2 9 -39 214 -82 456 -42 242 -79 443 -83 446 -3 3 -48 -2
-99 -11z"/>
<path d="M3626 6138 c-6 -38 -36 -247 -36 -252 0 -2 20 -7 45 -10 25 -4 45 -8
45 -10 0 -1 -18 -132 -40 -292 -22 -159 -42 -300 -43 -314 -2 -24 1 -25 108
-42 61 -9 120 -17 131 -17 20 -1 23 13 65 315 l44 316 46 -6 46 -6 20 142 c11
79 19 145 17 147 -5 6 -381 60 -416 61 -23 0 -28 -5 -32 -32z"/>
<path d="M2119 5835 c-64 -20 -131 -83 -159 -147 -31 -72 -25 -210 13 -317 79
-223 268 -416 428 -437 115 -16 240 66 273 177 54 180 -47 449 -233 621 -105
97 -222 135 -322 103z m235 -396 c36 -28 33 -73 -6 -102 -23 -17 -33 -19 -55
-11 -50 17 -57 99 -11 122 33 16 42 14 72 -9z"/>
<path d="M4857 5758 c-23 -31 -500 -709 -511 -726 -2 -4 41 -39 97 -79 56 -39
134 -94 173 -122 l72 -50 85 122 c47 67 104 148 127 179 l41 58 -47 32 c-26
18 -58 42 -71 53 -22 19 -22 21 -5 43 l18 23 59 -42 59 -41 23 26 c13 15 23
31 23 36 0 5 -25 26 -55 47 -58 41 -62 48 -40 76 13 18 17 17 80 -28 36 -26
67 -46 69 -44 32 44 149 216 153 225 3 9 -227 184 -314 237 -7 5 -21 -6 -36
-25z"/>
<path d="M4135 5485 c-8 -19 -15 -38 -15 -42 0 -8 269 -118 274 -112 13 18 27
72 20 79 -5 5 -45 23 -89 40 -44 18 -102 41 -128 51 l-48 19 -14 -35z"/>
<path d="M5109 5074 c-195 -147 -362 -274 -371 -283 -16 -15 -13 -21 40 -93
31 -43 62 -77 67 -77 6 0 48 28 95 64 47 35 86 62 88 61 1 -2 -21 -57 -49
-123 l-51 -121 97 -128 c53 -71 101 -128 105 -127 9 3 705 526 729 548 11 11
3 27 -49 95 -42 55 -65 78 -73 72 -101 -77 -177 -132 -177 -128 0 2 23 57 50
122 28 65 48 124 46 131 -6 15 -185 253 -190 253 -2 0 -163 -120 -357 -266z"/>
<path d="M1518 5306 c-25 -7 -58 -20 -72 -29 -27 -18 -246 -265 -246 -278 0
-8 683 -602 698 -607 10 -3 172 183 171 195 0 4 -32 34 -70 67 -38 32 -68 60
-66 62 2 2 52 -6 111 -18 l108 -21 59 64 c32 35 58 69 59 76 0 11 -307 283
-321 283 -4 0 -28 -23 -53 -51 l-46 -51 0 39 c0 62 -28 128 -76 182 -72 80
-166 112 -256 87z m258 -331 c15 -60 -24 -105 -80 -91 -54 14 -59 96 -7 122
32 16 79 -1 87 -31z"/>
<path d="M3335 5010 c-664 -75 -1196 -570 -1327 -1233 -28 -146 -30 -384 -4
-532 39 -216 137 -451 263 -628 77 -109 246 -277 358 -355 106 -75 274 -159
400 -201 379 -125 781 -97 1140 79 307 150 545 388 695 695 246 501 197 1092
-127 1548 -74 105 -245 276 -350 350 -176 125 -419 227 -623 261 -118 20 -319
28 -425 16z m402 -196 c438 -76 826 -390 997 -806 206 -501 82 -1088 -308
-1466 -473 -457 -1202 -502 -1732 -105 -156 116 -310 304 -395 480 -147 307
-174 662 -73 984 120 385 432 714 805 850 231 84 464 105 706 63z"/>
<path d="M3429 4487 c-102 -38 -177 -117 -247 -257 -26 -52 -47 -96 -47 -97 0
-1 -35 3 -78 9 -198 26 -378 -47 -432 -174 -22 -55 -20 -165 6 -235 25 -65 77
-157 115 -203 l27 -31 -21 -22 c-37 -41 -93 -137 -118 -204 -30 -81 -34 -179
-10 -238 23 -55 89 -120 148 -145 68 -29 191 -43 285 -31 43 5 78 9 78 8 0 -1
22 -46 49 -99 27 -53 70 -121 96 -150 136 -153 304 -152 442 2 27 30 70 98 96
150 26 52 47 96 47 97 0 1 35 -3 78 -8 94 -12 219 3 287 32 57 25 117 82 141
134 50 108 -2 308 -117 444 l-26 31 26 31 c115 136 167 336 117 444 -24 52
-84 109 -143 135 -69 30 -192 44 -285 32 -43 -6 -78 -10 -78 -9 0 1 -21 45
-47 97 -81 163 -186 256 -301 266 -30 2 -67 -1 -88 -9z m127 -126 c22 -10 57
-38 77 -61 36 -43 116 -186 107 -192 -14 -9 -227 -80 -240 -80 -13 0 -226 71
-240 80 -9 6 71 149 107 192 35 40 100 80 133 80 8 0 33 -9 56 -19z m-470
-346 c8 -2 8 -17 -1 -53 -8 -28 -19 -84 -26 -127 -12 -72 -15 -78 -59 -112
-25 -20 -68 -58 -96 -86 l-52 -49 -31 46 c-93 135 -117 253 -64 317 33 38 79
59 153 69 50 6 147 4 176 -5z m1076 -11 c29 -10 59 -29 78 -50 26 -30 30 -42
30 -92 0 -62 -32 -143 -91 -228 l-31 -46 -52 49 c-28 28 -72 67 -98 88 -30 23
-48 45 -48 59 0 11 -9 63 -20 115 -11 52 -20 100 -20 107 0 26 166 25 252 -2z
m-880 -30 c32 -9 58 -20 58 -23 0 -4 -19 -17 -42 -28 -24 -12 -58 -32 -75 -43
-27 -18 -33 -19 -33 -7 0 24 23 117 29 117 2 0 31 -7 63 -16z m516 -35 c19
-80 17 -84 -20 -59 -18 11 -52 31 -75 43 -24 11 -43 24 -43 28 0 6 92 36 116
38 6 1 16 -22 22 -50z m-206 -95 c51 -25 126 -69 169 -96 l76 -50 7 -67 c8
-84 8 -178 0 -262 l-7 -67 -76 -50 c-43 -27 -118 -71 -169 -96 l-92 -46 -92
46 c-51 26 -127 69 -169 97 l-76 51 -7 65 c-8 84 -8 178 0 261 l7 66 66 44
c51 35 255 148 269 150 1 0 44 -21 94 -46z m-562 -346 l0 -93 -47 47 -47 48
44 45 c24 25 45 45 47 45 2 0 3 -42 3 -92z m987 -45 l-47 -48 0 95 0 95 47
-48 48 -47 -48 -47z m-1023 -171 l50 -41 22 -113 c12 -62 24 -120 26 -128 2
-12 -15 -15 -101 -18 -126 -3 -186 13 -231 64 -26 30 -30 42 -30 92 0 62 32
143 91 228 l31 46 47 -44 c25 -25 68 -63 95 -86z m1238 -2 c24 -48 33 -82 36
-131 4 -62 2 -68 -27 -102 -45 -50 -102 -67 -229 -67 l-104 0 5 28 c2 15 13
74 23 131 l19 103 60 48 c33 27 76 65 95 85 l35 36 27 -33 c15 -18 42 -62 60
-98z m-934 -203 c23 -11 42 -24 42 -28 0 -7 -120 -43 -124 -37 -6 6 -26 97
-26 113 0 15 4 14 33 -5 17 -11 51 -31 75 -43z m502 -7 c-7 -33 -15 -60 -18
-60 -19 0 -122 34 -122 40 0 4 13 13 28 19 15 6 48 25 72 41 24 16 46 27 48
25 3 -3 -1 -32 -8 -65z m-214 -124 c49 -19 104 -37 122 -41 17 -3 32 -11 32
-17 0 -25 -79 -158 -120 -200 -89 -91 -176 -84 -260 23 -38 48 -100 157 -100
176 0 5 28 16 63 26 46 14 153 54 173 66 1 1 42 -14 90 -33z"/>
<path d="M3442 3666 c-49 -17 -98 -70 -112 -122 -17 -59 -1 -116 47 -165 71
-74 175 -74 246 0 72 74 71 174 -2 244 -56 54 -113 67 -179 43z"/>
<path d="M1037 4733 c-12 -19 -177 -396 -175 -399 11 -10 844 -374 850 -372
15 5 111 229 101 237 -4 4 -62 31 -128 61 -66 29 -122 54 -124 56 -2 2 6 26
17 54 l21 51 -57 26 c-31 14 -91 40 -132 58 -41 19 -78 32 -81 29 -4 -2 -15
-24 -25 -49 -18 -49 -22 -51 -48 -32 -16 12 -15 18 18 91 20 44 35 81 33 83
-7 6 -249 113 -257 113 -5 0 -11 -3 -13 -7z"/>
<path d="M5568 4367 c-294 -89 -438 -136 -438 -145 0 -20 90 -313 105 -342 22
-41 87 -97 140 -122 66 -30 223 -32 335 -4 175 43 329 145 382 255 40 82 36
144 -20 325 -26 88 -53 161 -58 162 -5 2 -206 -57 -446 -129z m142 -257 c59
-59 -28 -151 -90 -95 -28 25 -27 79 2 99 31 22 64 20 88 -4z"/>
<path d="M994 3183 c2 -10 12 -64 21 -121 l17 -103 -87 -81 c-100 -94 -103
-89 51 -108 l101 -13 55 -111 55 -111 56 111 55 111 104 12 c57 8 109 16 115
20 9 4 -16 35 -70 90 l-84 82 19 107 c10 59 18 113 18 120 0 8 -41 -9 -105
-43 l-105 -57 -107 56 c-58 31 -108 56 -110 56 -3 0 -2 -8 1 -17z"/>
<path d="M5544 3183 c2 -10 12 -65 21 -122 l17 -103 -87 -81 c-101 -93 -103
-88 51 -107 l101 -13 55 -111 55 -111 56 111 55 111 104 12 c57 8 109 16 115
20 9 4 -16 35 -70 90 l-84 82 19 107 c10 59 18 113 18 120 0 8 -41 -9 -105
-43 l-105 -57 -107 56 c-58 31 -108 56 -110 56 -3 0 -2 -8 1 -17z"/>
<path d="M4613 2287 l-142 -82 -1 -145 0 -145 -56 95 c-31 52 -60 99 -64 104
-9 9 -312 -163 -306 -173 18 -33 599 -1017 601 -1019 3 -3 291 162 303 173 2
2 -32 63 -76 137 -43 73 -84 143 -91 156 l-12 23 32 -17 c18 -9 102 -54 187
-100 84 -46 155 -84 157 -84 14 0 199 120 198 128 -3 12 -261 452 -273 465 -4
5 -73 -30 -153 -77 -80 -47 -148 -86 -151 -86 -3 0 -7 164 -8 364 l-3 365
-142 -82z"/>
<path d="M2220 2310 c-84 -17 -203 -85 -286 -162 -188 -176 -337 -459 -338
-643 -1 -85 14 -131 56 -174 45 -46 85 -64 144 -64 60 0 135 32 207 87 27 21
50 36 52 34 2 -2 -30 -49 -71 -105 -41 -57 -74 -106 -73 -110 0 -10 205 -153
217 -153 14 0 344 472 335 480 -30 26 -212 150 -222 150 -6 0 -21 -16 -33 -35
-13 -19 -29 -35 -37 -35 -31 0 -104 44 -122 74 -37 60 -20 150 37 195 54 43
132 11 120 -49 -5 -27 3 -34 149 -139 112 -80 156 -106 163 -98 22 26 81 156
100 219 43 138 38 252 -16 351 -71 132 -234 207 -382 177z"/>
<path d="M2705 1430 c-70 -319 -126 -582 -124 -583 10 -8 540 -119 545 -115 2
3 31 124 63 269 40 182 55 266 47 270 -6 4 -57 17 -112 29 l-102 23 10 36 c6
20 11 37 13 39 1 1 41 -7 89 -18 48 -11 91 -20 95 -20 10 0 31 99 22 104 -3 2
-46 12 -94 22 l-89 18 6 34 c3 19 7 37 10 39 2 3 48 -5 101 -17 53 -12 99 -19
103 -16 6 7 83 348 79 352 -4 4 -507 114 -521 114 -9 0 -52 -179 -141 -580z"/>
<path d="M3707 1925 c-137 -18 -251 -36 -254 -39 -7 -7 135 -1143 145 -1166 6
-14 39 -12 282 20 259 33 275 36 273 55 -7 66 -66 531 -68 533 -2 2 -52 -3
-111 -12 -118 -16 -124 -14 -124 37 0 15 1 27 3 28 1 0 43 6 92 12 89 12 90
12 93 41 2 15 1 40 -3 53 -6 25 -8 25 -68 19 -34 -4 -78 -10 -98 -13 -37 -5
-37 -5 -40 35 l-4 39 100 13 c55 6 102 13 106 15 4 3 -27 281 -41 363 0 4 -30
0 -283 -33z"/>
</g>
</svg>
